{"glyphs":{"0":{"ha":785,"x_min":null,"x_max":null,"o":"m 310 -21 b 69 306 158 -21 69 99 b 594 1136 69 626 290 1136 b 833 813 744 1136 833 1015 b 310 -21 833 490 613 -21 m 306 36 b 693 911 513 36 693 632 b 596 1078 693 1007 672 1078 b 208 204 389 1078 208 486 b 306 36 208 111 229 36 "},"1":{"ha":474,"x_min":null,"x_max":null,"o":"m 235 138 b 328 33 208 51 218 33 l 314 0 l -81 0 l -67 33 b 97 138 29 33 71 50 l 340 932 b 232 990 369 1026 368 1039 l 236 1031 l 518 1131 l 532 1111 "},"2":{"ha":699,"x_min":null,"x_max":null,"o":"m 411 124 b 621 306 503 124 561 201 l 656 306 l 489 0 l -78 0 l -75 35 b 607 875 408 432 607 679 b 474 1021 607 965 567 1021 b 183 717 349 1021 235 903 l 149 717 b 557 1133 204 968 361 1133 b 749 946 679 1133 749 1063 b 117 128 749 697 456 389 l 117 124 "},"3":{"ha":650,"x_min":null,"x_max":null,"o":"m 168 -22 b -54 76 60 -22 -54 17 b 22 146 -54 110 -19 146 b 190 33 100 146 88 33 b 456 381 322 33 456 197 b 226 578 456 514 383 578 l 235 614 b 574 922 438 663 574 788 b 458 1039 574 990 539 1039 b 225 846 333 1039 257 942 l 192 846 b 525 1133 240 1028 372 1133 b 717 957 654 1133 717 1058 b 379 614 717 796 539 650 l 379 606 b 607 376 522 599 607 510 b 168 -22 607 158 401 -22 "},"4":{"ha":736,"x_min":null,"x_max":null,"o":"m 14 296 l 35 419 l 679 1132 l 788 1132 l 569 418 l 701 418 l 664 296 l 532 296 l 483 138 b 569 33 457 51 464 33 l 557 0 l 188 0 l 200 33 b 353 138 288 33 326 50 l 401 296 m 104 418 l 439 418 l 617 994 l 107 424 "},"5":{"ha":643,"x_min":null,"x_max":null,"o":"m 169 -22 b -40 79 75 -22 -40 18 b 35 146 -40 113 -6 146 b 197 33 114 146 99 33 b 461 482 326 33 461 271 b 338 667 461 625 403 667 b 192 593 278 667 239 638 l 153 629 l 315 1111 l 717 1111 l 678 988 l 329 988 l 225 676 l 232 671 b 417 747 288 724 344 747 b 613 510 528 747 613 671 b 169 -22 613 251 421 -22 "},"6":{"ha":710,"x_min":null,"x_max":null,"o":"m 506 760 b 693 528 633 760 693 660 b 276 -22 693 324 556 -22 b 36 251 125 -22 36 76 b 842 1139 36 594 343 1025 l 849 1107 b 360 719 651 1044 481 893 b 506 760 410 746 461 760 m 275 35 b 557 558 444 35 557 390 b 454 703 557 643 526 703 b 286 600 404 703 343 671 b 167 196 210 458 167 314 b 275 35 167 89 208 35 "},"7":{"ha":660,"x_min":null,"x_max":null,"o":"m 154 -17 l 50 35 l 651 983 l 654 990 l 347 990 b 193 844 263 990 229 961 l 164 864 l 208 1003 l 242 1111 l 839 1111 "},"8":{"ha":708,"x_min":null,"x_max":null,"o":"m 799 935 b 513 597 799 796 663 694 b 653 311 583 511 653 422 b 272 -22 653 135 483 -22 b 7 193 113 -22 7 68 b 338 583 7 354 171 472 b 217 843 275 663 217 743 b 556 1136 217 1001 360 1136 b 799 935 707 1136 799 1051 m 457 664 b 682 953 581 751 682 842 b 556 1076 682 1022 643 1076 b 364 881 449 1076 364 996 b 457 664 364 800 406 731 m 499 272 b 390 518 499 367 449 443 b 126 188 250 424 126 324 b 278 39 126 106 178 39 b 499 272 401 39 499 139 "},"9":{"ha":711,"x_min":null,"x_max":null,"o":"m 550 1139 b 789 865 701 1139 789 1040 b -17 -22 789 522 482 92 l -22 10 b 465 399 176 72 346 225 b 321 357 415 371 365 357 b 133 589 192 357 133 457 b 550 1139 133 793 271 1139 m 538 514 b 658 921 615 656 658 803 b 551 1082 658 1029 618 1082 b 269 558 382 1082 269 728 b 372 414 269 474 299 414 b 538 514 421 414 481 444 "}," ":{"ha":283,"x_min":null,"x_max":null,"o":""},"A":{"ha":915,"x_min":null,"x_max":null,"o":"m 736 143 b 853 33 733 53 753 33 l 840 0 l 424 0 l 435 33 b 579 143 551 33 574 58 l 590 343 l 218 343 l 72 119 b 156 33 26 49 15 33 l 144 0 l -171 0 l -161 33 b -1 119 -97 33 -51 44 l 669 1133 l 779 1133 m 253 396 l 594 396 l 626 949 l 614 949 "},"Á":{"ha":915,"x_min":null,"x_max":null,"o":"m 1017 1461 l 771 1207 l 726 1207 l 885 1461 m 736 143 b 853 33 733 53 753 33 l 840 0 l 424 0 l 435 33 b 579 143 551 33 574 58 l 590 343 l 218 343 l 72 119 b 156 33 26 49 15 33 l 144 0 l -171 0 l -161 33 b -1 119 -97 33 -51 44 l 669 1133 l 779 1133 m 253 396 l 594 396 l 626 949 l 614 949 "},"Ă":{"ha":915,"x_min":null,"x_max":null,"o":"m 993 1442 b 757 1242 964 1310 865 1242 b 607 1368 668 1242 607 1285 b 621 1442 607 1390 611 1415 l 651 1442 b 649 1413 649 1433 649 1421 b 769 1335 649 1353 689 1335 b 961 1442 861 1335 935 1365 m 736 143 b 853 33 733 53 753 33 l 840 0 l 424 0 l 435 33 b 579 143 551 33 574 58 l 590 343 l 218 343 l 72 119 b 156 33 26 49 15 33 l 144 0 l -171 0 l -161 33 b -1 119 -97 33 -51 44 l 669 1133 l 779 1133 m 253 396 l 594 396 l 626 949 l 614 949 "},"Â":{"ha":915,"x_min":null,"x_max":null,"o":"m 915 1207 l 875 1207 l 794 1388 l 590 1207 l 546 1207 l 751 1461 l 879 1461 m 736 143 b 853 33 733 53 753 33 l 840 0 l 424 0 l 435 33 b 579 143 551 33 574 58 l 590 343 l 218 343 l 72 119 b 156 33 26 49 15 33 l 144 0 l -171 0 l -161 33 b -1 119 -97 33 -51 44 l 669 1133 l 779 1133 m 253 396 l 594 396 l 626 949 l 614 949 "},"Ä":{"ha":915,"x_min":null,"x_max":null,"o":"m 646 1238 b 563 1321 599 1238 563 1274 b 646 1403 563 1368 599 1403 b 729 1321 694 1403 729 1368 b 646 1238 729 1274 694 1238 m 900 1403 b 982 1321 947 1403 982 1368 b 900 1238 982 1274 947 1238 b 817 1321 853 1238 817 1274 b 900 1403 817 1368 853 1403 m 736 143 b 853 33 733 53 753 33 l 840 0 l 424 0 l 435 33 b 579 143 551 33 574 58 l 590 343 l 218 343 l 72 119 b 156 33 26 49 15 33 l 144 0 l -171 0 l -161 33 b -1 119 -97 33 -51 44 l 669 1133 l 779 1133 m 253 396 l 594 396 l 626 949 l 614 949 "},"À":{"ha":915,"x_min":null,"x_max":null,"o":"m 767 1207 l 722 1207 l 519 1461 l 650 1461 m 736 143 b 853 33 733 53 753 33 l 840 0 l 424 0 l 435 33 b 579 143 551 33 574 58 l 590 343 l 218 343 l 72 119 b 156 33 26 49 15 33 l 144 0 l -171 0 l -161 33 b -1 119 -97 33 -51 44 l 669 1133 l 779 1133 m 253 396 l 594 396 l 626 949 l 614 949 "},"Ā":{"ha":915,"x_min":null,"x_max":null,"o":"m 585 1346 l 974 1346 l 956 1281 l 565 1281 m 736 143 b 853 33 733 53 753 33 l 840 0 l 424 0 l 435 33 b 579 143 551 33 574 58 l 590 343 l 218 343 l 72 119 b 156 33 26 49 15 33 l 144 0 l -171 0 l -161 33 b -1 119 -97 33 -51 44 l 669 1133 l 779 1133 m 253 396 l 594 396 l 626 949 l 614 949 "},"Ą":{"ha":915,"x_min":null,"x_max":null,"o":"m 750 0 b 547 -207 658 -40 547 -117 b 619 -269 547 -247 568 -269 b 733 -236 654 -269 683 -260 l 740 -271 b 572 -329 685 -310 632 -329 b 443 -228 500 -329 443 -300 b 706 0 443 -100 613 -29 l 424 0 l 435 33 b 579 143 551 33 574 58 l 590 343 l 218 343 l 72 119 b 156 33 26 49 15 33 l 144 0 l -171 0 l -161 33 b -1 119 -97 33 -51 44 l 669 1133 l 779 1133 l 736 143 b 853 33 733 53 753 33 l 840 0 m 253 396 l 594 396 l 626 949 l 614 949 "},"Å":{"ha":915,"x_min":null,"x_max":null,"o":"m 814 1492 b 921 1389 881 1492 921 1449 b 746 1217 921 1306 842 1217 b 639 1322 678 1217 639 1263 b 814 1492 639 1407 719 1492 m 753 1264 b 868 1388 824 1264 868 1338 b 807 1446 868 1422 849 1446 b 692 1325 736 1446 692 1378 b 753 1264 692 1290 711 1264 m 736 143 b 853 33 733 53 753 33 l 840 0 l 424 0 l 435 33 b 579 143 551 33 574 58 l 590 343 l 218 343 l 72 119 b 156 33 26 49 15 33 l 144 0 l -171 0 l -161 33 b -1 119 -97 33 -51 44 l 669 1133 l 779 1133 m 253 396 l 594 396 l 626 949 l 614 949 "},"Ã":{"ha":915,"x_min":null,"x_max":null,"o":"m 1015 1422 b 850 1235 982 1331 931 1235 b 672 1329 758 1235 743 1329 b 561 1229 617 1329 586 1288 l 528 1233 b 693 1422 561 1325 613 1422 b 871 1326 785 1422 800 1326 b 982 1426 926 1326 957 1368 m 736 143 b 853 33 733 53 753 33 l 840 0 l 424 0 l 435 33 b 579 143 551 33 574 58 l 590 343 l 218 343 l 72 119 b 156 33 26 49 15 33 l 144 0 l -171 0 l -161 33 b -1 119 -97 33 -51 44 l 669 1133 l 779 1133 m 253 396 l 594 396 l 626 949 l 614 949 "},"Æ":{"ha":1256,"x_min":null,"x_max":null,"o":"m 1275 851 l 1235 851 b 1160 1049 1269 994 1258 1049 l 983 1049 b 906 990 943 1049 918 1031 l 789 610 l 963 610 b 1100 726 1036 610 1071 639 l 1133 726 l 1042 414 l 1008 414 b 949 560 1035 518 1022 560 l 774 560 l 649 151 b 689 63 626 75 636 63 l 883 63 b 1149 274 989 63 1056 107 l 1190 261 l 1053 0 l 317 0 l 326 33 b 490 138 431 33 465 56 l 558 361 l 258 361 l 82 117 b 140 33 32 47 17 33 l 131 0 l -171 0 l -161 33 b 14 117 -89 33 -39 43 l 650 994 b 585 1078 699 1064 714 1078 l 596 1111 l 1351 1111 m 574 411 l 772 1058 l 760 1058 l 294 411 "},"B":{"ha":872,"x_min":null,"x_max":null,"o":"m -75 0 l -65 33 b 100 138 40 33 75 56 l 356 974 b 256 1078 381 1056 379 1078 l 265 1111 l 642 1111 b 931 896 824 1111 931 1032 b 579 594 931 726 769 608 l 578 586 b 828 369 728 582 828 501 b 332 0 828 139 604 0 m 394 625 b 460 619 421 619 438 619 b 788 900 640 619 788 738 b 611 1056 788 1015 711 1056 b 518 1025 569 1056 525 1049 m 236 106 b 326 57 228 79 242 57 b 669 388 532 57 669 217 b 474 564 669 526 574 564 b 374 558 436 564 403 563 "},"C":{"ha":868,"x_min":null,"x_max":null,"o":"m 388 -22 b 75 349 175 -22 75 138 b 672 1132 75 689 332 1132 b 871 1042 767 1132 825 1100 b 910 1046 888 1018 897 1018 l 940 1119 l 972 1115 l 861 728 l 828 728 b 685 1069 854 925 833 1069 b 243 354 424 1069 243 628 b 447 72 243 172 319 72 b 818 418 610 72 733 231 l 858 418 b 388 -22 751 171 625 -22 "},"Ć":{"ha":868,"x_min":null,"x_max":null,"o":"m 679 1203 l 838 1457 l 969 1457 l 724 1203 m 388 -22 b 75 349 175 -22 75 138 b 672 1132 75 689 332 1132 b 871 1042 767 1132 825 1100 b 910 1046 888 1018 897 1018 l 940 1119 l 972 1115 l 861 728 l 828 728 b 685 1069 854 925 833 1069 b 243 354 424 1069 243 628 b 447 72 243 172 319 72 b 818 418 610 72 733 231 l 858 418 b 388 -22 751 171 625 -22 "},"Č":{"ha":868,"x_min":null,"x_max":null,"o":"m 576 1457 l 615 1457 l 697 1275 l 900 1457 l 946 1457 l 739 1203 l 611 1203 m 861 728 l 828 728 b 685 1069 854 925 833 1069 b 243 354 424 1069 243 628 b 447 72 243 172 319 72 b 818 418 610 72 733 231 l 858 418 b 388 -22 751 171 625 -22 b 75 349 175 -22 75 138 b 672 1132 75 689 332 1132 b 871 1042 767 1132 825 1100 b 910 1046 888 1018 897 1018 l 940 1119 l 972 1115 "},"Ç":{"ha":868,"x_min":null,"x_max":null,"o":"m 861 728 l 828 728 b 685 1069 854 925 833 1069 b 243 354 424 1069 243 628 b 447 72 243 172 319 72 b 818 418 610 72 733 231 l 858 418 b 388 -22 751 171 625 -22 l 382 -22 l 361 -67 b 481 -165 426 -68 481 -97 b 231 -324 481 -247 392 -324 b 140 -315 200 -324 169 -321 l 156 -283 b 207 -285 172 -285 192 -285 b 379 -168 332 -285 379 -221 b 289 -106 379 -122 343 -106 l 331 -18 b 75 349 157 8 75 157 b 672 1132 75 689 332 1132 b 871 1042 767 1132 825 1100 b 910 1046 888 1018 897 1018 l 940 1119 l 972 1115 "},"Ċ":{"ha":868,"x_min":null,"x_max":null,"o":"m 721 1233 b 638 1317 674 1233 638 1269 b 721 1399 638 1364 674 1399 b 803 1317 768 1399 803 1364 b 721 1233 803 1269 768 1233 m 388 -22 b 75 349 175 -22 75 138 b 672 1132 75 689 332 1132 b 871 1042 767 1132 825 1100 b 910 1046 888 1018 897 1018 l 940 1119 l 972 1115 l 861 728 l 828 728 b 685 1069 854 925 833 1069 b 243 354 424 1069 243 628 b 447 72 243 172 319 72 b 818 418 610 72 733 231 l 858 418 b 388 -22 751 171 625 -22 "},"D":{"ha":1036,"x_min":null,"x_max":null,"o":"m -75 0 l -65 33 b 100 138 40 33 75 56 l 356 974 b 256 1078 381 1056 379 1078 l 265 1111 l 635 1111 b 1063 706 882 1111 1063 963 b 336 0 1063 318 747 0 m 340 57 b 904 738 657 57 904 410 b 640 1056 904 943 796 1056 b 519 1013 579 1056 529 1046 l 239 104 b 340 57 229 75 257 57 "},"Ð":{"ha":1036,"x_min":null,"x_max":null,"o":"m 635 1111 b 1063 706 882 1111 1063 963 b 336 0 1063 318 747 0 l -75 0 l -65 33 b 100 138 40 33 75 56 l 229 561 l 99 561 l 113 607 l 243 607 l 356 974 b 256 1078 381 1056 379 1078 l 265 1111 l 635 1111 m 340 57 b 904 738 657 57 904 410 b 640 1056 904 943 796 1056 b 519 1013 579 1056 529 1046 l 394 607 l 625 607 l 611 561 l 381 561 l 239 104 b 340 57 229 75 257 57 "},"Ď":{"ha":1036,"x_min":null,"x_max":null,"o":"m 597 1461 l 636 1461 l 718 1279 l 921 1461 l 967 1461 l 760 1207 l 632 1207 m 635 1111 b 1063 706 882 1111 1063 963 b 336 0 1063 318 747 0 l -75 0 l -65 33 b 100 138 40 33 75 56 l 356 974 b 256 1078 381 1056 379 1078 l 265 1111 l 635 1111 m 340 57 b 904 738 657 57 904 410 b 640 1056 904 943 796 1056 b 519 1013 579 1056 529 1046 l 239 104 b 340 57 229 75 257 57 "},"Đ":{"ha":1036,"x_min":null,"x_max":null,"o":"m 635 1111 b 1063 706 882 1111 1063 963 b 336 0 1063 318 747 0 l -75 0 l -65 33 b 100 138 40 33 75 56 l 229 561 l 99 561 l 113 607 l 243 607 l 356 974 b 256 1078 381 1056 379 1078 l 265 1111 l 635 1111 m 340 57 b 904 738 657 57 904 410 b 640 1056 904 943 796 1056 b 519 1013 579 1056 529 1046 l 394 607 l 625 607 l 611 561 l 381 561 l 239 104 b 340 57 229 75 257 57 "},"E":{"ha":865,"x_min":null,"x_max":null,"o":"m 885 851 l 844 851 b 769 1049 879 994 868 1049 l 593 1049 b 514 990 553 1049 526 1031 l 397 610 l 572 610 b 710 726 646 610 681 639 l 743 726 l 651 414 l 617 414 b 557 560 644 518 632 560 l 383 560 l 258 151 b 299 63 235 75 244 63 l 492 63 b 757 274 599 63 665 107 l 799 261 l 663 0 l -75 0 l -65 33 b 100 138 40 33 75 56 l 356 974 b 256 1078 381 1056 379 1078 l 265 1111 l 961 1111 "},"É":{"ha":865,"x_min":null,"x_max":null,"o":"m 656 1207 l 814 1461 l 946 1461 l 700 1207 m 885 851 l 844 851 b 769 1049 879 994 868 1049 l 593 1049 b 514 990 553 1049 526 1031 l 397 610 l 572 610 b 710 726 646 610 681 639 l 743 726 l 651 414 l 617 414 b 557 560 644 518 632 560 l 383 560 l 258 151 b 299 63 235 75 244 63 l 492 63 b 757 274 599 63 665 107 l 799 261 l 663 0 l -75 0 l -65 33 b 100 138 40 33 75 56 l 356 974 b 256 1078 381 1056 379 1078 l 265 1111 l 961 1111 "},"Ě":{"ha":865,"x_min":null,"x_max":null,"o":"m 553 1461 l 592 1461 l 674 1279 l 876 1461 l 922 1461 l 715 1207 l 588 1207 m 961 1111 l 885 851 l 844 851 b 769 1049 879 994 868 1049 l 593 1049 b 514 990 553 1049 526 1031 l 397 610 l 572 610 b 710 726 646 610 681 639 l 743 726 l 651 414 l 617 414 b 557 560 644 518 632 560 l 383 560 l 258 151 b 299 63 235 75 244 63 l 492 63 b 757 274 599 63 665 107 l 799 261 l 663 0 l -75 0 l -65 33 b 100 138 40 33 75 56 l 356 974 b 256 1078 381 1056 379 1078 l 265 1111 "},"Ê":{"ha":865,"x_min":null,"x_max":null,"o":"m 724 1388 l 519 1207 l 475 1207 l 681 1461 l 808 1461 l 844 1207 l 804 1207 m 961 1111 l 885 851 l 844 851 b 769 1049 879 994 868 1049 l 593 1049 b 514 990 553 1049 526 1031 l 397 610 l 572 610 b 710 726 646 610 681 639 l 743 726 l 651 414 l 617 414 b 557 560 644 518 632 560 l 383 560 l 258 151 b 299 63 235 75 244 63 l 492 63 b 757 274 599 63 665 107 l 799 261 l 663 0 l -75 0 l -65 33 b 100 138 40 33 75 56 l 356 974 b 256 1078 381 1056 379 1078 l 265 1111 "},"Ë":{"ha":865,"x_min":null,"x_max":null,"o":"m 575 1238 b 492 1321 528 1238 492 1274 b 575 1403 492 1368 528 1403 b 658 1321 624 1403 658 1368 b 575 1238 658 1274 624 1238 m 829 1238 b 746 1321 782 1238 746 1274 b 829 1403 746 1368 782 1403 b 911 1321 876 1403 911 1368 b 829 1238 911 1274 876 1238 m 885 851 l 844 851 b 769 1049 879 994 868 1049 l 593 1049 b 514 990 553 1049 526 1031 l 397 610 l 572 610 b 710 726 646 610 681 639 l 743 726 l 651 414 l 617 414 b 557 560 644 518 632 560 l 383 560 l 258 151 b 299 63 235 75 244 63 l 492 63 b 757 274 599 63 665 107 l 799 261 l 663 0 l -75 0 l -65 33 b 100 138 40 33 75 56 l 356 974 b 256 1078 381 1056 379 1078 l 265 1111 l 961 1111 "},"Ė":{"ha":865,"x_min":null,"x_max":null,"o":"m 696 1238 b 613 1321 649 1238 613 1274 b 696 1403 613 1368 649 1403 b 778 1321 743 1403 778 1368 b 696 1238 778 1274 743 1238 m 885 851 l 844 851 b 769 1049 879 994 868 1049 l 593 1049 b 514 990 553 1049 526 1031 l 397 610 l 572 610 b 710 726 646 610 681 639 l 743 726 l 651 414 l 617 414 b 557 560 644 518 632 560 l 383 560 l 258 151 b 299 63 235 75 244 63 l 492 63 b 757 274 599 63 665 107 l 799 261 l 663 0 l -75 0 l -65 33 b 100 138 40 33 75 56 l 356 974 b 256 1078 381 1056 379 1078 l 265 1111 l 961 1111 "},"È":{"ha":865,"x_min":null,"x_max":null,"o":"m 694 1207 l 650 1207 l 447 1461 l 578 1461 m 885 851 l 844 851 b 769 1049 879 994 868 1049 l 593 1049 b 514 990 553 1049 526 1031 l 397 610 l 572 610 b 710 726 646 610 681 639 l 743 726 l 651 414 l 617 414 b 557 560 644 518 632 560 l 383 560 l 258 151 b 299 63 235 75 244 63 l 492 63 b 757 274 599 63 665 107 l 799 261 l 663 0 l -75 0 l -65 33 b 100 138 40 33 75 56 l 356 974 b 256 1078 381 1056 379 1078 l 265 1111 l 961 1111 "},"Ē":{"ha":865,"x_min":null,"x_max":null,"o":"m 514 1346 l 903 1346 l 885 1281 l 494 1281 m 885 851 l 844 851 b 769 1049 879 994 868 1049 l 593 1049 b 514 990 553 1049 526 1031 l 397 610 l 572 610 b 710 726 646 610 681 639 l 743 726 l 651 414 l 617 414 b 557 560 644 518 632 560 l 383 560 l 258 151 b 299 63 235 75 244 63 l 492 63 b 757 274 599 63 665 107 l 799 261 l 663 0 l -75 0 l -65 33 b 100 138 40 33 75 56 l 356 974 b 256 1078 381 1056 379 1078 l 265 1111 l 961 1111 "},"Ę":{"ha":865,"x_min":null,"x_max":null,"o":"m 961 1111 l 885 851 l 844 851 b 769 1049 879 994 868 1049 l 593 1049 b 514 990 553 1049 526 1031 l 397 610 l 572 610 b 710 726 646 610 681 639 l 743 726 l 651 414 l 617 414 b 557 560 644 518 632 560 l 383 560 l 258 151 b 299 63 235 75 244 63 l 492 63 b 757 274 599 63 665 107 l 799 261 l 663 0 l 661 0 b 456 -208 569 -40 456 -117 b 528 -271 456 -249 476 -271 b 642 -237 563 -271 592 -261 l 649 -272 b 481 -331 593 -311 540 -331 b 351 -229 408 -331 351 -301 b 618 0 351 -99 526 -28 l -75 0 l -65 33 b 100 138 40 33 75 56 l 356 974 b 256 1078 381 1056 379 1078 l 265 1111 "},"F":{"ha":829,"x_min":null,"x_max":null,"o":"m 939 851 l 899 851 b 824 1049 933 994 922 1049 l 581 1049 b 518 1003 549 1049 528 1033 l 390 585 l 585 585 b 729 700 665 585 699 613 l 763 700 l 668 369 l 632 369 b 569 529 657 482 646 529 l 374 529 l 254 138 b 382 33 229 56 235 33 l 371 0 l -75 0 l -65 33 b 100 138 40 33 75 56 l 356 974 b 256 1078 381 1056 379 1078 l 265 1111 l 1015 1111 "},"G":{"ha":997,"x_min":null,"x_max":null,"o":"m 719 1069 b 246 350 464 1069 246 674 b 482 44 246 171 314 44 b 685 157 560 44 633 88 l 757 413 b 546 528 779 493 771 528 l 557 561 l 1003 561 l 997 528 b 906 433 950 528 929 515 l 813 114 b 451 -22 713 28 583 -22 b 81 376 190 -22 81 149 b 707 1132 81 729 360 1132 b 932 1031 821 1132 890 1090 b 963 1033 943 1014 953 1013 l 997 1119 l 1029 1115 l 925 731 l 892 731 b 719 1069 918 926 885 1069 "},"Ğ":{"ha":997,"x_min":null,"x_max":null,"o":"m 981 1442 b 744 1242 951 1310 853 1242 b 594 1368 656 1242 594 1285 b 608 1442 594 1390 599 1415 l 639 1442 b 636 1413 636 1433 636 1421 b 757 1335 636 1353 676 1335 b 949 1442 849 1335 922 1365 m 719 1069 b 246 350 464 1069 246 674 b 482 44 246 171 314 44 b 685 157 560 44 633 88 l 757 413 b 546 528 779 493 771 528 l 557 561 l 1003 561 l 997 528 b 906 433 950 528 929 515 l 813 114 b 451 -22 713 28 583 -22 b 81 376 190 -22 81 149 b 707 1132 81 729 360 1132 b 932 1031 821 1132 890 1090 b 963 1033 943 1014 953 1013 l 997 1119 l 1029 1115 l 925 731 l 892 731 b 719 1069 918 926 885 1069 "},"Ģ":{"ha":997,"x_min":null,"x_max":null,"o":"m 719 1069 b 246 350 464 1069 246 674 b 482 44 246 171 314 44 b 685 157 560 44 633 88 l 757 413 b 546 528 779 493 771 528 l 557 561 l 1003 561 l 997 528 b 906 433 950 528 929 515 l 813 114 b 451 -22 713 28 583 -22 b 81 376 190 -22 81 149 b 707 1132 81 729 360 1132 b 932 1031 821 1132 890 1090 b 963 1033 943 1014 953 1013 l 997 1119 l 1029 1115 l 925 731 l 892 731 b 719 1069 918 926 885 1069 m 411 -103 b 486 -179 456 -103 486 -139 b 300 -343 486 -251 419 -315 l 300 -310 b 422 -221 361 -296 422 -251 b 413 -210 422 -214 418 -210 b 365 -228 401 -210 392 -228 b 328 -185 343 -228 328 -210 b 411 -103 328 -142 363 -103 "},"Ġ":{"ha":997,"x_min":null,"x_max":null,"o":"m 756 1238 b 672 1321 708 1238 672 1274 b 756 1403 672 1368 708 1403 b 838 1321 803 1403 838 1368 b 756 1238 838 1274 803 1238 m 719 1069 b 246 350 464 1069 246 674 b 482 44 246 171 314 44 b 685 157 560 44 633 88 l 757 413 b 546 528 779 493 771 528 l 557 561 l 1003 561 l 997 528 b 906 433 950 528 929 515 l 813 114 b 451 -22 713 28 583 -22 b 81 376 190 -22 81 149 b 707 1132 81 729 360 1132 b 932 1031 821 1132 890 1090 b 963 1033 943 1014 953 1013 l 997 1119 l 1029 1115 l 925 731 l 892 731 b 719 1069 918 926 885 1069 "},"H":{"ha":1069,"x_min":null,"x_max":null,"o":"m 1246 1078 b 1085 974 1143 1078 1110 1056 l 828 138 b 928 33 803 56 806 33 l 918 0 l 508 0 l 517 33 b 675 138 615 33 650 56 l 803 557 l 382 557 l 253 138 b 346 33 229 56 229 33 l 336 0 l -75 0 l -65 33 b 100 138 40 33 75 56 l 356 974 b 256 1078 381 1056 379 1078 l 265 1111 l 676 1111 l 667 1078 b 510 974 568 1078 535 1056 l 400 617 l 821 617 l 931 974 b 839 1078 956 1056 954 1078 l 849 1111 l 1254 1111 "},"Ħ":{"ha":1069,"x_min":null,"x_max":null,"o":"m 1246 1078 b 1085 974 1143 1078 1110 1056 l 1054 874 l 1176 874 l 1164 829 l 1040 829 l 828 138 b 928 33 803 56 806 33 l 918 0 l 508 0 l 517 33 b 675 138 615 33 650 56 l 803 557 l 382 557 l 253 138 b 346 33 229 56 229 33 l 336 0 l -75 0 l -65 33 b 100 138 40 33 75 56 l 311 829 l 163 829 l 176 874 l 325 874 l 356 974 b 256 1078 381 1056 379 1078 l 265 1111 l 676 1111 l 667 1078 b 510 974 568 1078 535 1056 l 479 874 l 900 874 l 931 974 b 839 1078 956 1056 954 1078 l 849 1111 l 1254 1111 m 821 617 l 886 829 l 465 829 l 400 617 "},"I":{"ha":494,"x_min":null,"x_max":null,"o":"m 356 974 b 256 1078 381 1056 379 1078 l 265 1111 l 681 1111 l 671 1078 b 510 974 569 1078 535 1056 l 254 138 b 354 33 229 56 231 33 l 344 0 l -75 0 l -65 33 b 100 138 40 33 75 56 "},"Í":{"ha":494,"x_min":null,"x_max":null,"o":"m 482 1207 l 640 1461 l 772 1461 l 526 1207 m 356 974 b 256 1078 381 1056 379 1078 l 265 1111 l 681 1111 l 671 1078 b 510 974 569 1078 535 1056 l 254 138 b 354 33 229 56 231 33 l 344 0 l -75 0 l -65 33 b 100 138 40 33 75 56 "},"Î":{"ha":494,"x_min":null,"x_max":null,"o":"m 549 1388 l 344 1207 l 300 1207 l 506 1461 l 633 1461 l 669 1207 l 629 1207 m 671 1078 b 510 974 569 1078 535 1056 l 254 138 b 354 33 229 56 231 33 l 344 0 l -75 0 l -65 33 b 100 138 40 33 75 56 l 356 974 b 256 1078 381 1056 379 1078 l 265 1111 l 681 1111 "},"Ï":{"ha":494,"x_min":null,"x_max":null,"o":"m 400 1238 b 317 1321 353 1238 317 1274 b 400 1403 317 1368 353 1403 b 483 1321 449 1403 483 1368 b 400 1238 483 1274 449 1238 m 654 1238 b 571 1321 607 1238 571 1274 b 654 1403 571 1368 607 1403 b 736 1321 701 1403 736 1368 b 654 1238 736 1274 701 1238 m 356 974 b 256 1078 381 1056 379 1078 l 265 1111 l 681 1111 l 671 1078 b 510 974 569 1078 535 1056 l 254 138 b 354 33 229 56 231 33 l 344 0 l -75 0 l -65 33 b 100 138 40 33 75 56 "},"İ":{"ha":494,"x_min":null,"x_max":null,"o":"m 522 1238 b 439 1321 475 1238 439 1274 b 522 1403 439 1368 475 1403 b 604 1321 569 1403 604 1368 b 522 1238 604 1274 569 1238 m 356 974 b 256 1078 381 1056 379 1078 l 265 1111 l 681 1111 l 671 1078 b 510 974 569 1078 535 1056 l 254 138 b 354 33 229 56 231 33 l 344 0 l -75 0 l -65 33 b 100 138 40 33 75 56 "},"Ì":{"ha":494,"x_min":null,"x_max":null,"o":"m 521 1207 l 476 1207 l 274 1461 l 404 1461 m 356 974 b 256 1078 381 1056 379 1078 l 265 1111 l 681 1111 l 671 1078 b 510 974 569 1078 535 1056 l 254 138 b 354 33 229 56 231 33 l 344 0 l -75 0 l -65 33 b 100 138 40 33 75 56 "},"Ī":{"ha":494,"x_min":null,"x_max":null,"o":"m 340 1346 l 729 1346 l 711 1281 l 321 1281 m 356 974 b 256 1078 381 1056 379 1078 l 265 1111 l 681 1111 l 671 1078 b 510 974 569 1078 535 1056 l 254 138 b 354 33 229 56 231 33 l 344 0 l -75 0 l -65 33 b 100 138 40 33 75 56 "},"Į":{"ha":494,"x_min":null,"x_max":null,"o":"m 671 1078 b 510 974 569 1078 535 1056 l 254 138 b 354 33 229 56 231 33 l 344 0 l 275 0 b 69 -208 183 -40 69 -117 b 142 -271 69 -249 90 -271 b 256 -237 176 -271 206 -261 l 263 -272 b 94 -331 207 -311 154 -331 b -35 -229 22 -331 -35 -301 b 232 0 -35 -99 140 -28 l -75 0 l -65 33 b 100 138 40 33 75 56 l 356 974 b 256 1078 381 1056 379 1078 l 265 1111 l 681 1111 "},"J":{"ha":657,"x_min":null,"x_max":null,"o":"m 538 974 b 415 1078 563 1056 557 1078 l 426 1111 l 861 1111 l 851 1078 b 690 974 750 1078 715 1056 l 499 339 b 157 -22 418 68 304 -22 b -37 136 21 -22 -37 56 b 71 272 -37 211 10 272 b 132 219 107 272 132 253 b 81 90 132 172 81 143 b 150 32 81 58 99 32 b 336 303 238 32 282 125 "},"K":{"ha":1004,"x_min":null,"x_max":null,"o":"m 356 974 b 256 1078 381 1056 379 1078 l 265 1111 l 681 1111 l 671 1078 b 510 974 569 1078 535 1056 l 254 138 b 354 33 229 56 231 33 l 344 0 l -75 0 l -65 33 b 100 138 40 33 75 56 m 772 133 b 933 33 804 50 843 33 l 922 0 l 493 0 l 500 33 b 608 135 626 33 636 64 l 421 607 l 797 950 b 865 1043 842 992 865 1022 b 776 1078 865 1068 846 1078 l 786 1111 l 1163 1111 l 1154 1078 b 936 986 1072 1078 1019 1058 l 567 660 "},"Ķ":{"ha":1004,"x_min":null,"x_max":null,"o":"m 356 974 b 256 1078 381 1056 379 1078 l 265 1111 l 681 1111 l 671 1078 b 510 974 569 1078 535 1056 l 254 138 b 354 33 229 56 231 33 l 344 0 l -75 0 l -65 33 b 100 138 40 33 75 56 m 772 133 b 933 33 804 50 843 33 l 922 0 l 493 0 l 500 33 b 608 135 626 33 636 64 l 421 607 l 797 950 b 865 1043 842 992 865 1022 b 776 1078 865 1068 846 1078 l 786 1111 l 1163 1111 l 1154 1078 b 936 986 1072 1078 1019 1058 l 567 660 m 375 -103 b 450 -179 419 -103 450 -139 b 264 -343 450 -251 383 -315 l 264 -310 b 386 -221 325 -296 386 -251 b 376 -210 386 -214 382 -210 b 329 -228 365 -210 356 -228 b 292 -185 307 -228 292 -210 b 375 -103 292 -142 326 -103 "},"L":{"ha":819,"x_min":null,"x_max":null,"o":"m 678 1078 b 513 974 572 1078 538 1056 l 263 153 b 315 63 239 75 253 63 l 481 63 b 736 285 586 63 638 104 l 776 272 l 635 0 l -75 0 l -65 33 b 101 138 42 33 76 56 l 357 974 b 256 1078 382 1056 379 1078 l 265 1111 l 688 1111 "},"Ĺ":{"ha":819,"x_min":null,"x_max":null,"o":"m 478 1207 l 636 1461 l 768 1461 l 522 1207 m 678 1078 b 513 974 572 1078 538 1056 l 263 153 b 315 63 239 75 253 63 l 481 63 b 736 285 586 63 638 104 l 776 272 l 635 0 l -75 0 l -65 33 b 101 138 42 33 76 56 l 357 974 b 256 1078 382 1056 379 1078 l 265 1111 l 688 1111 "},"Ľ":{"ha":819,"x_min":null,"x_max":null,"o":"m 760 874 l 843 1140 l 958 1140 l 803 874 m 678 1078 b 513 974 572 1078 538 1056 l 263 153 b 315 63 239 75 253 63 l 481 63 b 736 285 586 63 638 104 l 776 272 l 635 0 l -75 0 l -65 33 b 101 138 42 33 76 56 l 357 974 b 256 1078 382 1056 379 1078 l 265 1111 l 688 1111 "},"Ļ":{"ha":819,"x_min":null,"x_max":null,"o":"m 678 1078 b 513 974 572 1078 538 1056 l 263 153 b 315 63 239 75 253 63 l 481 63 b 736 285 586 63 638 104 l 776 272 l 635 0 l -75 0 l -65 33 b 101 138 42 33 76 56 l 357 974 b 256 1078 382 1056 379 1078 l 265 1111 l 688 1111 m 318 -103 b 383 -179 361 -103 388 -139 b 179 -343 375 -251 301 -315 l 183 -310 b 315 -221 244 -296 311 -251 b 306 -210 315 -214 313 -210 b 257 -228 296 -210 283 -228 b 225 -185 235 -228 222 -210 b 318 -103 229 -142 268 -103 "},"Ł":{"ha":832,"x_min":null,"x_max":null,"o":"m 789 272 l 647 0 l -62 0 l -53 33 b 113 138 53 33 88 56 l 213 464 l 76 399 l 58 436 l 229 518 l 369 974 b 268 1078 393 1056 392 1078 l 278 1111 l 700 1111 l 690 1078 b 525 974 585 1078 550 1056 l 414 607 l 699 744 l 718 708 l 397 553 l 275 153 b 328 63 251 75 265 63 l 493 63 b 749 285 599 63 649 104 "},"M":{"ha":1285,"x_min":null,"x_max":null,"o":"m 592 246 l 596 246 l 1090 1111 l 1418 1111 l 1410 1078 b 1265 972 1315 1078 1286 1054 l 1056 139 b 1181 33 1035 57 1043 33 l 1169 0 l 736 0 l 746 33 b 903 139 850 33 882 57 l 1122 1031 l 1115 1031 l 504 -28 l 443 -28 l 435 1017 l 429 1017 l 160 138 b 260 33 135 56 138 33 l 250 0 l -74 0 l -64 33 b 100 138 40 33 75 56 l 356 974 b 254 1078 379 1056 378 1078 l 264 1111 l 588 1111 "},"N":{"ha":1026,"x_min":null,"x_max":null,"o":"m 1217 1078 b 1051 974 1111 1078 1076 1056 l 750 -14 l 663 -14 l 394 910 l 161 138 b 278 33 138 56 142 33 l 267 0 l -75 0 l -65 33 b 100 138 40 33 75 56 l 364 1008 b 265 1078 340 1065 314 1078 l 272 1111 l 499 1111 l 753 232 l 763 232 l 990 974 b 872 1078 1014 1056 1010 1078 l 883 1111 l 1226 1111 "},"Ń":{"ha":1026,"x_min":null,"x_max":null,"o":"m 1025 1461 l 779 1207 l 735 1207 l 893 1461 m 1217 1078 b 1051 974 1111 1078 1076 1056 l 750 -14 l 663 -14 l 394 910 l 161 138 b 278 33 138 56 142 33 l 267 0 l -75 0 l -65 33 b 100 138 40 33 75 56 l 364 1008 b 265 1078 340 1065 314 1078 l 272 1111 l 499 1111 l 753 232 l 763 232 l 990 974 b 872 1078 1014 1056 1010 1078 l 883 1111 l 1226 1111 "},"Ň":{"ha":1026,"x_min":null,"x_max":null,"o":"m 633 1461 l 672 1461 l 754 1279 l 957 1461 l 1003 1461 l 796 1207 l 668 1207 m 1217 1078 b 1051 974 1111 1078 1076 1056 l 750 -14 l 663 -14 l 394 910 l 161 138 b 278 33 138 56 142 33 l 267 0 l -75 0 l -65 33 b 100 138 40 33 75 56 l 364 1008 b 265 1078 340 1065 314 1078 l 272 1111 l 499 1111 l 753 232 l 763 232 l 990 974 b 872 1078 1014 1056 1010 1078 l 883 1111 l 1226 1111 "},"Ņ":{"ha":1026,"x_min":null,"x_max":null,"o":"m 1217 1078 b 1051 974 1111 1078 1076 1056 l 750 -14 l 663 -14 l 394 910 l 161 138 b 278 33 138 56 142 33 l 267 0 l -75 0 l -65 33 b 100 138 40 33 75 56 l 364 1008 b 265 1078 340 1065 314 1078 l 272 1111 l 499 1111 l 753 232 l 763 232 l 990 974 b 872 1078 1014 1056 1010 1078 l 883 1111 l 1226 1111 m 411 -103 b 486 -179 456 -103 486 -139 b 300 -343 486 -251 419 -315 l 300 -310 b 422 -221 361 -296 422 -251 b 413 -210 422 -214 418 -210 b 365 -228 401 -210 392 -228 b 328 -185 343 -228 328 -210 b 411 -103 328 -142 363 -103 "},"Ŋ":{"ha":1026,"x_min":null,"x_max":null,"o":"m 1217 1078 b 1051 974 1111 1078 1076 1056 l 775 69 l 776 69 l 744 -35 b 457 -326 686 -221 624 -326 b 315 -261 360 -326 315 -300 b 396 -176 315 -219 351 -176 b 532 -268 465 -176 468 -268 b 693 -14 590 -268 633 -204 l 663 -14 l 394 910 l 161 138 b 278 33 138 56 142 33 l 267 0 l -75 0 l -65 33 b 100 138 40 33 75 56 l 364 1008 b 265 1078 340 1065 314 1078 l 272 1111 l 499 1111 l 753 232 l 763 232 l 990 974 b 872 1078 1014 1056 1010 1078 l 883 1111 l 1226 1111 "},"Ñ":{"ha":1026,"x_min":null,"x_max":null,"o":"m 681 1329 b 569 1229 625 1329 594 1288 l 536 1233 b 701 1422 569 1325 621 1422 b 879 1326 793 1422 808 1326 b 990 1426 935 1326 965 1368 l 1024 1422 b 858 1235 990 1331 939 1235 b 681 1329 767 1235 751 1329 m 1217 1078 b 1051 974 1111 1078 1076 1056 l 750 -14 l 663 -14 l 394 910 l 161 138 b 278 33 138 56 142 33 l 267 0 l -75 0 l -65 33 b 100 138 40 33 75 56 l 364 1008 b 265 1078 340 1065 314 1078 l 272 1111 l 499 1111 l 753 232 l 763 232 l 990 974 b 872 1078 1014 1056 1010 1078 l 883 1111 l 1226 1111 "},"O":{"ha":953,"x_min":null,"x_max":null,"o":"m 376 -22 b 75 347 168 -22 75 142 b 686 1133 75 728 369 1133 b 986 765 894 1133 986 969 b 376 -22 986 383 693 -22 m 396 36 b 832 831 607 36 832 497 b 667 1076 832 975 788 1076 b 231 281 456 1076 231 614 b 396 36 231 138 274 36 "},"Ó":{"ha":953,"x_min":null,"x_max":null,"o":"m 731 1207 l 889 1461 l 1021 1461 l 775 1207 m 376 -22 b 75 347 168 -22 75 142 b 686 1133 75 728 369 1133 b 986 765 894 1133 986 969 b 376 -22 986 383 693 -22 m 396 36 b 832 831 607 36 832 497 b 667 1076 832 975 788 1076 b 231 281 456 1076 231 614 b 396 36 231 138 274 36 "},"Ô":{"ha":953,"x_min":null,"x_max":null,"o":"m 797 1388 l 593 1207 l 549 1207 l 754 1461 l 882 1461 l 918 1207 l 878 1207 m 686 1133 b 986 765 894 1133 986 969 b 376 -22 986 383 693 -22 b 75 347 168 -22 75 142 b 686 1133 75 728 369 1133 m 396 36 b 832 831 607 36 832 497 b 667 1076 832 975 788 1076 b 231 281 456 1076 231 614 b 396 36 231 138 274 36 "},"Ö":{"ha":953,"x_min":null,"x_max":null,"o":"m 649 1238 b 565 1321 601 1238 565 1274 b 649 1403 565 1368 601 1403 b 732 1321 697 1403 732 1368 b 649 1238 732 1274 697 1238 m 903 1238 b 819 1321 856 1238 819 1274 b 903 1403 819 1368 856 1403 b 985 1321 950 1403 985 1368 b 903 1238 985 1274 950 1238 m 376 -22 b 75 347 168 -22 75 142 b 686 1133 75 728 369 1133 b 986 765 894 1133 986 969 b 376 -22 986 383 693 -22 m 396 36 b 832 831 607 36 832 497 b 667 1076 832 975 788 1076 b 231 281 456 1076 231 614 b 396 36 231 138 274 36 "},"Ò":{"ha":953,"x_min":null,"x_max":null,"o":"m 769 1207 l 725 1207 l 522 1461 l 653 1461 m 376 -22 b 75 347 168 -22 75 142 b 686 1133 75 728 369 1133 b 986 765 894 1133 986 969 b 376 -22 986 383 693 -22 m 396 36 b 832 831 607 36 832 497 b 667 1076 832 975 788 1076 b 231 281 456 1076 231 614 b 396 36 231 138 274 36 "},"Ő":{"ha":953,"x_min":null,"x_max":null,"o":"m 635 1207 l 785 1461 l 881 1461 l 678 1207 m 775 1207 l 946 1461 l 1047 1461 l 819 1207 m 376 -22 b 75 347 168 -22 75 142 b 686 1133 75 728 369 1133 b 986 765 894 1133 986 969 b 376 -22 986 383 693 -22 m 396 36 b 832 831 607 36 832 497 b 667 1076 832 975 788 1076 b 231 281 456 1076 231 614 b 396 36 231 138 274 36 "},"Ō":{"ha":953,"x_min":null,"x_max":null,"o":"m 589 1346 l 978 1346 l 960 1281 l 569 1281 m 376 -22 b 75 347 168 -22 75 142 b 686 1133 75 728 369 1133 b 986 765 894 1133 986 969 b 376 -22 986 383 693 -22 m 396 36 b 832 831 607 36 832 497 b 667 1076 832 975 788 1076 b 231 281 456 1076 231 614 b 396 36 231 138 274 36 "},"Ø":{"ha":953,"x_min":null,"x_max":null,"o":"m 1054 1169 l 926 1008 b 986 765 967 944 986 858 b 376 -22 986 383 693 -22 b 168 61 286 -22 217 8 l 40 -99 l 6 -74 l 140 96 b 75 347 96 161 75 250 b 686 1133 75 728 369 1133 b 900 1043 781 1133 851 1100 l 1019 1193 m 231 281 b 235 213 231 257 232 233 l 819 944 b 667 1076 800 1025 753 1076 b 231 281 456 1076 231 614 m 832 831 b 829 888 832 850 831 869 l 244 157 b 396 36 267 83 313 36 b 832 831 607 36 832 497 "},"Õ":{"ha":953,"x_min":null,"x_max":null,"o":"m 853 1235 b 675 1329 761 1235 746 1329 b 564 1229 619 1329 589 1288 l 531 1233 b 696 1422 564 1325 615 1422 b 874 1326 788 1422 803 1326 b 985 1426 929 1326 960 1368 l 1018 1422 b 853 1235 985 1331 933 1235 m 376 -22 b 75 347 168 -22 75 142 b 686 1133 75 728 369 1133 b 986 765 894 1133 986 969 b 376 -22 986 383 693 -22 m 396 36 b 832 831 607 36 832 497 b 667 1076 832 975 788 1076 b 231 281 456 1076 231 614 b 396 36 231 138 274 36 "},"Œ":{"ha":1347,"x_min":null,"x_max":null,"o":"m 400 -11 b 78 350 161 -11 78 142 b 725 1128 78 719 339 1128 b 969 1111 803 1128 867 1111 l 1444 1111 l 1368 851 l 1326 851 b 1253 1049 1361 994 1351 1049 l 1076 1049 b 997 990 1036 1049 1010 1031 l 881 610 l 1056 610 b 1193 726 1129 610 1163 639 l 1226 726 l 1135 414 l 1100 414 b 1040 560 1128 518 1115 560 l 865 560 l 742 151 b 782 63 719 81 728 63 l 975 63 b 1240 274 1081 63 1149 107 l 1282 261 l 1146 0 l 688 0 b 400 -11 576 0 492 -11 m 431 39 b 583 138 490 39 558 56 l 839 974 b 738 1082 863 1049 818 1082 b 228 275 439 1082 228 607 b 431 39 228 129 272 39 "},"P":{"ha":853,"x_min":null,"x_max":null,"o":"m -65 33 b 100 138 40 33 75 56 l 356 974 b 256 1078 381 1056 379 1078 l 265 1111 l 640 1111 b 954 874 843 1111 954 1039 b 521 468 954 674 785 468 b 360 493 460 468 399 478 l 251 138 b 368 33 226 56 231 33 l 358 0 l -75 0 m 499 532 b 807 890 701 532 807 731 b 631 1056 807 1006 742 1056 b 518 1011 557 1056 529 1044 l 379 556 b 499 532 408 544 453 532 "},"Þ":{"ha":846,"x_min":null,"x_max":null,"o":"m 597 907 b 885 667 761 907 885 832 b 457 261 885 467 718 261 b 301 290 411 261 354 267 l 254 138 b 354 33 229 56 231 33 l 344 0 l -75 0 l -65 33 b 100 138 40 33 75 56 l 356 974 b 256 1078 381 1056 379 1078 l 265 1111 l 681 1111 l 671 1078 b 510 974 569 1078 535 1056 l 485 892 b 597 907 515 901 553 907 m 431 328 b 736 689 629 328 736 531 b 585 849 736 803 678 849 b 446 764 514 849 468 814 l 321 354 b 431 328 358 333 396 328 "},"Q":{"ha":960,"x_min":null,"x_max":null,"o":"m 722 -186 b 858 -121 781 -186 828 -172 l 890 -137 b 668 -308 857 -231 782 -308 b 411 -219 582 -308 499 -268 b 140 -124 308 -162 233 -124 b 25 -140 100 -124 61 -131 l 68 -17 b 288 -11 132 -24 211 -22 b 75 347 142 31 75 174 b 686 1133 75 728 369 1133 b 986 765 894 1133 986 969 b 524 7 986 444 779 106 b 142 -68 379 -57 222 -67 l 138 -82 b 224 -78 163 -79 193 -78 b 493 -140 324 -78 406 -108 b 722 -186 572 -171 650 -186 m 667 1076 b 231 281 456 1076 231 614 b 396 36 231 138 274 36 b 832 831 607 36 832 497 b 667 1076 832 975 788 1076 "},"R":{"ha":924,"x_min":null,"x_max":null,"o":"m -65 33 b 100 138 40 33 75 56 l 356 974 b 256 1078 381 1056 379 1078 l 265 1111 l 636 1111 b 933 888 824 1111 933 1036 b 486 574 933 694 739 567 l 482 564 b 642 400 556 556 611 511 l 701 201 b 881 33 736 78 765 33 l 871 0 l 761 0 b 549 185 656 0 592 24 l 476 449 b 376 549 454 521 421 544 l 253 138 b 369 33 228 56 232 33 l 358 0 l -75 0 m 400 624 b 438 622 413 622 426 622 b 786 894 639 626 786 722 b 604 1056 786 1006 722 1056 b 518 1010 563 1056 529 1046 "},"Ŕ":{"ha":924,"x_min":null,"x_max":null,"o":"m 647 1207 l 806 1461 l 938 1461 l 692 1207 m -65 33 b 100 138 40 33 75 56 l 356 974 b 256 1078 381 1056 379 1078 l 265 1111 l 636 1111 b 933 888 824 1111 933 1036 b 486 574 933 694 739 567 l 482 564 b 642 400 556 556 611 511 l 701 201 b 881 33 736 78 765 33 l 871 0 l 761 0 b 549 185 656 0 592 24 l 476 449 b 376 549 454 521 421 544 l 253 138 b 369 33 228 56 232 33 l 358 0 l -75 0 m 400 624 b 438 622 413 622 426 622 b 786 894 639 626 786 722 b 604 1056 786 1006 722 1056 b 518 1010 563 1056 529 1046 "},"Ř":{"ha":924,"x_min":null,"x_max":null,"o":"m 546 1461 l 585 1461 l 667 1279 l 869 1461 l 915 1461 l 708 1207 l 581 1207 m 701 201 b 881 33 736 78 765 33 l 871 0 l 761 0 b 549 185 656 0 592 24 l 476 449 b 376 549 454 521 421 544 l 253 138 b 369 33 228 56 232 33 l 358 0 l -75 0 l -65 33 b 100 138 40 33 75 56 l 356 974 b 256 1078 381 1056 379 1078 l 265 1111 l 636 1111 b 933 888 824 1111 933 1036 b 486 574 933 694 739 567 l 482 564 b 642 400 556 556 611 511 m 438 622 b 786 894 639 626 786 722 b 604 1056 786 1006 722 1056 b 518 1010 563 1056 529 1046 l 400 624 b 438 622 413 622 426 622 "},"Ŗ":{"ha":924,"x_min":null,"x_max":null,"o":"m -65 33 b 100 138 40 33 75 56 l 356 974 b 256 1078 381 1056 379 1078 l 265 1111 l 636 1111 b 933 888 824 1111 933 1036 b 486 574 933 694 739 567 l 482 564 b 642 400 556 556 611 511 l 701 201 b 881 33 736 78 765 33 l 871 0 l 761 0 b 549 185 656 0 592 24 l 476 449 b 376 549 454 521 421 544 l 253 138 b 369 33 228 56 232 33 l 358 0 l -75 0 m 400 624 b 438 622 413 622 426 622 b 786 894 639 626 786 722 b 604 1056 786 1006 722 1056 b 518 1010 563 1056 529 1046 m 457 -103 b 532 -179 501 -103 532 -139 b 346 -343 532 -251 465 -315 l 346 -310 b 468 -221 407 -296 468 -251 b 458 -210 468 -214 464 -210 b 411 -228 447 -210 438 -228 b 374 -185 389 -228 374 -210 b 457 -103 374 -142 408 -103 "},"S":{"ha":697,"x_min":null,"x_max":null,"o":"m 331 -12 b 99 96 231 -12 160 32 b 51 78 78 117 63 108 l 25 0 l -14 0 l 86 378 l 119 378 b 318 56 92 221 167 56 b 492 242 444 56 492 154 b 367 513 492 336 436 418 l 303 604 b 208 842 251 676 208 744 b 511 1133 208 994 318 1133 b 719 1038 599 1133 660 1103 b 751 1042 735 1022 746 1026 l 781 1111 l 815 1111 l 726 786 l 693 786 b 522 1069 718 972 640 1069 b 347 890 403 1069 347 983 b 438 683 347 807 390 750 l 493 604 b 635 292 553 521 635 419 b 331 -12 635 133 531 -12 "},"Ś":{"ha":697,"x_min":null,"x_max":null,"o":"m 556 1207 l 714 1461 l 846 1461 l 600 1207 m 331 -12 b 99 96 231 -12 160 32 b 51 78 78 117 63 108 l 25 0 l -14 0 l 86 378 l 119 378 b 318 56 92 221 167 56 b 492 242 444 56 492 154 b 367 513 492 336 436 418 l 303 604 b 208 842 251 676 208 744 b 511 1133 208 994 318 1133 b 719 1038 599 1133 660 1103 b 751 1042 735 1022 746 1026 l 781 1111 l 815 1111 l 726 786 l 693 786 b 522 1069 718 972 640 1069 b 347 890 403 1069 347 983 b 438 683 347 807 390 750 l 493 604 b 635 292 553 521 635 419 b 331 -12 635 133 531 -12 "},"Š":{"ha":697,"x_min":null,"x_max":null,"o":"m 453 1461 l 492 1461 l 574 1279 l 776 1461 l 822 1461 l 615 1207 l 488 1207 m 781 1111 l 815 1111 l 726 786 l 693 786 b 522 1069 718 972 640 1069 b 347 890 403 1069 347 983 b 438 683 347 807 390 750 l 493 604 b 635 292 553 521 635 419 b 331 -12 635 133 531 -12 b 99 96 231 -12 160 32 b 51 78 78 117 63 108 l 25 0 l -14 0 l 86 378 l 119 378 b 318 56 92 221 167 56 b 492 242 444 56 492 154 b 367 513 492 336 436 418 l 303 604 b 208 842 251 676 208 744 b 511 1133 208 994 318 1133 b 719 1038 599 1133 660 1103 b 751 1042 735 1022 746 1026 "},"Ş":{"ha":697,"x_min":null,"x_max":null,"o":"m 781 1111 l 815 1111 l 726 786 l 693 786 b 522 1069 718 972 640 1069 b 347 890 403 1069 347 983 b 438 683 347 807 390 750 l 493 604 b 635 292 553 521 635 419 b 331 -12 635 133 531 -12 b 297 -11 319 -12 308 -12 l 271 -67 b 390 -165 336 -68 390 -97 b 140 -324 390 -247 301 -324 b 50 -315 110 -324 79 -321 l 65 -283 b 117 -285 82 -285 101 -285 b 289 -168 242 -285 289 -221 b 199 -106 289 -122 253 -106 l 249 -1 b 99 96 189 15 142 51 b 51 78 78 117 63 108 l 25 0 l -14 0 l 86 378 l 119 378 b 318 56 92 221 167 56 b 492 242 444 56 492 154 b 367 513 492 336 436 418 l 303 604 b 208 842 251 676 208 744 b 511 1133 208 994 318 1133 b 719 1038 599 1133 660 1103 b 751 1042 735 1022 746 1026 "},"Ș":{"ha":697,"x_min":null,"x_max":null,"o":"m 331 -12 b 99 96 231 -12 160 32 b 51 78 78 117 63 108 l 25 0 l -14 0 l 86 378 l 119 378 b 318 56 92 221 167 56 b 492 242 444 56 492 154 b 367 513 492 336 436 418 l 303 604 b 208 842 251 676 208 744 b 511 1133 208 994 318 1133 b 719 1038 599 1133 660 1103 b 751 1042 735 1022 746 1026 l 781 1111 l 815 1111 l 726 786 l 693 786 b 522 1069 718 972 640 1069 b 347 890 403 1069 347 983 b 438 683 347 807 390 750 l 493 604 b 635 292 553 521 635 419 b 331 -12 635 133 531 -12 m 251 -103 b 326 -179 296 -103 326 -139 b 140 -343 326 -251 260 -315 l 140 -310 b 263 -221 201 -296 263 -251 b 253 -210 263 -214 258 -210 b 206 -228 242 -210 232 -228 b 168 -185 183 -228 168 -210 b 251 -103 168 -142 203 -103 "},"T":{"ha":835,"x_min":null,"x_max":null,"o":"m 106 33 b 269 138 211 33 246 56 l 535 1001 b 500 1049 543 1029 533 1049 l 424 1049 b 219 851 317 1049 285 1008 l 178 851 l 268 1111 l 1028 1111 l 967 851 l 924 851 b 842 1049 958 1007 943 1049 l 750 1049 b 688 1001 715 1049 697 1031 l 422 138 b 533 33 399 56 401 33 l 524 0 l 96 0 "},"Ŧ":{"ha":835,"x_min":null,"x_max":null,"o":"m 268 1111 l 1028 1111 l 967 851 l 924 851 b 842 1049 958 1007 943 1049 l 750 1049 b 688 1001 715 1049 697 1031 l 556 572 l 772 572 l 758 526 l 542 526 l 422 138 b 533 33 399 56 401 33 l 524 0 l 96 0 l 106 33 b 269 138 211 33 246 56 l 389 526 l 171 526 l 186 572 l 403 572 l 535 1001 b 500 1049 543 1029 533 1049 l 424 1049 b 219 851 317 1049 285 1008 l 178 851 "},"Ť":{"ha":835,"x_min":null,"x_max":null,"o":"m 558 1461 l 597 1461 l 679 1279 l 882 1461 l 928 1461 l 721 1207 l 593 1207 m 268 1111 l 1028 1111 l 967 851 l 924 851 b 842 1049 958 1007 943 1049 l 750 1049 b 688 1001 715 1049 697 1031 l 422 138 b 533 33 399 56 401 33 l 524 0 l 96 0 l 106 33 b 269 138 211 33 246 56 l 535 1001 b 500 1049 543 1029 533 1049 l 424 1049 b 219 851 317 1049 285 1008 l 178 851 "},"Ţ":{"ha":835,"x_min":null,"x_max":null,"o":"m 268 1111 l 1028 1111 l 967 851 l 924 851 b 842 1049 958 1007 943 1049 l 750 1049 b 688 1001 715 1049 697 1031 l 422 138 b 533 33 399 56 401 33 l 524 0 l 329 0 l 299 -67 b 418 -165 363 -68 418 -97 b 167 -324 418 -247 328 -324 b 78 -315 138 -324 107 -321 l 93 -283 b 143 -285 110 -285 129 -285 b 317 -168 269 -285 317 -221 b 225 -106 317 -122 281 -106 l 275 0 l 96 0 l 106 33 b 269 138 211 33 246 56 l 535 1001 b 500 1049 543 1029 533 1049 l 424 1049 b 219 851 317 1049 285 1008 l 178 851 "},"Ț":{"ha":835,"x_min":null,"x_max":null,"o":"m 106 33 b 269 138 211 33 246 56 l 535 1001 b 500 1049 543 1029 533 1049 l 424 1049 b 219 851 317 1049 285 1008 l 178 851 l 268 1111 l 1028 1111 l 967 851 l 924 851 b 842 1049 958 1007 943 1049 l 750 1049 b 688 1001 715 1049 697 1031 l 422 138 b 533 33 399 56 401 33 l 524 0 l 96 0 m 283 -103 b 358 -179 328 -103 358 -139 b 172 -343 358 -251 292 -315 l 172 -310 b 294 -221 233 -296 294 -251 b 285 -210 294 -214 290 -210 b 238 -228 274 -210 264 -228 b 200 -185 215 -228 200 -210 b 283 -103 200 -142 235 -103 "},"U":{"ha":999,"x_min":null,"x_max":null,"o":"m 417 -21 b 160 381 163 -21 86 142 l 342 974 b 246 1078 367 1056 365 1078 l 256 1111 l 669 1111 l 660 1078 b 496 974 556 1078 521 1056 l 308 365 b 453 44 250 175 290 44 b 801 397 613 44 728 157 l 979 974 b 868 1078 1003 1056 1000 1078 l 878 1111 l 1193 1111 l 1185 1078 b 1043 974 1099 1078 1068 1056 l 865 392 b 417 -21 797 164 689 -21 "},"Ú":{"ha":999,"x_min":null,"x_max":null,"o":"m 783 1207 l 942 1461 l 1074 1461 l 828 1207 m 417 -21 b 160 381 163 -21 86 142 l 342 974 b 246 1078 367 1056 365 1078 l 256 1111 l 669 1111 l 660 1078 b 496 974 556 1078 521 1056 l 308 365 b 453 44 250 175 290 44 b 801 397 613 44 728 157 l 979 974 b 868 1078 1003 1056 1000 1078 l 878 1111 l 1193 1111 l 1185 1078 b 1043 974 1099 1078 1068 1056 l 865 392 b 417 -21 797 164 689 -21 "},"Û":{"ha":999,"x_min":null,"x_max":null,"o":"m 851 1388 l 647 1207 l 603 1207 l 808 1461 l 936 1461 l 972 1207 l 932 1207 m 1185 1078 b 1043 974 1099 1078 1068 1056 l 865 392 b 417 -21 797 164 689 -21 b 160 381 163 -21 86 142 l 342 974 b 246 1078 367 1056 365 1078 l 256 1111 l 669 1111 l 660 1078 b 496 974 556 1078 521 1056 l 308 365 b 453 44 250 175 290 44 b 801 397 613 44 728 157 l 979 974 b 868 1078 1003 1056 1000 1078 l 878 1111 l 1193 1111 "},"Ü":{"ha":999,"x_min":null,"x_max":null,"o":"m 703 1238 b 619 1321 656 1238 619 1274 b 703 1403 619 1368 656 1403 b 786 1321 751 1403 786 1368 b 703 1238 786 1274 751 1238 m 957 1238 b 874 1321 910 1238 874 1274 b 957 1403 874 1368 910 1403 b 1039 1321 1004 1403 1039 1368 b 957 1238 1039 1274 1004 1238 m 417 -21 b 160 381 163 -21 86 142 l 342 974 b 246 1078 367 1056 365 1078 l 256 1111 l 669 1111 l 660 1078 b 496 974 556 1078 521 1056 l 308 365 b 453 44 250 175 290 44 b 801 397 613 44 728 157 l 979 974 b 868 1078 1003 1056 1000 1078 l 878 1111 l 1193 1111 l 1185 1078 b 1043 974 1099 1078 1068 1056 l 865 392 b 417 -21 797 164 689 -21 "},"Ù":{"ha":999,"x_min":null,"x_max":null,"o":"m 824 1207 l 779 1207 l 576 1461 l 707 1461 m 417 -21 b 160 381 163 -21 86 142 l 342 974 b 246 1078 367 1056 365 1078 l 256 1111 l 669 1111 l 660 1078 b 496 974 556 1078 521 1056 l 308 365 b 453 44 250 175 290 44 b 801 397 613 44 728 157 l 979 974 b 868 1078 1003 1056 1000 1078 l 878 1111 l 1193 1111 l 1185 1078 b 1043 974 1099 1078 1068 1056 l 865 392 b 417 -21 797 164 689 -21 "},"Ű":{"ha":999,"x_min":null,"x_max":null,"o":"m 689 1207 l 839 1461 l 935 1461 l 732 1207 m 829 1207 l 1000 1461 l 1101 1461 l 874 1207 m 417 -21 b 160 381 163 -21 86 142 l 342 974 b 246 1078 367 1056 365 1078 l 256 1111 l 669 1111 l 660 1078 b 496 974 556 1078 521 1056 l 308 365 b 453 44 250 175 290 44 b 801 397 613 44 728 157 l 979 974 b 868 1078 1003 1056 1000 1078 l 878 1111 l 1193 1111 l 1185 1078 b 1043 974 1099 1078 1068 1056 l 865 392 b 417 -21 797 164 689 -21 "},"Ū":{"ha":999,"x_min":null,"x_max":null,"o":"m 642 1346 l 1031 1346 l 1013 1281 l 622 1281 m 417 -21 b 160 381 163 -21 86 142 l 342 974 b 246 1078 367 1056 365 1078 l 256 1111 l 669 1111 l 660 1078 b 496 974 556 1078 521 1056 l 308 365 b 453 44 250 175 290 44 b 801 397 613 44 728 157 l 979 974 b 868 1078 1003 1056 1000 1078 l 878 1111 l 1193 1111 l 1185 1078 b 1043 974 1099 1078 1068 1056 l 865 392 b 417 -21 797 164 689 -21 "},"Ų":{"ha":999,"x_min":null,"x_max":null,"o":"m 1185 1078 b 1043 974 1099 1078 1068 1056 l 865 392 b 508 -12 806 192 715 25 b 304 -221 417 -53 304 -129 b 376 -283 304 -261 325 -283 b 490 -250 411 -283 440 -274 l 497 -285 b 329 -343 442 -324 389 -343 b 200 -242 257 -343 200 -314 b 443 -21 200 -122 347 -53 l 417 -21 b 160 381 163 -21 86 142 l 342 974 b 246 1078 367 1056 365 1078 l 256 1111 l 669 1111 l 660 1078 b 496 974 556 1078 521 1056 l 308 365 b 453 44 250 175 290 44 b 801 397 613 44 728 157 l 979 974 b 868 1078 1003 1056 1000 1078 l 878 1111 l 1193 1111 "},"Ů":{"ha":999,"x_min":null,"x_max":null,"o":"m 801 1217 b 694 1322 733 1217 694 1263 b 869 1492 694 1407 775 1492 b 976 1389 936 1492 976 1449 b 801 1217 976 1306 897 1217 m 808 1264 b 924 1388 879 1264 924 1338 b 863 1446 924 1422 904 1446 b 747 1325 792 1446 747 1378 b 808 1264 747 1290 767 1264 m 417 -21 b 160 381 163 -21 86 142 l 342 974 b 246 1078 367 1056 365 1078 l 256 1111 l 669 1111 l 660 1078 b 496 974 556 1078 521 1056 l 308 365 b 453 44 250 175 290 44 b 801 397 613 44 728 157 l 979 974 b 868 1078 1003 1056 1000 1078 l 878 1111 l 1193 1111 l 1185 1078 b 1043 974 1099 1078 1068 1056 l 865 392 b 417 -21 797 164 689 -21 "},"V":{"ha":963,"x_min":null,"x_max":null,"o":"m 407 208 l 417 208 l 956 993 b 885 1078 1004 1063 1017 1078 l 894 1111 l 1210 1111 l 1200 1078 b 1031 993 1131 1078 1083 1068 l 328 -22 l 253 -22 l 306 968 b 204 1078 311 1058 294 1078 l 215 1111 l 615 1111 l 606 1078 b 463 968 492 1078 469 1053 "},"W":{"ha":1328,"x_min":null,"x_max":null,"o":"m 1538 1078 b 1379 986 1469 1078 1425 1065 l 810 -22 l 735 -22 l 775 774 l 336 -22 l 261 -22 l 303 968 b 204 1078 307 1058 290 1078 l 214 1111 l 581 1111 l 572 1078 b 454 968 479 1078 460 1053 l 410 228 l 419 228 l 781 894 l 785 968 b 710 1078 789 1058 778 1078 l 718 1111 l 1071 1111 l 1061 1078 b 938 968 964 1078 943 1053 l 883 228 l 893 228 l 1313 986 b 1235 1078 1353 1060 1361 1078 l 1244 1111 l 1547 1111 "},"Ẃ":{"ha":1328,"x_min":null,"x_max":null,"o":"m 1179 1471 l 933 1217 l 889 1217 l 1047 1471 m 1538 1078 b 1379 986 1469 1078 1425 1065 l 810 -22 l 735 -22 l 775 774 l 336 -22 l 261 -22 l 303 968 b 204 1078 307 1058 290 1078 l 214 1111 l 581 1111 l 572 1078 b 454 968 479 1078 460 1053 l 410 228 l 419 228 l 781 894 l 785 968 b 710 1078 789 1058 778 1078 l 718 1111 l 1071 1111 l 1061 1078 b 938 968 964 1078 943 1053 l 883 228 l 893 228 l 1313 986 b 1235 1078 1353 1060 1361 1078 l 1244 1111 l 1547 1111 "},"Ŵ":{"ha":1328,"x_min":null,"x_max":null,"o":"m 956 1397 l 751 1217 l 707 1217 l 913 1471 l 1040 1471 l 1076 1217 l 1036 1217 m 1538 1078 b 1379 986 1469 1078 1425 1065 l 810 -22 l 735 -22 l 775 774 l 336 -22 l 261 -22 l 303 968 b 204 1078 307 1058 290 1078 l 214 1111 l 581 1111 l 572 1078 b 454 968 479 1078 460 1053 l 410 228 l 419 228 l 781 894 l 785 968 b 710 1078 789 1058 778 1078 l 718 1111 l 1071 1111 l 1061 1078 b 938 968 964 1078 943 1053 l 883 228 l 893 228 l 1313 986 b 1235 1078 1353 1060 1361 1078 l 1244 1111 l 1547 1111 "},"Ẅ":{"ha":1328,"x_min":null,"x_max":null,"o":"m 807 1247 b 724 1331 760 1247 724 1283 b 807 1413 724 1378 760 1413 b 890 1331 856 1413 890 1378 b 807 1247 890 1283 856 1247 m 1061 1247 b 978 1331 1014 1247 978 1283 b 1061 1413 978 1378 1014 1413 b 1143 1331 1108 1413 1143 1378 b 1061 1247 1143 1283 1108 1247 m 1538 1078 b 1379 986 1469 1078 1425 1065 l 810 -22 l 735 -22 l 775 774 l 336 -22 l 261 -22 l 303 968 b 204 1078 307 1058 290 1078 l 214 1111 l 581 1111 l 572 1078 b 454 968 479 1078 460 1053 l 410 228 l 419 228 l 781 894 l 785 968 b 710 1078 789 1058 778 1078 l 718 1111 l 1071 1111 l 1061 1078 b 938 968 964 1078 943 1053 l 883 228 l 893 228 l 1313 986 b 1235 1078 1353 1060 1361 1078 l 1244 1111 l 1547 1111 "},"Ẁ":{"ha":1328,"x_min":null,"x_max":null,"o":"m 928 1217 l 883 1217 l 681 1471 l 811 1471 m 1538 1078 b 1379 986 1469 1078 1425 1065 l 810 -22 l 735 -22 l 775 774 l 336 -22 l 261 -22 l 303 968 b 204 1078 307 1058 290 1078 l 214 1111 l 581 1111 l 572 1078 b 454 968 479 1078 460 1053 l 410 228 l 419 228 l 781 894 l 785 968 b 710 1078 789 1058 778 1078 l 718 1111 l 1071 1111 l 1061 1078 b 938 968 964 1078 943 1053 l 883 228 l 893 228 l 1313 986 b 1235 1078 1353 1060 1361 1078 l 1244 1111 l 1547 1111 "},"X":{"ha":963,"x_min":null,"x_max":null,"o":"m 832 1111 l 1150 1111 l 1142 1079 b 950 969 1074 1079 1033 1060 l 604 593 l 719 139 b 868 33 742 51 776 33 l 857 0 l 442 0 l 453 33 b 560 139 574 33 581 57 l 471 490 l 164 132 b 222 33 100 60 115 33 l 214 0 l -119 0 l -110 32 b 110 163 -32 32 17 58 l 454 553 l 349 972 b 222 1078 326 1060 296 1078 l 232 1111 l 613 1111 l 601 1078 b 508 972 492 1078 488 1054 l 589 656 l 874 976 b 824 1078 943 1054 925 1078 "},"Y":{"ha":896,"x_min":null,"x_max":null,"o":"m 461 138 b 571 33 436 56 439 33 l 560 0 l 133 0 l 143 33 b 308 138 247 33 283 56 l 417 489 l 328 971 b 211 1078 311 1058 285 1078 l 221 1111 l 610 1111 l 599 1078 b 483 969 479 1078 469 1053 l 553 569 l 560 569 l 879 996 b 813 1078 931 1064 944 1078 l 824 1111 l 1128 1111 l 1119 1078 b 953 997 1056 1078 1007 1069 l 571 493 "},"Ý":{"ha":896,"x_min":null,"x_max":null,"o":"m 718 1207 l 876 1461 l 1008 1461 l 763 1207 m 461 138 b 571 33 436 56 439 33 l 560 0 l 133 0 l 143 33 b 308 138 247 33 283 56 l 417 489 l 328 971 b 211 1078 311 1058 285 1078 l 221 1111 l 610 1111 l 599 1078 b 483 969 479 1078 469 1053 l 553 569 l 560 569 l 879 996 b 813 1078 931 1064 944 1078 l 824 1111 l 1128 1111 l 1119 1078 b 953 997 1056 1078 1007 1069 l 571 493 "},"Ŷ":{"ha":896,"x_min":null,"x_max":null,"o":"m 785 1388 l 581 1207 l 536 1207 l 742 1461 l 869 1461 l 906 1207 l 865 1207 m 1119 1078 b 953 997 1056 1078 1007 1069 l 571 493 l 461 138 b 571 33 436 56 439 33 l 560 0 l 133 0 l 143 33 b 308 138 247 33 283 56 l 417 489 l 328 971 b 211 1078 311 1058 285 1078 l 221 1111 l 610 1111 l 599 1078 b 483 969 479 1078 469 1053 l 553 569 l 560 569 l 879 996 b 813 1078 931 1064 944 1078 l 824 1111 l 1128 1111 "},"Ÿ":{"ha":896,"x_min":null,"x_max":null,"o":"m 636 1238 b 553 1321 589 1238 553 1274 b 636 1403 553 1368 589 1403 b 719 1321 685 1403 719 1368 b 636 1238 719 1274 685 1238 m 890 1238 b 807 1321 843 1238 807 1274 b 890 1403 807 1368 843 1403 b 972 1321 938 1403 972 1368 b 890 1238 972 1274 938 1238 m 461 138 b 571 33 436 56 439 33 l 560 0 l 133 0 l 143 33 b 308 138 247 33 283 56 l 417 489 l 328 971 b 211 1078 311 1058 285 1078 l 221 1111 l 610 1111 l 599 1078 b 483 969 479 1078 469 1053 l 553 569 l 560 569 l 879 996 b 813 1078 931 1064 944 1078 l 824 1111 l 1128 1111 l 1119 1078 b 953 997 1056 1078 1007 1069 l 571 493 "},"Ỳ":{"ha":896,"x_min":null,"x_max":null,"o":"m 757 1207 l 713 1207 l 510 1461 l 640 1461 m 461 138 b 571 33 436 56 439 33 l 560 0 l 133 0 l 143 33 b 308 138 247 33 283 56 l 417 489 l 328 971 b 211 1078 311 1058 285 1078 l 221 1111 l 610 1111 l 599 1078 b 483 969 479 1078 469 1053 l 553 569 l 560 569 l 879 996 b 813 1078 931 1064 944 1078 l 824 1111 l 1128 1111 l 1119 1078 b 953 997 1056 1078 1007 1069 l 571 493 "},"Z":{"ha":778,"x_min":null,"x_max":null,"o":"m 932 1111 l 150 63 l 444 63 b 679 294 546 63 597 110 l 722 294 l 607 0 l -44 0 l -44 33 l 718 1049 l 461 1049 b 254 847 353 1049 308 1008 l 211 847 l 293 1111 "},"Ź":{"ha":778,"x_min":null,"x_max":null,"o":"m 592 1207 l 750 1461 l 882 1461 l 636 1207 m 932 1111 l 150 63 l 444 63 b 679 294 546 63 597 110 l 722 294 l 607 0 l -44 0 l -44 33 l 718 1049 l 461 1049 b 254 847 353 1049 308 1008 l 211 847 l 293 1111 "},"Ž":{"ha":778,"x_min":null,"x_max":null,"o":"m 490 1461 l 529 1461 l 611 1279 l 814 1461 l 860 1461 l 653 1207 l 525 1207 m 444 63 b 679 294 546 63 597 110 l 722 294 l 607 0 l -44 0 l -44 33 l 718 1049 l 461 1049 b 254 847 353 1049 308 1008 l 211 847 l 293 1111 l 932 1111 l 150 63 "},"Ż":{"ha":778,"x_min":null,"x_max":null,"o":"m 633 1238 b 550 1321 586 1238 550 1274 b 633 1403 550 1368 586 1403 b 715 1321 681 1403 715 1368 b 633 1238 715 1274 681 1238 m 932 1111 l 150 63 l 444 63 b 679 294 546 63 597 110 l 722 294 l 607 0 l -44 0 l -44 33 l 718 1049 l 461 1049 b 254 847 353 1049 308 1008 l 211 847 l 293 1111 "},"a":{"ha":756,"x_min":null,"x_max":null,"o":"m 536 63 b 696 251 588 63 649 150 l 728 251 b 474 -12 678 128 586 -12 b 375 76 400 -12 375 26 b 413 197 375 108 392 142 l 467 350 l 454 350 b 136 -15 388 206 260 -15 b 10 167 49 -15 10 60 b 426 756 10 414 233 756 b 551 599 519 756 557 688 l 556 599 l 596 710 b 719 764 651 710 696 735 l 742 751 l 542 193 b 511 94 531 161 511 114 b 536 63 511 74 517 63 m 193 86 b 475 456 275 86 422 303 b 501 590 490 500 501 544 b 439 685 501 650 485 685 b 147 183 315 685 147 381 b 193 86 147 121 160 86 "},"á":{"ha":756,"x_min":null,"x_max":null,"o":"m 806 1119 l 560 865 l 515 865 l 674 1119 m 742 751 l 542 193 b 511 94 531 161 511 114 b 536 63 511 74 517 63 b 696 251 588 63 649 150 l 728 251 b 474 -12 678 128 586 -12 b 375 76 400 -12 375 26 b 413 197 375 108 392 142 l 467 350 l 454 350 b 136 -15 388 206 260 -15 b 10 167 49 -15 10 60 b 426 756 10 414 233 756 b 551 599 519 756 557 688 l 556 599 l 596 710 b 719 764 651 710 696 735 m 193 86 b 475 456 275 86 422 303 b 501 590 490 500 501 544 b 439 685 501 650 485 685 b 147 183 315 685 147 381 b 193 86 147 121 160 86 "},"ă":{"ha":756,"x_min":null,"x_max":null,"o":"m 546 900 b 396 1026 457 900 396 943 b 410 1100 396 1049 400 1074 l 440 1100 b 438 1071 438 1092 438 1079 b 558 993 438 1011 478 993 b 750 1100 650 993 724 1024 l 782 1100 b 546 900 753 968 654 900 m 742 751 l 542 193 b 511 94 531 161 511 114 b 536 63 511 74 517 63 b 696 251 588 63 649 150 l 728 251 b 474 -12 678 128 586 -12 b 375 76 400 -12 375 26 b 413 197 375 108 392 142 l 467 350 l 454 350 b 136 -15 388 206 260 -15 b 10 167 49 -15 10 60 b 426 756 10 414 233 756 b 551 599 519 756 557 688 l 556 599 l 596 710 b 719 764 651 710 696 735 m 193 86 b 475 456 275 86 422 303 b 501 590 490 500 501 544 b 439 685 501 650 485 685 b 147 183 315 685 147 381 b 193 86 147 121 160 86 "},"â":{"ha":756,"x_min":null,"x_max":null,"o":"m 583 1046 l 379 865 l 335 865 l 540 1119 l 668 1119 l 704 865 l 664 865 m 536 63 b 696 251 588 63 649 150 l 728 251 b 474 -12 678 128 586 -12 b 375 76 400 -12 375 26 b 413 197 375 108 392 142 l 467 350 l 454 350 b 136 -15 388 206 260 -15 b 10 167 49 -15 10 60 b 426 756 10 414 233 756 b 551 599 519 756 557 688 l 556 599 l 596 710 b 719 764 651 710 696 735 l 742 751 l 542 193 b 511 94 531 161 511 114 b 536 63 511 74 517 63 m 193 86 b 475 456 275 86 422 303 b 501 590 490 500 501 544 b 439 685 501 650 485 685 b 147 183 315 685 147 381 b 193 86 147 121 160 86 "},"ä":{"ha":756,"x_min":null,"x_max":null,"o":"m 435 896 b 351 979 388 896 351 932 b 435 1061 351 1026 388 1061 b 518 979 483 1061 518 1026 b 435 896 518 932 483 896 m 689 1061 b 771 979 736 1061 771 1026 b 689 896 771 932 736 896 b 606 979 642 896 606 932 b 689 1061 606 1026 642 1061 m 742 751 l 542 193 b 511 94 531 161 511 114 b 536 63 511 74 517 63 b 696 251 588 63 649 150 l 728 251 b 474 -12 678 128 586 -12 b 375 76 400 -12 375 26 b 413 197 375 108 392 142 l 467 350 l 454 350 b 136 -15 388 206 260 -15 b 10 167 49 -15 10 60 b 426 756 10 414 233 756 b 551 599 519 756 557 688 l 556 599 l 596 710 b 719 764 651 710 696 735 m 193 86 b 475 456 275 86 422 303 b 501 590 490 500 501 544 b 439 685 501 650 485 685 b 147 183 315 685 147 381 b 193 86 147 121 160 86 "},"à":{"ha":756,"x_min":null,"x_max":null,"o":"m 556 865 l 511 865 l 308 1119 l 439 1119 m 536 63 b 696 251 588 63 649 150 l 728 251 b 474 -12 678 128 586 -12 b 375 76 400 -12 375 26 b 413 197 375 108 392 142 l 467 350 l 454 350 b 136 -15 388 206 260 -15 b 10 167 49 -15 10 60 b 426 756 10 414 233 756 b 551 599 519 756 557 688 l 556 599 l 596 710 b 719 764 651 710 696 735 l 742 751 l 542 193 b 511 94 531 161 511 114 b 536 63 511 74 517 63 m 193 86 b 475 456 275 86 422 303 b 501 590 490 500 501 544 b 439 685 501 650 485 685 b 147 183 315 685 147 381 b 193 86 147 121 160 86 "},"ā":{"ha":756,"x_min":null,"x_max":null,"o":"m 374 1004 l 763 1004 l 744 939 l 354 939 m 742 751 l 542 193 b 511 94 531 161 511 114 b 536 63 511 74 517 63 b 696 251 588 63 649 150 l 728 251 b 474 -12 678 128 586 -12 b 375 76 400 -12 375 26 b 413 197 375 108 392 142 l 467 350 l 454 350 b 136 -15 388 206 260 -15 b 10 167 49 -15 10 60 b 426 756 10 414 233 756 b 551 599 519 756 557 688 l 556 599 l 596 710 b 719 764 651 710 696 735 m 193 86 b 475 456 275 86 422 303 b 501 590 490 500 501 544 b 439 685 501 650 485 685 b 147 183 315 685 147 381 b 193 86 147 121 160 86 "},"ą":{"ha":756,"x_min":null,"x_max":null,"o":"m 536 63 b 696 251 588 63 649 150 l 728 251 b 521 -4 685 146 611 28 l 524 -4 b 318 -212 432 -44 318 -121 b 390 -275 318 -253 339 -275 b 504 -242 425 -275 454 -265 l 511 -276 b 343 -335 456 -315 403 -335 b 214 -233 271 -335 214 -306 b 457 -11 214 -114 361 -44 b 375 76 396 -6 375 31 b 413 197 375 108 392 142 l 467 350 l 454 350 b 136 -15 388 206 260 -15 b 10 167 49 -15 10 60 b 426 756 10 414 233 756 b 551 599 519 756 557 688 l 556 599 l 596 710 b 719 764 651 710 696 735 l 742 751 l 542 193 b 511 94 531 161 511 114 b 536 63 511 74 517 63 m 193 86 b 475 456 275 86 422 303 b 501 590 490 500 501 544 b 439 685 501 650 485 685 b 147 183 315 685 147 381 b 193 86 147 121 160 86 "},"å":{"ha":756,"x_min":null,"x_max":null,"o":"m 535 875 b 428 981 467 875 428 921 b 603 1150 428 1065 508 1150 b 710 1047 669 1150 710 1107 b 535 875 710 964 631 875 m 596 1104 b 481 983 525 1104 481 1036 b 542 922 481 949 500 922 b 657 1046 613 922 657 996 b 596 1104 657 1081 638 1104 m 536 63 b 696 251 588 63 649 150 l 728 251 b 474 -12 678 128 586 -12 b 375 76 400 -12 375 26 b 413 197 375 108 392 142 l 467 350 l 454 350 b 136 -15 388 206 260 -15 b 10 167 49 -15 10 60 b 426 756 10 414 233 756 b 551 599 519 756 557 688 l 556 599 l 596 710 b 719 764 651 710 696 735 l 742 751 l 542 193 b 511 94 531 161 511 114 b 536 63 511 74 517 63 m 193 86 b 475 456 275 86 422 303 b 501 590 490 500 501 544 b 439 685 501 650 485 685 b 147 183 315 685 147 381 b 193 86 147 121 160 86 "},"ã":{"ha":756,"x_min":null,"x_max":null,"o":"m 461 988 b 350 888 406 988 375 946 l 317 892 b 482 1081 350 983 401 1081 b 660 985 574 1081 589 985 b 771 1085 715 985 746 1026 l 804 1081 b 639 893 771 989 719 893 b 461 988 547 893 532 988 m 742 751 l 542 193 b 511 94 531 161 511 114 b 536 63 511 74 517 63 b 696 251 588 63 649 150 l 728 251 b 474 -12 678 128 586 -12 b 375 76 400 -12 375 26 b 413 197 375 108 392 142 l 467 350 l 454 350 b 136 -15 388 206 260 -15 b 10 167 49 -15 10 60 b 426 756 10 414 233 756 b 551 599 519 756 557 688 l 556 599 l 596 710 b 719 764 651 710 696 735 m 193 86 b 475 456 275 86 422 303 b 501 590 490 500 501 544 b 439 685 501 650 485 685 b 147 183 315 685 147 381 b 193 86 147 121 160 86 "},"æ":{"ha":906,"x_min":null,"x_max":null,"o":"m 606 71 b 832 296 683 71 760 156 l 863 296 b 546 -19 785 101 674 -19 b 368 193 431 -19 368 68 b 372 249 368 211 369 229 l 368 249 b 101 -19 317 111 233 -19 b -25 104 31 -19 -25 22 b 392 401 -25 265 189 358 b 438 607 419 481 438 550 b 364 707 438 671 415 707 b 231 572 306 707 231 657 b 235 517 231 551 235 532 b 172 456 235 475 206 456 b 111 519 138 456 111 476 b 388 760 111 632 258 760 b 536 610 493 760 528 685 b 781 756 608 696 696 756 b 910 633 864 756 910 703 b 528 375 910 499 725 404 b 503 214 513 317 503 261 b 606 71 503 124 542 71 m 767 701 b 540 414 678 701 589 560 b 818 643 679 453 818 531 b 767 701 818 678 804 701 m 164 81 b 376 361 244 81 319 213 b 108 144 231 328 108 244 b 164 81 108 103 131 81 "},"b":{"ha":699,"x_min":null,"x_max":null,"o":"m 263 -19 b 6 49 151 -19 46 19 l 307 974 b 222 1079 332 1051 319 1079 l 231 1111 b 478 1151 396 1111 443 1118 l 494 1142 l 243 383 l 246 389 b 564 756 306 532 428 756 b 679 571 646 756 679 678 b 263 -19 679 314 494 -19 m 268 50 b 543 551 415 50 543 356 b 493 654 543 617 531 654 b 225 281 410 654 290 451 l 158 92 b 268 50 179 72 214 50 "},"c":{"ha":544,"x_min":null,"x_max":null,"o":"m 196 -19 b 22 207 89 -19 22 67 b 418 758 22 454 215 758 b 547 629 492 758 547 711 b 446 471 547 551 501 471 b 396 522 415 471 396 494 b 471 654 396 579 471 582 b 417 704 471 681 457 704 b 163 232 283 704 163 425 b 253 71 163 140 188 71 b 469 281 329 71 407 157 l 500 281 b 196 -19 424 92 315 -19 "},"ć":{"ha":544,"x_min":null,"x_max":null,"o":"m 443 865 l 601 1119 l 733 1119 l 488 865 m 196 -19 b 22 207 89 -19 22 67 b 418 758 22 454 215 758 b 547 629 492 758 547 711 b 446 471 547 551 501 471 b 396 522 415 471 396 494 b 471 654 396 579 471 582 b 417 704 471 681 457 704 b 163 232 283 704 163 425 b 253 71 163 140 188 71 b 469 281 329 71 407 157 l 500 281 b 196 -19 424 92 315 -19 "},"č":{"ha":544,"x_min":null,"x_max":null,"o":"m 340 1119 l 379 1119 l 461 938 l 664 1119 l 710 1119 l 503 865 l 375 865 m 396 522 b 471 654 396 579 471 582 b 417 704 471 681 457 704 b 163 232 283 704 163 425 b 253 71 163 140 188 71 b 469 281 329 71 407 157 l 500 281 b 196 -19 424 92 315 -19 b 22 207 89 -19 22 67 b 418 758 22 454 215 758 b 547 629 492 758 547 711 b 446 471 547 551 501 471 b 396 522 415 471 396 494 "},"ç":{"ha":544,"x_min":null,"x_max":null,"o":"m 253 71 b 469 281 329 71 407 157 l 500 281 b 199 -19 424 93 317 -18 l 179 -61 b 299 -160 244 -62 299 -92 b 49 -318 299 -242 210 -318 b -42 -310 18 -318 -12 -315 l -26 -278 b 25 -279 -10 -279 10 -279 b 197 -162 150 -279 197 -215 b 107 -100 197 -117 161 -100 l 149 -12 b 22 207 69 8 22 89 b 418 758 22 454 215 758 b 547 629 492 758 547 711 b 446 471 547 551 501 471 b 396 522 415 471 396 494 b 471 654 396 579 471 582 b 417 704 471 681 457 704 b 163 232 283 704 163 425 b 253 71 163 140 188 71 "},"ċ":{"ha":544,"x_min":null,"x_max":null,"o":"m 483 896 b 400 979 436 896 400 932 b 483 1061 400 1026 436 1061 b 565 979 531 1061 565 1026 b 483 896 565 932 531 896 m 196 -19 b 22 207 89 -19 22 67 b 418 758 22 454 215 758 b 547 629 492 758 547 711 b 446 471 547 551 501 471 b 396 522 415 471 396 494 b 471 654 396 579 471 582 b 417 704 471 681 457 704 b 163 232 283 704 163 425 b 253 71 163 140 188 71 b 469 281 329 71 407 157 l 500 281 b 196 -19 424 92 315 -19 "},"d":{"ha":764,"x_min":null,"x_max":null,"o":"m 547 63 b 707 251 599 63 660 150 l 739 251 b 485 -12 689 128 597 -12 b 386 76 411 -12 386 26 b 419 199 386 108 400 142 l 471 350 l 451 350 b 135 -19 385 204 258 -19 b 10 167 53 -19 10 58 b 426 756 10 414 233 756 b 551 599 519 756 556 688 l 554 599 l 681 974 b 581 1079 707 1051 678 1079 l 589 1111 b 847 1151 746 1111 811 1121 l 864 1142 l 550 194 b 522 94 539 163 522 114 b 547 63 522 74 528 63 m 193 81 b 475 456 275 81 421 300 b 501 590 490 500 501 544 b 439 685 501 650 485 685 b 147 183 315 685 147 381 b 193 81 147 118 160 81 "},"ð":{"ha":681,"x_min":null,"x_max":null,"o":"m 747 1046 l 563 947 b 671 601 632 850 671 733 b 246 -22 671 313 481 -22 b 32 225 107 -22 32 81 b 421 747 32 461 210 747 b 535 710 471 747 510 733 b 486 908 529 783 514 849 l 325 822 l 308 853 l 471 940 b 324 1110 436 1004 388 1060 l 351 1139 b 540 976 425 1094 489 1040 l 729 1078 m 254 38 b 538 626 392 38 531 394 b 454 682 521 661 493 682 b 167 182 296 682 167 381 b 254 38 167 99 190 38 "},"ď":{"ha":764,"x_min":null,"x_max":null,"o":"m 864 1142 l 550 194 b 522 94 539 163 522 114 b 547 63 522 74 528 63 b 707 251 599 63 660 150 l 739 251 b 485 -12 689 128 597 -12 b 386 76 411 -12 386 26 b 419 199 386 108 400 142 l 471 350 l 451 350 b 135 -19 385 204 258 -19 b 10 167 53 -19 10 58 b 426 756 10 414 233 756 b 551 599 519 756 556 688 l 554 599 l 681 974 b 581 1079 707 1051 678 1079 l 589 1111 b 847 1151 746 1111 811 1121 m 975 1142 l 1090 1142 l 935 875 l 892 875 m 193 81 b 475 456 275 81 421 300 b 501 590 490 500 501 544 b 439 685 501 650 485 685 b 147 183 315 685 147 381 b 193 81 147 118 160 81 "},"đ":{"ha":764,"x_min":null,"x_max":null,"o":"m 767 849 l 550 194 b 522 94 539 163 522 114 b 547 63 522 74 528 63 b 707 251 599 63 660 150 l 739 251 b 485 -12 689 128 597 -12 b 386 76 411 -12 386 26 b 419 199 386 108 400 142 l 471 350 l 451 350 b 135 -19 385 204 258 -19 b 10 167 53 -19 10 58 b 426 756 10 414 233 756 b 551 599 519 756 556 688 l 554 599 l 639 849 l 428 849 l 439 886 l 651 886 l 681 974 b 581 1079 707 1051 678 1079 l 589 1111 b 847 1151 746 1111 811 1121 l 864 1142 l 779 886 l 890 886 l 878 849 m 193 81 b 475 456 275 81 421 300 b 501 590 490 500 501 544 b 439 685 501 650 485 685 b 147 183 315 685 147 381 b 193 81 147 118 160 81 "},"e":{"ha":564,"x_min":null,"x_max":null,"o":"m 260 69 b 489 296 342 69 419 156 l 519 296 b 199 -19 442 104 331 -19 b 17 194 89 -19 17 57 b 422 757 17 431 218 757 b 556 631 504 757 556 706 b 168 315 556 475 360 344 b 156 203 160 275 156 236 b 260 69 156 113 197 69 m 414 704 b 179 360 315 704 221 524 b 460 640 328 397 460 511 b 414 704 460 681 449 704 "},"é":{"ha":564,"x_min":null,"x_max":null,"o":"m 749 1119 l 503 865 l 458 865 l 617 1119 m 556 631 b 168 315 556 475 360 344 b 156 203 160 275 156 236 b 260 69 156 113 197 69 b 489 296 342 69 419 156 l 519 296 b 199 -19 442 104 331 -19 b 17 194 89 -19 17 57 b 422 757 17 431 218 757 b 556 631 504 757 556 706 m 414 704 b 179 360 315 704 221 524 b 460 640 328 397 460 511 b 414 704 460 681 449 704 "},"ě":{"ha":564,"x_min":null,"x_max":null,"o":"m 356 1119 l 394 1119 l 476 938 l 679 1119 l 725 1119 l 518 865 l 390 865 m 556 631 b 168 315 556 475 360 344 b 156 203 160 275 156 236 b 260 69 156 113 197 69 b 489 296 342 69 419 156 l 519 296 b 199 -19 442 104 331 -19 b 17 194 89 -19 17 57 b 422 757 17 431 218 757 b 556 631 504 757 556 706 m 414 704 b 179 360 315 704 221 524 b 460 640 328 397 460 511 b 414 704 460 681 449 704 "},"ê":{"ha":564,"x_min":null,"x_max":null,"o":"m 646 865 l 606 865 l 525 1046 l 321 865 l 276 865 l 482 1119 l 610 1119 m 556 631 b 168 315 556 475 360 344 b 156 203 160 275 156 236 b 260 69 156 113 197 69 b 489 296 342 69 419 156 l 519 296 b 199 -19 442 104 331 -19 b 17 194 89 -19 17 57 b 422 757 17 431 218 757 b 556 631 504 757 556 706 m 414 704 b 179 360 315 704 221 524 b 460 640 328 397 460 511 b 414 704 460 681 449 704 "},"ë":{"ha":564,"x_min":null,"x_max":null,"o":"m 376 896 b 293 979 329 896 293 932 b 376 1061 293 1026 329 1061 b 460 979 425 1061 460 1026 b 376 896 460 932 425 896 m 631 1061 b 713 979 678 1061 713 1026 b 631 896 713 932 678 896 b 547 979 583 896 547 932 b 631 1061 547 1026 583 1061 m 556 631 b 168 315 556 475 360 344 b 156 203 160 275 156 236 b 260 69 156 113 197 69 b 489 296 342 69 419 156 l 519 296 b 199 -19 442 104 331 -19 b 17 194 89 -19 17 57 b 422 757 17 431 218 757 b 556 631 504 757 556 706 m 414 704 b 179 360 315 704 221 524 b 460 640 328 397 460 511 b 414 704 460 681 449 704 "},"ė":{"ha":564,"x_min":null,"x_max":null,"o":"m 499 1061 b 581 979 546 1061 581 1026 b 499 896 581 932 546 896 b 415 979 451 896 415 932 b 499 1061 415 1026 451 1061 m 556 631 b 168 315 556 475 360 344 b 156 203 160 275 156 236 b 260 69 156 113 197 69 b 489 296 342 69 419 156 l 519 296 b 199 -19 442 104 331 -19 b 17 194 89 -19 17 57 b 422 757 17 431 218 757 b 556 631 504 757 556 706 m 414 704 b 179 360 315 704 221 524 b 460 640 328 397 460 511 b 414 704 460 681 449 704 "},"è":{"ha":564,"x_min":null,"x_max":null,"o":"m 497 865 l 453 865 l 250 1119 l 381 1119 m 260 69 b 489 296 342 69 419 156 l 519 296 b 199 -19 442 104 331 -19 b 17 194 89 -19 17 57 b 422 757 17 431 218 757 b 556 631 504 757 556 706 b 168 315 556 475 360 344 b 156 203 160 275 156 236 b 260 69 156 113 197 69 m 414 704 b 179 360 315 704 221 524 b 460 640 328 397 460 511 b 414 704 460 681 449 704 "},"ē":{"ha":564,"x_min":null,"x_max":null,"o":"m 317 1004 l 706 1004 l 688 939 l 297 939 m 556 631 b 168 315 556 475 360 344 b 156 203 160 275 156 236 b 260 69 156 113 197 69 b 489 296 342 69 419 156 l 519 296 b 199 -19 442 104 331 -19 b 17 194 89 -19 17 57 b 422 757 17 431 218 757 b 556 631 504 757 556 706 m 414 704 b 179 360 315 704 221 524 b 460 640 328 397 460 511 b 414 704 460 681 449 704 "},"ę":{"ha":564,"x_min":null,"x_max":null,"o":"m 260 69 b 489 296 342 69 419 156 l 519 296 b 281 -3 458 144 376 36 b 88 -206 190 -44 88 -118 b 160 -268 88 -246 108 -268 b 274 -235 194 -268 224 -258 l 281 -269 b 113 -328 225 -308 172 -328 b -17 -226 40 -328 -17 -299 b 188 -19 -17 -122 96 -56 b 17 194 83 -14 17 61 b 422 757 17 431 218 757 b 556 631 504 757 556 706 b 168 315 556 475 360 344 b 156 203 160 275 156 236 b 260 69 156 113 197 69 m 414 704 b 179 360 315 704 221 524 b 460 640 328 397 460 511 b 414 704 460 681 449 704 "},"f":{"ha":418,"x_min":null,"x_max":null,"o":"m 601 1139 b 703 1085 672 1139 703 1122 b 633 1013 703 1051 672 1013 b 494 1078 581 1013 544 1078 b 432 1000 468 1078 449 1064 b 382 768 418 936 408 853 l 372 736 l 529 736 l 515 692 l 358 692 l 192 143 b -260 -306 117 -104 -58 -306 b -349 -251 -331 -306 -349 -281 b -262 -167 -349 -207 -307 -167 b -140 -219 -210 -167 -185 -219 b 46 122 -69 -219 -33 -136 l 219 692 l 99 692 l 113 736 l 233 736 l 246 776 b 601 1139 310 989 404 1139 "},"g":{"ha":651,"x_min":null,"x_max":null,"o":"m 679 760 b 735 725 717 760 735 749 b 679 671 735 700 717 671 b 576 694 644 671 614 694 b 553 690 569 694 561 693 b 594 557 579 657 594 611 b 315 214 594 390 475 232 b 157 144 215 201 157 181 b 274 65 157 115 185 96 l 404 18 b 560 -125 521 -22 560 -60 b 190 -321 560 -250 390 -321 b -162 -150 -32 -321 -162 -237 b 108 -1 -162 -64 -54 -19 b 21 90 56 22 21 53 b 231 219 21 168 138 206 b 94 414 149 243 94 317 b 407 757 94 590 236 757 b 533 713 457 757 501 740 b 679 760 581 743 639 760 m 288 260 b 476 586 394 260 476 442 b 401 711 476 664 454 711 b 211 385 293 711 211 526 b 288 260 211 307 233 260 m 175 -29 b 157 -22 169 -26 163 -25 b -57 -143 22 -40 -57 -81 b 218 -268 -57 -221 67 -268 b 444 -167 369 -268 444 -224 b 350 -90 444 -133 410 -110 "},"ğ":{"ha":651,"x_min":null,"x_max":null,"o":"m 475 908 b 325 1035 386 908 325 951 b 339 1108 325 1057 329 1082 l 369 1108 b 367 1079 367 1100 367 1088 b 488 1001 367 1019 407 1001 b 679 1108 579 1001 653 1032 l 711 1108 b 475 908 682 976 583 908 m 679 760 b 735 725 717 760 735 749 b 679 671 735 700 717 671 b 576 694 644 671 614 694 b 553 690 569 694 561 693 b 594 557 579 657 594 611 b 315 214 594 390 475 232 b 157 144 215 201 157 181 b 274 65 157 115 185 96 l 404 18 b 560 -125 521 -22 560 -60 b 190 -321 560 -250 390 -321 b -162 -150 -32 -321 -162 -237 b 108 -1 -162 -64 -54 -19 b 21 90 56 22 21 53 b 231 219 21 168 138 206 b 94 414 149 243 94 317 b 407 757 94 590 236 757 b 533 713 457 757 501 740 b 679 760 581 743 639 760 m 288 260 b 476 586 394 260 476 442 b 401 711 476 664 454 711 b 211 385 293 711 211 526 b 288 260 211 307 233 260 m 175 -29 b 157 -22 169 -26 163 -25 b -57 -143 22 -40 -57 -81 b 218 -268 -57 -221 67 -268 b 444 -167 369 -268 444 -224 b 350 -90 444 -133 410 -110 "},"ģ":{"ha":651,"x_min":null,"x_max":null,"o":"m 490 929 b 415 1006 446 929 415 965 b 601 1169 415 1078 482 1142 l 601 1136 b 479 1047 542 1122 479 1078 b 490 1036 479 1040 483 1036 b 536 1054 500 1036 510 1054 b 574 1011 558 1054 574 1036 b 490 929 574 968 539 929 m 679 760 b 735 725 717 760 735 749 b 679 671 735 700 717 671 b 576 694 644 671 614 694 b 553 690 569 694 561 693 b 594 557 579 657 594 611 b 315 214 594 390 475 232 b 157 144 215 201 157 181 b 274 65 157 115 185 96 l 404 18 b 560 -125 521 -22 560 -60 b 190 -321 560 -250 390 -321 b -162 -150 -32 -321 -162 -237 b 108 -1 -162 -64 -54 -19 b 21 90 56 22 21 53 b 231 219 21 168 138 206 b 94 414 149 243 94 317 b 407 757 94 590 236 757 b 533 713 457 757 501 740 b 679 760 581 743 639 760 m 288 260 b 476 586 394 260 476 442 b 401 711 476 664 454 711 b 211 385 293 711 211 526 b 288 260 211 307 233 260 m 175 -29 b 157 -22 169 -26 163 -25 b -57 -143 22 -40 -57 -81 b 218 -268 -57 -221 67 -268 b 444 -167 369 -268 444 -224 b 350 -90 444 -133 410 -110 "},"ġ":{"ha":651,"x_min":null,"x_max":null,"o":"m 486 904 b 403 988 439 904 403 940 b 486 1069 403 1035 439 1069 b 568 988 533 1069 568 1035 b 486 904 568 940 533 904 m 679 760 b 735 725 717 760 735 749 b 679 671 735 700 717 671 b 576 694 644 671 614 694 b 553 690 569 694 561 693 b 594 557 579 657 594 611 b 315 214 594 390 475 232 b 157 144 215 201 157 181 b 274 65 157 115 185 96 l 404 18 b 560 -125 521 -22 560 -60 b 190 -321 560 -250 390 -321 b -162 -150 -32 -321 -162 -237 b 108 -1 -162 -64 -54 -19 b 21 90 56 22 21 53 b 231 219 21 168 138 206 b 94 414 149 243 94 317 b 407 757 94 590 236 757 b 533 713 457 757 501 740 b 679 760 581 743 639 760 m 288 260 b 476 586 394 260 476 442 b 401 711 476 664 454 711 b 211 385 293 711 211 526 b 288 260 211 307 233 260 m 175 -29 b 157 -22 169 -26 163 -25 b -57 -143 22 -40 -57 -81 b 218 -268 -57 -221 67 -268 b 444 -167 369 -268 444 -224 b 350 -90 444 -133 410 -110 "},"h":{"ha":739,"x_min":null,"x_max":null,"o":"m -10 0 l 307 974 b 222 1079 332 1051 319 1079 l 231 1111 b 478 1151 364 1111 456 1124 l 494 1142 l 218 310 l 232 310 b 596 756 374 617 485 756 b 696 654 661 756 696 714 b 526 193 696 553 594 353 b 494 94 514 161 494 114 b 519 63 494 74 500 63 b 679 251 571 63 633 150 l 711 251 b 457 -12 661 128 571 -12 b 358 76 383 -12 358 26 b 400 199 358 108 376 140 b 551 613 474 385 551 557 b 522 657 551 643 542 657 b 126 0 468 657 328 521 "},"ħ":{"ha":738,"x_min":null,"x_max":null,"o":"m 711 251 b 457 -12 661 128 571 -12 b 358 76 383 -12 358 26 b 400 199 358 108 376 140 b 551 613 474 385 551 557 b 522 657 551 643 542 657 b 126 0 468 657 328 521 l -10 0 l 271 861 l 161 861 l 172 899 l 282 899 l 307 974 b 222 1079 332 1051 319 1079 l 231 1111 b 478 1151 364 1111 456 1124 l 494 1142 l 414 899 l 619 899 l 607 861 l 401 861 l 218 310 l 232 310 b 596 756 374 617 485 756 b 696 654 661 756 696 714 b 526 193 696 553 594 353 b 494 94 514 161 494 114 b 519 63 494 74 500 63 b 679 251 571 63 633 150 "},"i":{"ha":435,"x_min":null,"x_max":null,"o":"m 386 894 b 297 981 333 894 297 929 b 386 1067 297 1033 333 1067 b 475 981 439 1067 475 1033 b 386 894 475 929 439 894 m 208 533 b 244 656 225 579 244 636 b 226 679 244 674 238 679 b 71 518 185 679 124 606 l 38 518 b 307 753 101 642 206 753 b 381 676 357 753 381 717 b 340 531 381 640 363 592 l 219 193 b 190 94 208 163 190 114 b 215 63 190 74 196 63 b 375 251 267 63 329 150 l 407 251 b 153 -12 357 128 267 -12 b 54 76 79 -12 54 26 b 89 197 54 108 69 142 "},"ı":{"ha":435,"x_min":null,"x_max":null,"o":"m 208 533 b 244 656 225 579 244 636 b 226 679 244 674 238 679 b 71 518 185 679 124 606 l 38 518 b 307 753 101 642 206 753 b 381 676 357 753 381 717 b 340 531 381 640 363 592 l 219 193 b 190 94 208 163 190 114 b 215 63 190 74 196 63 b 375 251 267 63 329 150 l 407 251 b 153 -12 357 128 267 -12 b 54 76 79 -12 54 26 b 89 197 54 108 69 142 "},"í":{"ha":435,"x_min":null,"x_max":null,"o":"m 338 865 l 496 1119 l 628 1119 l 382 865 m 208 533 b 244 656 225 579 244 636 b 226 679 244 674 238 679 b 71 518 185 679 124 606 l 38 518 b 307 753 101 642 206 753 b 381 676 357 753 381 717 b 340 531 381 640 363 592 l 219 193 b 190 94 208 163 190 114 b 215 63 190 74 196 63 b 375 251 267 63 329 150 l 407 251 b 153 -12 357 128 267 -12 b 54 76 79 -12 54 26 b 89 197 54 108 69 142 "},"î":{"ha":435,"x_min":null,"x_max":null,"o":"m 525 865 l 485 865 l 404 1046 l 200 865 l 156 865 l 361 1119 l 489 1119 m 215 63 b 375 251 267 63 329 150 l 407 251 b 153 -12 357 128 267 -12 b 54 76 79 -12 54 26 b 89 197 54 108 69 142 l 208 533 b 244 656 225 579 244 636 b 226 679 244 674 238 679 b 71 518 185 679 124 606 l 38 518 b 307 753 101 642 206 753 b 381 676 357 753 381 717 b 340 531 381 640 363 592 l 219 193 b 190 94 208 163 190 114 b 215 63 190 74 196 63 "},"ï":{"ha":435,"x_min":null,"x_max":null,"o":"m 256 896 b 172 979 208 896 172 932 b 256 1061 172 1026 208 1061 b 339 979 304 1061 339 1026 b 256 896 339 932 304 896 m 510 896 b 426 979 463 896 426 932 b 510 1061 426 1026 463 1061 b 592 979 557 1061 592 1026 b 510 896 592 932 557 896 m 208 533 b 244 656 225 579 244 636 b 226 679 244 674 238 679 b 71 518 185 679 124 606 l 38 518 b 307 753 101 642 206 753 b 381 676 357 753 381 717 b 340 531 381 640 363 592 l 219 193 b 190 94 208 163 190 114 b 215 63 190 74 196 63 b 375 251 267 63 329 150 l 407 251 b 153 -12 357 128 267 -12 b 54 76 79 -12 54 26 b 89 197 54 108 69 142 "},"ì":{"ha":435,"x_min":null,"x_max":null,"o":"m 376 865 l 332 865 l 129 1119 l 260 1119 m 208 533 b 244 656 225 579 244 636 b 226 679 244 674 238 679 b 71 518 185 679 124 606 l 38 518 b 307 753 101 642 206 753 b 381 676 357 753 381 717 b 340 531 381 640 363 592 l 219 193 b 190 94 208 163 190 114 b 215 63 190 74 196 63 b 375 251 267 63 329 150 l 407 251 b 153 -12 357 128 267 -12 b 54 76 79 -12 54 26 b 89 197 54 108 69 142 "},"ī":{"ha":435,"x_min":null,"x_max":null,"o":"m 196 1004 l 585 1004 l 567 939 l 176 939 m 208 533 b 244 656 225 579 244 636 b 226 679 244 674 238 679 b 71 518 185 679 124 606 l 38 518 b 307 753 101 642 206 753 b 381 676 357 753 381 717 b 340 531 381 640 363 592 l 219 193 b 190 94 208 163 190 114 b 215 63 190 74 196 63 b 375 251 267 63 329 150 l 407 251 b 153 -12 357 128 267 -12 b 54 76 79 -12 54 26 b 89 197 54 108 69 142 "},"į":{"ha":435,"x_min":null,"x_max":null,"o":"m 378 1061 b 460 979 425 1061 460 1026 b 378 896 460 932 425 896 b 294 979 331 896 294 932 b 378 1061 294 1026 331 1061 m 215 63 b 375 251 267 63 329 150 l 407 251 b 203 -4 364 146 293 29 b 17 -203 115 -46 17 -118 b 89 -265 17 -243 38 -265 b 203 -232 124 -265 153 -256 l 210 -267 b 42 -325 154 -306 101 -325 b -87 -224 -31 -325 -87 -296 b 131 -11 -87 -114 36 -46 b 54 76 74 -4 54 32 b 89 197 54 108 69 142 l 208 533 b 244 656 225 579 244 636 b 226 679 244 674 238 679 b 71 518 185 679 124 606 l 38 518 b 307 753 101 642 206 753 b 381 676 357 753 381 717 b 340 531 381 640 363 592 l 219 193 b 190 94 208 163 190 114 b 215 63 190 74 196 63 "},"j":{"ha":390,"x_min":null,"x_max":null,"o":"m 371 894 b 282 981 318 894 282 929 b 371 1067 282 1033 318 1067 b 460 981 424 1067 460 1033 b 371 894 460 929 424 894 m 215 153 b -265 -306 122 -124 -33 -306 b -339 -247 -315 -306 -339 -281 b -253 -167 -339 -204 -297 -167 b -129 -219 -199 -167 -178 -219 b 85 164 -54 -219 -6 -103 l 213 533 b 249 656 228 579 249 636 b 229 679 249 674 240 679 b 74 518 189 679 128 606 l 40 518 b 310 753 106 642 208 753 b 383 676 360 753 383 717 b 344 529 383 640 367 592 "},"k":{"ha":747,"x_min":null,"x_max":null,"o":"m 533 78 b 679 243 581 78 632 146 l 711 243 b 461 -12 650 110 574 -12 b 329 231 367 -12 336 82 b 328 353 326 268 325 311 b 597 608 528 401 597 544 b 561 654 597 642 582 654 b 125 0 503 654 317 524 l -10 0 l 307 974 b 222 1079 332 1051 319 1079 l 231 1111 b 478 1151 368 1111 451 1121 l 496 1142 l 221 310 l 231 310 b 632 753 369 619 524 753 b 732 656 700 753 732 706 b 457 361 732 568 636 415 b 468 225 457 322 464 268 b 533 78 478 129 492 78 "},"ķ":{"ha":747,"x_min":null,"x_max":null,"o":"m 533 78 b 679 243 581 78 632 146 l 711 243 b 461 -12 650 110 574 -12 b 329 231 367 -12 336 82 b 328 353 326 268 325 311 b 597 608 528 401 597 544 b 561 654 597 642 582 654 b 125 0 503 654 317 524 l -10 0 l 307 974 b 222 1079 332 1051 319 1079 l 231 1111 b 478 1151 368 1111 451 1121 l 496 1142 l 221 310 l 231 310 b 632 753 369 619 524 753 b 732 656 700 753 732 706 b 457 361 732 568 636 415 b 468 225 457 322 464 268 b 533 78 478 129 492 78 m 235 -103 b 310 -179 279 -103 310 -139 b 124 -343 310 -251 243 -315 l 124 -310 b 246 -221 185 -296 246 -251 b 236 -210 246 -214 242 -210 b 189 -228 225 -210 215 -228 b 151 -185 167 -228 151 -210 b 235 -103 151 -142 186 -103 "},"l":{"ha":397,"x_min":null,"x_max":null,"o":"m 489 1142 l 182 194 b 156 94 171 163 156 114 b 181 63 156 74 161 63 b 340 251 232 63 293 150 l 372 251 b 118 -12 322 128 231 -12 b 19 76 44 -12 19 26 b 50 199 19 108 31 143 l 300 974 b 217 1079 326 1051 314 1079 l 225 1111 b 472 1151 386 1111 442 1124 "},"ĺ":{"ha":397,"x_min":null,"x_max":null,"o":"m 403 1219 l 561 1474 l 693 1474 l 447 1219 m 489 1142 l 182 194 b 156 94 171 163 156 114 b 181 63 156 74 161 63 b 340 251 232 63 293 150 l 372 251 b 118 -12 322 128 231 -12 b 19 76 44 -12 19 26 b 50 199 19 108 31 143 l 300 974 b 217 1079 326 1051 314 1079 l 225 1111 b 472 1151 386 1111 442 1124 "},"ľ":{"ha":397,"x_min":null,"x_max":null,"o":"m 489 1142 l 182 194 b 156 94 171 163 156 114 b 181 63 156 74 161 63 b 340 251 232 63 293 150 l 372 251 b 118 -12 322 128 231 -12 b 19 76 44 -12 19 26 b 50 199 19 108 31 143 l 300 974 b 217 1079 326 1051 314 1079 l 225 1111 b 472 1151 386 1111 442 1124 m 518 875 l 601 1142 l 717 1142 l 561 875 "},"ļ":{"ha":397,"x_min":null,"x_max":null,"o":"m 489 1142 l 182 194 b 156 94 171 163 156 114 b 181 63 156 74 161 63 b 340 251 232 63 293 150 l 372 251 b 118 -12 322 128 231 -12 b 19 76 44 -12 19 26 b 50 199 19 108 31 143 l 300 974 b 217 1079 326 1051 314 1079 l 225 1111 b 472 1151 386 1111 442 1124 m 75 -103 b 150 -179 119 -103 150 -139 b -36 -343 150 -251 83 -315 l -36 -310 b 86 -221 25 -296 86 -251 b 76 -210 86 -214 82 -210 b 29 -228 65 -210 56 -228 b -8 -185 7 -228 -8 -210 b 75 -103 -8 -142 26 -103 "},"ł":{"ha":400,"x_min":null,"x_max":null,"o":"m 306 578 l 182 194 b 156 94 171 163 156 114 b 181 63 156 74 161 63 b 340 251 232 63 293 150 l 372 251 b 118 -12 322 128 231 -12 b 19 76 44 -12 19 26 b 50 199 19 108 31 143 l 151 514 l 25 463 l 13 494 l 165 557 l 300 974 b 217 1079 326 1051 314 1079 l 225 1111 b 472 1151 386 1111 442 1124 l 489 1142 l 319 619 l 454 675 l 467 643 "},"m":{"ha":1100,"x_min":null,"x_max":null,"o":"m 25 0 l 208 533 b 244 656 225 579 244 636 b 226 679 244 674 238 679 b 71 518 185 679 124 606 l 38 518 b 307 753 101 642 206 753 b 381 676 357 753 381 717 b 336 532 381 640 360 592 l 254 310 l 267 310 b 619 756 411 617 508 756 b 704 661 674 756 704 711 b 579 310 704 579 644 463 l 592 310 b 957 756 735 618 844 756 b 1056 654 1022 756 1056 714 b 886 193 1056 553 954 353 b 854 94 875 161 854 114 b 879 63 854 74 861 63 b 1039 251 931 63 993 150 l 1072 251 b 818 -12 1021 128 931 -12 b 719 76 744 -12 719 26 b 760 199 719 108 738 140 b 911 613 835 385 911 557 b 882 657 911 643 901 657 b 618 308 840 657 746 576 b 488 0 578 226 535 124 l 351 0 l 464 288 b 575 613 515 418 575 561 b 544 657 575 643 565 657 b 161 0 490 657 361 521 "},"n":{"ha":775,"x_min":null,"x_max":null,"o":"m 25 0 l 208 533 b 244 656 225 579 244 636 b 226 679 244 674 238 679 b 71 518 185 679 124 606 l 38 518 b 307 753 101 642 206 753 b 381 676 357 753 381 717 b 336 532 381 640 360 592 l 254 310 l 268 310 b 632 756 414 617 519 756 b 731 654 696 756 731 714 b 561 193 731 553 629 353 b 529 94 550 161 529 114 b 554 63 529 74 535 63 b 714 251 606 63 668 150 l 747 251 b 492 -12 696 128 606 -12 b 394 76 419 -12 394 26 b 435 199 394 108 413 140 b 586 613 510 385 586 557 b 557 657 586 643 578 657 b 161 0 503 657 365 521 "},"ń":{"ha":775,"x_min":null,"x_max":null,"o":"m 507 865 l 665 1119 l 797 1119 l 551 865 m 25 0 l 208 533 b 244 656 225 579 244 636 b 226 679 244 674 238 679 b 71 518 185 679 124 606 l 38 518 b 307 753 101 642 206 753 b 381 676 357 753 381 717 b 336 532 381 640 360 592 l 254 310 l 268 310 b 632 756 414 617 519 756 b 731 654 696 756 731 714 b 561 193 731 553 629 353 b 529 94 550 161 529 114 b 554 63 529 74 535 63 b 714 251 606 63 668 150 l 747 251 b 492 -12 696 128 606 -12 b 394 76 419 -12 394 26 b 435 199 394 108 413 140 b 586 613 510 385 586 557 b 557 657 586 643 578 657 b 161 0 503 657 365 521 "},"ň":{"ha":775,"x_min":null,"x_max":null,"o":"m 406 1119 l 444 1119 l 526 938 l 729 1119 l 775 1119 l 568 865 l 440 865 m 554 63 b 714 251 606 63 668 150 l 747 251 b 492 -12 696 128 606 -12 b 394 76 419 -12 394 26 b 435 199 394 108 413 140 b 586 613 510 385 586 557 b 557 657 586 643 578 657 b 161 0 503 657 365 521 l 25 0 l 208 533 b 244 656 225 579 244 636 b 226 679 244 674 238 679 b 71 518 185 679 124 606 l 38 518 b 307 753 101 642 206 753 b 381 676 357 753 381 717 b 336 532 381 640 360 592 l 254 310 l 268 310 b 632 756 414 617 519 756 b 731 654 696 756 731 714 b 561 193 731 553 629 353 b 529 94 550 161 529 114 b 554 63 529 74 535 63 "},"ņ":{"ha":775,"x_min":null,"x_max":null,"o":"m 25 0 l 208 533 b 244 656 225 579 244 636 b 226 679 244 674 238 679 b 71 518 185 679 124 606 l 38 518 b 307 753 101 642 206 753 b 381 676 357 753 381 717 b 336 532 381 640 360 592 l 254 310 l 268 310 b 632 756 414 617 519 756 b 731 654 696 756 731 714 b 561 193 731 553 629 353 b 529 94 550 161 529 114 b 554 63 529 74 535 63 b 714 251 606 63 668 150 l 747 251 b 492 -12 696 128 606 -12 b 394 76 419 -12 394 26 b 435 199 394 108 413 140 b 586 613 510 385 586 557 b 557 657 586 643 578 657 b 161 0 503 657 365 521 m 268 -103 b 343 -179 313 -103 343 -139 b 157 -343 343 -251 276 -315 l 157 -310 b 279 -221 218 -296 279 -251 b 269 -210 279 -214 275 -210 b 222 -228 258 -210 249 -228 b 185 -185 200 -228 185 -210 b 268 -103 185 -142 219 -103 "},"ŋ":{"ha":750,"x_min":null,"x_max":null,"o":"m 96 -312 b 21 -256 44 -312 21 -289 b 104 -175 21 -211 60 -175 b 224 -226 158 -175 175 -226 b 465 229 283 -226 365 -35 b 586 613 539 425 586 550 b 557 657 586 643 578 657 b 161 0 503 657 365 521 l 25 0 l 208 533 b 244 656 225 579 244 636 b 226 679 244 674 238 679 b 71 518 185 679 124 606 l 38 518 b 307 753 101 642 206 753 b 381 676 357 753 381 717 b 336 532 381 640 360 592 l 254 310 l 268 310 b 632 756 414 617 519 756 b 731 654 696 756 731 714 b 606 232 731 578 682 435 b 96 -312 497 -44 338 -312 "},"ñ":{"ha":775,"x_min":null,"x_max":null,"o":"m 631 893 b 453 988 539 893 524 988 b 342 888 397 988 367 946 l 308 892 b 474 1081 342 983 393 1081 b 651 985 565 1081 581 985 b 763 1085 707 985 738 1026 l 796 1081 b 631 893 763 989 711 893 m 25 0 l 208 533 b 244 656 225 579 244 636 b 226 679 244 674 238 679 b 71 518 185 679 124 606 l 38 518 b 307 753 101 642 206 753 b 381 676 357 753 381 717 b 336 532 381 640 360 592 l 254 310 l 268 310 b 632 756 414 617 519 756 b 731 654 696 756 731 714 b 561 193 731 553 629 353 b 529 94 550 161 529 114 b 554 63 529 74 535 63 b 714 251 606 63 668 150 l 747 251 b 492 -12 696 128 606 -12 b 394 76 419 -12 394 26 b 435 199 394 108 413 140 b 586 613 510 385 586 557 b 557 657 586 643 578 657 b 161 0 503 657 365 521 "},"o":{"ha":667,"x_min":null,"x_max":null,"o":"m 232 -19 b 26 219 110 -19 26 72 b 432 757 26 483 226 757 b 639 515 556 757 639 661 b 232 -19 639 253 439 -19 m 243 40 b 508 560 363 40 508 336 b 422 699 508 644 482 699 b 158 176 303 699 158 397 b 243 40 158 93 183 40 "},"ó":{"ha":667,"x_min":null,"x_max":null,"o":"m 489 865 l 647 1119 l 779 1119 l 533 865 m 232 -19 b 26 219 110 -19 26 72 b 432 757 26 483 226 757 b 639 515 556 757 639 661 b 232 -19 639 253 439 -19 m 243 40 b 508 560 363 40 508 336 b 422 699 508 644 482 699 b 158 176 303 699 158 397 b 243 40 158 93 183 40 "},"ô":{"ha":667,"x_min":null,"x_max":null,"o":"m 556 1046 l 351 865 l 307 865 l 513 1119 l 640 1119 l 676 865 l 636 865 m 432 757 b 639 515 556 757 639 661 b 232 -19 639 253 439 -19 b 26 219 110 -19 26 72 b 432 757 26 483 226 757 m 243 40 b 508 560 363 40 508 336 b 422 699 508 644 482 699 b 158 176 303 699 158 397 b 243 40 158 93 183 40 "},"ö":{"ha":667,"x_min":null,"x_max":null,"o":"m 407 896 b 324 979 360 896 324 932 b 407 1061 324 1026 360 1061 b 490 979 456 1061 490 1026 b 407 896 490 932 456 896 m 661 896 b 578 979 614 896 578 932 b 661 1061 578 1026 614 1061 b 743 979 708 1061 743 1026 b 661 896 743 932 708 896 m 232 -19 b 26 219 110 -19 26 72 b 432 757 26 483 226 757 b 639 515 556 757 639 661 b 232 -19 639 253 439 -19 m 243 40 b 508 560 363 40 508 336 b 422 699 508 644 482 699 b 158 176 303 699 158 397 b 243 40 158 93 183 40 "},"ò":{"ha":667,"x_min":null,"x_max":null,"o":"m 528 865 l 483 865 l 281 1119 l 411 1119 m 232 -19 b 26 219 110 -19 26 72 b 432 757 26 483 226 757 b 639 515 556 757 639 661 b 232 -19 639 253 439 -19 m 243 40 b 508 560 363 40 508 336 b 422 699 508 644 482 699 b 158 176 303 699 158 397 b 243 40 158 93 183 40 "},"ő":{"ha":667,"x_min":null,"x_max":null,"o":"m 393 865 l 543 1119 l 639 1119 l 436 865 m 533 865 l 704 1119 l 806 1119 l 578 865 m 232 -19 b 26 219 110 -19 26 72 b 432 757 26 483 226 757 b 639 515 556 757 639 661 b 232 -19 639 253 439 -19 m 243 40 b 508 560 363 40 508 336 b 422 699 508 644 482 699 b 158 176 303 699 158 397 b 243 40 158 93 183 40 "},"ō":{"ha":667,"x_min":null,"x_max":null,"o":"m 347 1004 l 736 1004 l 718 939 l 328 939 m 232 -19 b 26 219 110 -19 26 72 b 432 757 26 483 226 757 b 639 515 556 757 639 661 b 232 -19 639 253 439 -19 m 243 40 b 508 560 363 40 508 336 b 422 699 508 644 482 699 b 158 176 303 699 158 397 b 243 40 158 93 183 40 "},"ø":{"ha":676,"x_min":null,"x_max":null,"o":"m 736 793 l 617 656 b 650 515 638 618 650 569 b 242 -19 650 253 450 -19 b 90 49 179 -19 126 6 l -22 -81 l -51 -58 l 69 81 b 38 219 49 118 38 165 b 443 757 38 483 236 757 b 596 686 507 757 560 732 l 707 814 m 432 699 b 168 194 315 699 176 414 l 517 594 b 432 699 510 660 483 699 m 253 40 b 518 542 369 40 510 321 l 169 140 b 253 40 176 78 203 40 "},"õ":{"ha":667,"x_min":null,"x_max":null,"o":"m 611 893 b 433 988 519 893 504 988 b 322 888 378 988 347 946 l 289 892 b 454 1081 322 983 374 1081 b 632 985 546 1081 561 985 b 743 1085 688 985 718 1026 l 776 1081 b 611 893 743 989 692 893 m 232 -19 b 26 219 110 -19 26 72 b 432 757 26 483 226 757 b 639 515 556 757 639 661 b 232 -19 639 253 439 -19 m 243 40 b 508 560 363 40 508 336 b 422 699 508 644 482 699 b 158 176 303 699 158 397 b 243 40 158 93 183 40 "},"œ":{"ha":975,"x_min":null,"x_max":null,"o":"m 672 69 b 901 296 753 69 835 156 l 932 296 b 614 -19 856 103 739 -19 b 457 125 531 -19 475 33 b 215 -19 389 38 301 -19 b 29 222 101 -19 29 72 b 407 757 29 486 217 756 b 589 583 514 758 572 686 b 851 756 663 685 758 756 b 979 621 929 756 979 706 b 585 315 979 471 776 343 b 574 214 578 279 574 244 b 672 69 574 124 610 69 m 243 40 b 490 560 360 40 490 339 b 408 701 490 647 465 701 b 158 181 288 701 158 400 b 243 40 158 93 183 40 m 835 701 b 594 360 732 701 635 522 b 883 631 749 396 883 504 b 835 701 883 675 871 701 "},"p":{"ha":729,"x_min":null,"x_max":null,"o":"m 589 756 b 713 568 656 756 713 697 b 326 -10 713 342 531 -10 b 190 50 269 -10 222 14 l 122 -168 b 229 -272 94 -254 107 -272 l 214 -306 l -147 -306 l -137 -272 b -12 -168 -72 -272 -39 -256 l 233 615 b 28 376 185 528 111 432 l 10 401 b 290 797 143 492 251 675 l 290 796 l 314 871 l 440 871 l 294 436 l 307 436 b 589 756 371 582 471 756 m 311 47 b 576 542 438 47 576 363 b 522 654 576 618 558 654 b 251 246 438 654 306 421 l 231 179 b 311 47 229 104 257 47 "},"þ":{"ha":721,"x_min":null,"x_max":null,"o":"m 582 756 b 706 568 649 756 706 697 b 319 -10 706 331 547 -10 b 186 47 264 -10 218 13 l 114 -182 b 208 -286 88 -268 96 -286 l 194 -318 l -157 -318 l -147 -286 b -21 -182 -82 -286 -49 -268 l 228 611 b 28 376 179 524 107 431 l 10 401 b 285 797 139 492 246 675 l 285 794 l 394 1146 l 522 1146 l 288 436 l 300 436 b 582 756 364 582 464 756 m 304 47 b 569 542 447 47 569 363 b 515 654 569 618 551 654 b 247 246 431 654 301 421 l 224 169 b 304 47 225 99 251 47 "},"q":{"ha":697,"x_min":null,"x_max":null,"o":"m 400 -171 b 461 -272 369 -256 371 -272 l 450 -306 l 86 -306 l 100 -274 b 268 -175 194 -274 238 -257 l 461 350 l 451 350 b 140 -19 385 204 271 -19 b 10 168 53 -19 10 56 b 426 756 10 414 233 756 b 553 600 518 756 558 690 l 593 710 b 717 767 649 710 692 738 l 739 756 m 196 81 b 474 456 279 81 421 300 b 501 589 489 500 501 544 b 440 685 501 650 483 685 b 147 182 314 685 147 381 b 196 81 147 118 160 81 "},"r":{"ha":582,"x_min":null,"x_max":null,"o":"m 35 0 l 211 532 b 244 656 226 578 244 636 b 226 679 244 674 238 679 b 71 518 185 679 124 606 l 38 518 b 307 753 101 642 206 753 b 381 676 357 753 381 717 b 336 532 381 640 360 592 l 254 310 l 267 310 b 621 757 386 621 506 757 b 672 710 654 757 672 740 b 599 622 672 667 636 622 b 528 638 571 622 557 638 b 172 0 464 638 346 511 "},"ŕ":{"ha":582,"x_min":null,"x_max":null,"o":"m 481 865 l 639 1119 l 771 1119 l 525 865 m 35 0 l 211 532 b 244 656 226 578 244 636 b 226 679 244 674 238 679 b 71 518 185 679 124 606 l 38 518 b 307 753 101 642 206 753 b 381 676 357 753 381 717 b 336 532 381 640 360 592 l 254 310 l 267 310 b 621 757 386 621 506 757 b 672 710 654 757 672 740 b 599 622 672 667 636 622 b 528 638 571 622 557 638 b 172 0 464 638 346 511 "},"ř":{"ha":582,"x_min":null,"x_max":null,"o":"m 378 1119 l 417 1119 l 499 938 l 701 1119 l 747 1119 l 540 865 l 413 865 m 621 757 b 672 710 654 757 672 740 b 599 622 672 667 636 622 b 528 638 571 622 557 638 b 172 0 464 638 346 511 l 35 0 l 211 532 b 244 656 226 578 244 636 b 226 679 244 674 238 679 b 71 518 185 679 124 606 l 38 518 b 307 753 101 642 206 753 b 381 676 357 753 381 717 b 336 532 381 640 360 592 l 254 310 l 267 310 b 621 757 386 621 506 757 "},"ŗ":{"ha":582,"x_min":null,"x_max":null,"o":"m 35 0 l 211 532 b 244 656 226 578 244 636 b 226 679 244 674 238 679 b 71 518 185 679 124 606 l 38 518 b 307 753 101 642 206 753 b 381 676 357 753 381 717 b 336 532 381 640 360 592 l 254 310 l 267 310 b 621 757 386 621 506 757 b 672 710 654 757 672 740 b 599 622 672 667 636 622 b 528 638 571 622 557 638 b 172 0 464 638 346 511 m 69 -103 b 144 -179 114 -103 144 -139 b -42 -343 144 -251 78 -315 l -42 -310 b 81 -221 19 -296 81 -251 b 71 -210 81 -214 76 -210 b 24 -228 60 -210 50 -228 b -14 -185 1 -228 -14 -210 b 69 -103 -14 -142 21 -103 "},"s":{"ha":511,"x_min":null,"x_max":null,"o":"m 185 -19 b -18 124 75 -19 -18 47 b 42 186 -18 161 8 186 b 93 129 69 186 79 168 b 207 31 118 64 150 31 b 303 143 271 31 303 78 b 243 285 303 196 278 236 l 206 343 b 124 539 154 419 124 469 b 369 760 124 669 236 760 b 535 649 481 760 535 696 b 475 586 535 611 506 586 b 425 642 446 586 435 608 b 336 711 411 681 390 711 b 239 606 281 711 239 674 b 301 454 239 557 264 508 l 336 397 b 418 204 389 315 418 271 b 185 -19 418 78 318 -19 "},"ś":{"ha":511,"x_min":null,"x_max":null,"o":"m 379 865 l 538 1119 l 669 1119 l 424 865 m 185 -19 b -18 124 75 -19 -18 47 b 42 186 -18 161 8 186 b 93 129 69 186 79 168 b 207 31 118 64 150 31 b 303 143 271 31 303 78 b 243 285 303 196 278 236 l 206 343 b 124 539 154 419 124 469 b 369 760 124 669 236 760 b 535 649 481 760 535 696 b 475 586 535 611 506 586 b 425 642 446 586 435 608 b 336 711 411 681 390 711 b 239 606 281 711 239 674 b 301 454 239 557 264 508 l 336 397 b 418 204 389 315 418 271 b 185 -19 418 78 318 -19 "},"š":{"ha":511,"x_min":null,"x_max":null,"o":"m 276 1119 l 315 1119 l 397 938 l 600 1119 l 646 1119 l 439 865 l 311 865 m 369 760 b 535 649 481 760 535 696 b 475 586 535 611 506 586 b 425 642 446 586 435 608 b 336 711 411 681 390 711 b 239 606 281 711 239 674 b 301 454 239 557 264 508 l 336 397 b 418 204 389 315 418 271 b 185 -19 418 78 318 -19 b -18 124 75 -19 -18 47 b 42 186 -18 161 8 186 b 93 129 69 186 79 168 b 207 31 118 64 150 31 b 303 143 271 31 303 78 b 243 285 303 196 278 236 l 206 343 b 124 539 154 419 124 469 b 369 760 124 669 236 760 "},"ş":{"ha":511,"x_min":null,"x_max":null,"o":"m 369 760 b 535 649 481 760 535 696 b 475 586 535 611 506 586 b 425 642 446 586 435 608 b 336 711 411 681 390 711 b 239 606 281 711 239 674 b 301 454 239 557 264 508 l 336 397 b 418 204 389 315 418 271 b 189 -19 418 79 319 -18 l 168 -62 b 288 -161 233 -64 288 -93 b 38 -319 288 -243 199 -319 b -53 -311 7 -319 -24 -317 l -37 -279 b 14 -281 -21 -281 -1 -281 b 186 -164 139 -281 186 -217 b 96 -101 186 -118 150 -101 l 138 -15 b -18 124 50 0 -18 58 b 42 186 -18 161 8 186 b 93 129 69 186 79 168 b 207 31 118 64 150 31 b 303 143 271 31 303 78 b 243 285 303 196 278 236 l 206 343 b 124 539 154 419 124 469 b 369 760 124 669 236 760 "},"ș":{"ha":511,"x_min":null,"x_max":null,"o":"m 185 -19 b -18 124 75 -19 -18 47 b 42 186 -18 161 8 186 b 93 129 69 186 79 168 b 207 31 118 64 150 31 b 303 143 271 31 303 78 b 243 285 303 196 278 236 l 206 343 b 124 539 154 419 124 469 b 369 760 124 669 236 760 b 535 649 481 760 535 696 b 475 586 535 611 506 586 b 425 642 446 586 435 608 b 336 711 411 681 390 711 b 239 606 281 711 239 674 b 301 454 239 557 264 508 l 336 397 b 418 204 389 315 418 271 b 185 -19 418 78 318 -19 m 149 -99 b 224 -175 193 -99 224 -135 b 38 -339 224 -247 157 -311 l 38 -306 b 160 -217 99 -292 160 -247 b 150 -206 160 -210 156 -206 b 103 -224 139 -206 129 -224 b 65 -181 81 -224 65 -206 b 149 -99 65 -137 100 -99 "},"ß":{"ha":772,"x_min":null,"x_max":null,"o":"m 642 747 b 517 613 546 671 517 649 b 597 497 517 578 558 535 b 714 276 657 436 714 368 b 414 -18 714 146 601 -18 b 254 25 332 -18 274 13 l 325 264 l 358 263 b 339 157 344 219 339 185 b 425 47 339 92 368 47 b 593 240 532 47 593 147 b 501 424 593 315 554 368 b 414 565 457 472 414 518 b 549 753 414 628 454 667 b 703 996 646 840 703 914 b 622 1082 703 1051 674 1082 b 378 768 529 1082 449 1003 l 188 143 b -260 -306 111 -104 -57 -306 b -349 -250 -331 -306 -349 -281 b -261 -167 -349 -204 -307 -167 b -140 -219 -210 -167 -185 -219 b 47 122 -69 -219 -32 -136 l 218 686 l 97 686 l 113 736 l 233 736 l 246 776 b 626 1139 311 989 438 1139 b 826 985 758 1139 826 1068 b 642 747 826 886 749 829 "},"t":{"ha":458,"x_min":null,"x_max":null,"o":"m 197 214 b 171 107 185 174 171 133 b 200 71 171 85 176 71 b 393 276 263 71 338 164 l 426 276 b 128 -12 361 122 251 -12 b 32 79 60 -12 32 24 b 64 215 32 117 46 164 l 231 692 l 126 692 l 142 729 b 397 914 271 736 336 800 l 443 914 l 378 736 l 514 736 l 500 692 l 364 692 "},"ŧ":{"ha":465,"x_min":null,"x_max":null,"o":"m 507 692 l 371 692 l 311 519 l 461 519 l 449 476 l 296 476 l 206 214 b 178 107 192 174 178 133 b 207 71 178 85 183 71 b 400 276 269 71 344 164 l 433 276 b 135 -12 368 122 258 -12 b 39 79 67 -12 39 24 b 72 215 39 117 54 164 l 163 476 l 61 476 l 74 519 l 178 519 l 238 692 l 133 692 l 150 729 b 404 914 278 736 343 800 l 450 914 l 385 736 l 521 736 "},"ť":{"ha":458,"x_min":null,"x_max":null,"o":"m 501 826 l 585 1093 l 700 1093 l 544 826 m 197 214 b 171 107 185 174 171 133 b 200 71 171 85 176 71 b 393 276 263 71 338 164 l 426 276 b 128 -12 361 122 251 -12 b 32 79 60 -12 32 24 b 64 215 32 117 46 164 l 231 692 l 126 692 l 142 729 b 397 914 271 736 336 800 l 443 914 l 378 736 l 514 736 l 500 692 l 364 692 "},"ţ":{"ha":458,"x_min":null,"x_max":null,"o":"m 364 692 l 197 214 b 171 107 185 174 171 133 b 200 71 171 85 176 71 b 393 276 263 71 338 164 l 426 276 b 129 -12 361 124 253 -11 l 107 -61 b 226 -160 172 -62 226 -92 b -25 -318 226 -242 138 -318 b -114 -310 -54 -318 -85 -315 l -99 -278 b -47 -279 -82 -279 -62 -279 b 125 -162 78 -279 125 -215 b 35 -100 125 -117 89 -100 l 81 -4 b 32 79 46 8 32 39 b 64 215 32 117 46 164 l 231 692 l 126 692 l 142 729 b 397 914 271 736 336 800 l 443 914 l 378 736 l 514 736 l 500 692 "},"ț":{"ha":458,"x_min":null,"x_max":null,"o":"m 197 214 b 171 107 185 174 171 133 b 200 71 171 85 176 71 b 393 276 263 71 338 164 l 426 276 b 128 -12 361 122 251 -12 b 32 79 60 -12 32 24 b 64 215 32 117 46 164 l 231 692 l 126 692 l 142 729 b 397 914 271 736 336 800 l 443 914 l 378 736 l 514 736 l 500 692 l 364 692 m 114 -103 b 189 -179 158 -103 189 -139 b 3 -343 189 -251 122 -315 l 3 -310 b 125 -221 64 -296 125 -251 b 115 -210 125 -214 121 -210 b 68 -228 104 -210 94 -228 b 31 -185 46 -228 31 -210 b 114 -103 31 -142 65 -103 "},"u":{"ha":779,"x_min":null,"x_max":null,"o":"m 138 -19 b 38 79 72 -19 38 22 b 206 535 38 183 136 382 b 244 657 222 581 244 636 b 226 681 244 675 238 681 b 71 519 185 681 124 607 l 38 519 b 307 754 101 642 206 754 b 381 676 357 754 381 718 b 333 531 381 642 360 593 b 179 122 260 350 183 185 b 207 78 178 92 189 78 b 446 354 257 78 339 150 b 590 736 503 460 586 632 l 751 736 l 561 186 b 532 86 550 154 532 107 b 557 56 532 65 539 56 b 717 244 608 56 671 143 l 750 244 b 496 -21 699 119 608 -21 b 397 69 422 -21 397 18 b 435 189 397 100 414 133 l 522 422 l 510 422 b 138 -19 360 122 250 -19 "},"ú":{"ha":779,"x_min":null,"x_max":null,"o":"m 501 865 l 660 1119 l 792 1119 l 546 865 m 138 -19 b 38 79 72 -19 38 22 b 206 535 38 183 136 382 b 244 657 222 581 244 636 b 226 681 244 675 238 681 b 71 519 185 681 124 607 l 38 519 b 307 754 101 642 206 754 b 381 676 357 754 381 718 b 333 531 381 642 360 593 b 179 122 260 350 183 185 b 207 78 178 92 189 78 b 446 354 257 78 339 150 b 590 736 503 460 586 632 l 751 736 l 561 186 b 532 86 550 154 532 107 b 557 56 532 65 539 56 b 717 244 608 56 671 143 l 750 244 b 496 -21 699 119 608 -21 b 397 69 422 -21 397 18 b 435 189 397 100 414 133 l 522 422 l 510 422 b 138 -19 360 122 250 -19 "},"û":{"ha":779,"x_min":null,"x_max":null,"o":"m 568 1046 l 364 865 l 319 865 l 525 1119 l 653 1119 l 689 865 l 649 865 m 557 56 b 717 244 608 56 671 143 l 750 244 b 496 -21 699 119 608 -21 b 397 69 422 -21 397 18 b 435 189 397 100 414 133 l 522 422 l 510 422 b 138 -19 360 122 250 -19 b 38 79 72 -19 38 22 b 206 535 38 183 136 382 b 244 657 222 581 244 636 b 226 681 244 675 238 681 b 71 519 185 681 124 607 l 38 519 b 307 754 101 642 206 754 b 381 676 357 754 381 718 b 333 531 381 642 360 593 b 179 122 260 350 183 185 b 207 78 178 92 189 78 b 446 354 257 78 339 150 b 590 736 503 460 586 632 l 751 736 l 561 186 b 532 86 550 154 532 107 b 557 56 532 65 539 56 "},"ü":{"ha":779,"x_min":null,"x_max":null,"o":"m 419 896 b 336 979 372 896 336 932 b 419 1061 336 1026 372 1061 b 503 979 468 1061 503 1026 b 419 896 503 932 468 896 m 674 896 b 590 979 626 896 590 932 b 674 1061 590 1026 626 1061 b 756 979 721 1061 756 1026 b 674 896 756 932 721 896 m 138 -19 b 38 79 72 -19 38 22 b 206 535 38 183 136 382 b 244 657 222 581 244 636 b 226 681 244 675 238 681 b 71 519 185 681 124 607 l 38 519 b 307 754 101 642 206 754 b 381 676 357 754 381 718 b 333 531 381 642 360 593 b 179 122 260 350 183 185 b 207 78 178 92 189 78 b 446 354 257 78 339 150 b 590 736 503 460 586 632 l 751 736 l 561 186 b 532 86 550 154 532 107 b 557 56 532 65 539 56 b 717 244 608 56 671 143 l 750 244 b 496 -21 699 119 608 -21 b 397 69 422 -21 397 18 b 435 189 397 100 414 133 l 522 422 l 510 422 b 138 -19 360 122 250 -19 "},"ù":{"ha":779,"x_min":null,"x_max":null,"o":"m 540 865 l 496 865 l 293 1119 l 424 1119 m 138 -19 b 38 79 72 -19 38 22 b 206 535 38 183 136 382 b 244 657 222 581 244 636 b 226 681 244 675 238 681 b 71 519 185 681 124 607 l 38 519 b 307 754 101 642 206 754 b 381 676 357 754 381 718 b 333 531 381 642 360 593 b 179 122 260 350 183 185 b 207 78 178 92 189 78 b 446 354 257 78 339 150 b 590 736 503 460 586 632 l 751 736 l 561 186 b 532 86 550 154 532 107 b 557 56 532 65 539 56 b 717 244 608 56 671 143 l 750 244 b 496 -21 699 119 608 -21 b 397 69 422 -21 397 18 b 435 189 397 100 414 133 l 522 422 l 510 422 b 138 -19 360 122 250 -19 "},"ű":{"ha":779,"x_min":null,"x_max":null,"o":"m 406 865 l 556 1119 l 651 1119 l 449 865 m 546 865 l 717 1119 l 818 1119 l 590 865 m 138 -19 b 38 79 72 -19 38 22 b 206 535 38 183 136 382 b 244 657 222 581 244 636 b 226 681 244 675 238 681 b 71 519 185 681 124 607 l 38 519 b 307 754 101 642 206 754 b 381 676 357 754 381 718 b 333 531 381 642 360 593 b 179 122 260 350 183 185 b 207 78 178 92 189 78 b 446 354 257 78 339 150 b 590 736 503 460 586 632 l 751 736 l 561 186 b 532 86 550 154 532 107 b 557 56 532 65 539 56 b 717 244 608 56 671 143 l 750 244 b 496 -21 699 119 608 -21 b 397 69 422 -21 397 18 b 435 189 397 100 414 133 l 522 422 l 510 422 b 138 -19 360 122 250 -19 "},"ū":{"ha":779,"x_min":null,"x_max":null,"o":"m 360 1004 l 749 1004 l 731 939 l 340 939 m 138 -19 b 38 79 72 -19 38 22 b 206 535 38 183 136 382 b 244 657 222 581 244 636 b 226 681 244 675 238 681 b 71 519 185 681 124 607 l 38 519 b 307 754 101 642 206 754 b 381 676 357 754 381 718 b 333 531 381 642 360 593 b 179 122 260 350 183 185 b 207 78 178 92 189 78 b 446 354 257 78 339 150 b 590 736 503 460 586 632 l 751 736 l 561 186 b 532 86 550 154 532 107 b 557 56 532 65 539 56 b 717 244 608 56 671 143 l 750 244 b 496 -21 699 119 608 -21 b 397 69 422 -21 397 18 b 435 189 397 100 414 133 l 522 422 l 510 422 b 138 -19 360 122 250 -19 "},"ų":{"ha":779,"x_min":null,"x_max":null,"o":"m 557 56 b 717 244 608 56 671 143 l 750 244 b 571 0 711 149 649 43 l 569 0 b 547 -11 563 -4 554 -8 b 365 -208 460 -54 365 -125 b 438 -271 365 -249 386 -271 b 551 -237 472 -271 501 -261 l 558 -272 b 390 -331 503 -311 450 -331 b 261 -229 318 -331 261 -301 b 472 -19 261 -122 379 -56 b 397 69 417 -11 397 24 b 435 189 397 100 414 133 l 522 422 l 510 422 b 138 -19 360 122 250 -19 b 38 79 72 -19 38 22 b 206 535 38 183 136 382 b 244 657 222 581 244 636 b 226 681 244 675 238 681 b 71 519 185 681 124 607 l 38 519 b 307 754 101 642 206 754 b 381 676 357 754 381 718 b 333 531 381 642 360 593 b 179 122 260 350 183 185 b 207 78 178 92 189 78 b 446 354 257 78 339 150 b 590 736 503 460 586 632 l 751 736 l 561 186 b 532 86 550 154 532 107 b 557 56 532 65 539 56 "},"ů":{"ha":779,"x_min":null,"x_max":null,"o":"m 519 875 b 413 981 451 875 413 921 b 588 1150 413 1065 493 1150 b 694 1047 654 1150 694 1107 b 519 875 694 964 615 875 m 526 922 b 642 1046 597 922 642 996 b 581 1104 642 1081 622 1104 b 465 983 510 1104 465 1036 b 526 922 465 949 485 922 m 138 -19 b 38 79 72 -19 38 22 b 206 535 38 183 136 382 b 244 657 222 581 244 636 b 226 681 244 675 238 681 b 71 519 185 681 124 607 l 38 519 b 307 754 101 642 206 754 b 381 676 357 754 381 718 b 333 531 381 642 360 593 b 179 122 260 350 183 185 b 207 78 178 92 189 78 b 446 354 257 78 339 150 b 590 736 503 460 586 632 l 751 736 l 561 186 b 532 86 550 154 532 107 b 557 56 532 65 539 56 b 717 244 608 56 671 143 l 750 244 b 496 -21 699 119 608 -21 b 397 69 422 -21 397 18 b 435 189 397 100 414 133 l 522 422 l 510 422 b 138 -19 360 122 250 -19 "},"v":{"ha":629,"x_min":null,"x_max":null,"o":"m 561 756 b 629 660 601 756 629 721 b 192 -19 629 418 400 -19 b 46 160 101 -19 46 44 b 313 642 46 317 176 493 l 311 642 b 161 671 278 642 196 671 b 132 644 142 671 132 660 b 167 568 132 614 167 603 b 128 528 167 546 150 528 b 90 575 110 528 90 540 b 118 668 90 597 100 631 b 221 749 143 718 172 749 b 372 732 258 749 338 732 b 413 746 393 732 403 739 l 419 753 l 443 729 b 182 210 310 579 182 365 b 265 85 182 139 204 85 b 550 540 393 85 550 375 b 511 701 550 608 511 658 b 561 756 511 729 526 756 "},"w":{"ha":931,"x_min":null,"x_max":null,"o":"m 856 757 b 922 643 893 757 922 725 b 533 -19 922 413 726 -19 b 414 111 461 -19 414 29 b 433 221 414 138 421 175 l 425 221 b 178 -19 357 72 271 -19 b 43 151 101 -19 43 42 b 310 642 43 317 176 496 l 308 642 b 161 671 275 642 194 671 b 132 644 140 671 132 660 b 165 568 132 614 165 603 b 126 528 165 546 149 528 b 89 572 107 528 89 542 b 117 668 89 593 99 631 b 221 749 143 722 175 749 b 368 732 256 749 335 732 b 407 743 385 732 397 736 b 415 753 410 747 413 750 l 439 729 b 179 196 317 588 179 369 b 242 86 179 121 199 86 b 532 679 372 86 522 465 l 676 679 b 538 190 636 468 538 332 b 599 86 538 131 553 86 b 843 522 711 86 843 351 b 806 703 843 613 806 657 b 856 757 806 732 822 757 "},"ẃ":{"ha":931,"x_min":null,"x_max":null,"o":"m 921 1119 l 675 865 l 631 865 l 789 1119 m 856 757 b 922 643 893 757 922 725 b 533 -19 922 413 726 -19 b 414 111 461 -19 414 29 b 433 221 414 138 421 175 l 425 221 b 178 -19 357 72 271 -19 b 43 151 101 -19 43 42 b 310 642 43 317 176 496 l 308 642 b 161 671 275 642 194 671 b 132 644 140 671 132 660 b 165 568 132 614 165 603 b 126 528 165 546 149 528 b 89 572 107 528 89 542 b 117 668 89 593 99 631 b 221 749 143 722 175 749 b 368 732 256 749 335 732 b 407 743 385 732 397 736 b 415 753 410 747 413 750 l 439 729 b 179 196 317 588 179 369 b 242 86 179 121 199 86 b 532 679 372 86 522 465 l 676 679 b 538 190 636 468 538 332 b 599 86 538 131 553 86 b 843 522 711 86 843 351 b 806 703 843 613 806 657 b 856 757 806 732 822 757 "},"ŵ":{"ha":931,"x_min":null,"x_max":null,"o":"m 699 1046 l 494 865 l 450 865 l 656 1119 l 783 1119 l 819 865 l 779 865 m 856 757 b 922 643 893 757 922 725 b 533 -19 922 413 726 -19 b 414 111 461 -19 414 29 b 433 221 414 138 421 175 l 425 221 b 178 -19 357 72 271 -19 b 43 151 101 -19 43 42 b 310 642 43 317 176 496 l 308 642 b 161 671 275 642 194 671 b 132 644 140 671 132 660 b 165 568 132 614 165 603 b 126 528 165 546 149 528 b 89 572 107 528 89 542 b 117 668 89 593 99 631 b 221 749 143 722 175 749 b 368 732 256 749 335 732 b 407 743 385 732 397 736 b 415 753 410 747 413 750 l 439 729 b 179 196 317 588 179 369 b 242 86 179 121 199 86 b 532 679 372 86 522 465 l 676 679 b 538 190 636 468 538 332 b 599 86 538 131 553 86 b 843 522 711 86 843 351 b 806 703 843 613 806 657 b 856 757 806 732 822 757 "},"ẅ":{"ha":931,"x_min":null,"x_max":null,"o":"m 550 896 b 467 979 503 896 467 932 b 550 1061 467 1026 503 1061 b 633 979 599 1061 633 1026 b 550 896 633 932 599 896 m 804 896 b 721 979 757 896 721 932 b 804 1061 721 1026 757 1061 b 886 979 851 1061 886 1026 b 804 896 886 932 851 896 m 856 757 b 922 643 893 757 922 725 b 533 -19 922 413 726 -19 b 414 111 461 -19 414 29 b 433 221 414 138 421 175 l 425 221 b 178 -19 357 72 271 -19 b 43 151 101 -19 43 42 b 310 642 43 317 176 496 l 308 642 b 161 671 275 642 194 671 b 132 644 140 671 132 660 b 165 568 132 614 165 603 b 126 528 165 546 149 528 b 89 572 107 528 89 542 b 117 668 89 593 99 631 b 221 749 143 722 175 749 b 368 732 256 749 335 732 b 407 743 385 732 397 736 b 415 753 410 747 413 750 l 439 729 b 179 196 317 588 179 369 b 242 86 179 121 199 86 b 532 679 372 86 522 465 l 676 679 b 538 190 636 468 538 332 b 599 86 538 131 553 86 b 843 522 711 86 843 351 b 806 703 843 613 806 657 b 856 757 806 732 822 757 "},"ẁ":{"ha":931,"x_min":null,"x_max":null,"o":"m 671 865 l 626 865 l 424 1119 l 554 1119 m 856 757 b 922 643 893 757 922 725 b 533 -19 922 413 726 -19 b 414 111 461 -19 414 29 b 433 221 414 138 421 175 l 425 221 b 178 -19 357 72 271 -19 b 43 151 101 -19 43 42 b 310 642 43 317 176 496 l 308 642 b 161 671 275 642 194 671 b 132 644 140 671 132 660 b 165 568 132 614 165 603 b 126 528 165 546 149 528 b 89 572 107 528 89 542 b 117 668 89 593 99 631 b 221 749 143 722 175 749 b 368 732 256 749 335 732 b 407 743 385 732 397 736 b 415 753 410 747 413 750 l 439 729 b 179 196 317 588 179 369 b 242 86 179 121 199 86 b 532 679 372 86 522 465 l 676 679 b 538 190 636 468 538 332 b 599 86 538 131 553 86 b 843 522 711 86 843 351 b 806 703 843 613 806 657 b 856 757 806 732 822 757 "},"x":{"ha":735,"x_min":null,"x_max":null,"o":"m 739 754 b 797 710 785 754 797 732 b 719 619 797 668 760 619 b 636 633 693 619 665 633 b 429 414 589 633 528 574 l 440 211 b 492 68 446 89 467 68 b 618 221 524 68 565 119 l 650 221 b 422 -12 594 90 518 -12 b 304 215 344 -12 313 57 l 300 281 l 271 233 b -1 -12 179 88 88 -12 b -60 26 -43 -12 -60 1 b 22 121 -60 74 -15 121 b 106 108 49 121 72 108 b 297 328 147 108 211 182 l 286 524 b 246 672 281 653 271 672 b 128 519 219 672 178 617 l 94 519 b 318 753 165 671 229 753 b 421 553 385 753 413 715 l 426 460 b 739 754 542 646 632 754 "},"y":{"ha":638,"x_min":null,"x_max":null,"o":"m -75 -314 b -154 -257 -128 -314 -154 -290 b -67 -174 -154 -211 -112 -174 b 53 -221 -12 -174 7 -221 b 211 -56 106 -221 164 -140 b 224 556 229 168 226 449 b 188 672 222 650 211 672 b 78 497 157 672 121 604 l 46 497 b 249 753 97 635 157 753 b 351 561 321 753 349 701 b 331 65 353 449 349 247 b 551 542 472 247 551 421 b 513 701 551 617 513 658 b 565 756 513 729 532 756 b 632 629 604 756 632 715 b 360 39 632 479 533 274 b -75 -314 224 -153 88 -314 "},"ý":{"ha":638,"x_min":null,"x_max":null,"o":"m 400 865 l 558 1119 l 690 1119 l 444 865 m -75 -314 b -154 -257 -128 -314 -154 -290 b -67 -174 -154 -211 -112 -174 b 53 -221 -12 -174 7 -221 b 211 -56 106 -221 164 -140 b 224 556 229 168 226 449 b 188 672 222 650 211 672 b 78 497 157 672 121 604 l 46 497 b 249 753 97 635 157 753 b 351 561 321 753 349 701 b 331 65 353 449 349 247 b 551 542 472 247 551 421 b 513 701 551 617 513 658 b 565 756 513 729 532 756 b 632 629 604 756 632 715 b 360 39 632 479 533 274 b -75 -314 224 -153 88 -314 "},"ŷ":{"ha":638,"x_min":null,"x_max":null,"o":"m 468 1046 l 264 865 l 219 865 l 425 1119 l 553 1119 l 589 865 l 549 865 m 565 756 b 632 629 604 756 632 715 b 360 39 632 479 533 274 b -75 -314 224 -153 88 -314 b -154 -257 -128 -314 -154 -290 b -67 -174 -154 -211 -112 -174 b 53 -221 -12 -174 7 -221 b 211 -56 106 -221 164 -140 b 224 556 229 168 226 449 b 188 672 222 650 211 672 b 78 497 157 672 121 604 l 46 497 b 249 753 97 635 157 753 b 351 561 321 753 349 701 b 331 65 353 449 349 247 b 551 542 472 247 551 421 b 513 701 551 617 513 658 b 565 756 513 729 532 756 "},"ÿ":{"ha":638,"x_min":null,"x_max":null,"o":"m 319 896 b 236 979 272 896 236 932 b 319 1061 236 1026 272 1061 b 403 979 368 1061 403 1026 b 319 896 403 932 368 896 m 574 896 b 490 979 526 896 490 932 b 574 1061 490 1026 526 1061 b 656 979 621 1061 656 1026 b 574 896 656 932 621 896 m -75 -314 b -154 -257 -128 -314 -154 -290 b -67 -174 -154 -211 -112 -174 b 53 -221 -12 -174 7 -221 b 211 -56 106 -221 164 -140 b 224 556 229 168 226 449 b 188 672 222 650 211 672 b 78 497 157 672 121 604 l 46 497 b 249 753 97 635 157 753 b 351 561 321 753 349 701 b 331 65 353 449 349 247 b 551 542 472 247 551 421 b 513 701 551 617 513 658 b 565 756 513 729 532 756 b 632 629 604 756 632 715 b 360 39 632 479 533 274 b -75 -314 224 -153 88 -314 "},"ỳ":{"ha":638,"x_min":null,"x_max":null,"o":"m 440 865 l 396 865 l 193 1119 l 324 1119 m -75 -314 b -154 -257 -128 -314 -154 -290 b -67 -174 -154 -211 -112 -174 b 53 -221 -12 -174 7 -221 b 211 -56 106 -221 164 -140 b 224 556 229 168 226 449 b 188 672 222 650 211 672 b 78 497 157 672 121 604 l 46 497 b 249 753 97 635 157 753 b 351 561 321 753 349 701 b 331 65 353 449 349 247 b 551 542 472 247 551 421 b 513 701 551 617 513 658 b 565 756 513 729 532 756 b 632 629 604 756 632 715 b 360 39 632 479 533 274 b -75 -314 224 -153 88 -314 "},"z":{"ha":579,"x_min":null,"x_max":null,"o":"m 622 710 b 101 179 622 582 279 364 b 143 186 115 185 129 186 b 397 64 260 186 322 64 b 465 174 444 64 465 114 b 450 271 465 206 460 240 l 483 281 b 501 172 494 246 501 211 b 361 -64 501 29 444 -64 b 76 117 246 -64 193 117 b 22 74 46 117 22 101 b 36 24 22 56 36 42 b -3 -12 36 3 17 -12 b -40 35 -25 -12 -40 7 b 472 574 -40 179 290 400 b 417 560 456 565 438 560 b 226 631 344 560 288 631 b 133 521 182 631 150 585 l 103 524 b 264 751 150 710 211 751 b 507 642 353 751 404 642 b 565 681 547 642 565 658 b 549 722 565 697 549 707 b 583 750 549 738 561 750 b 622 710 608 750 622 732 "},"ź":{"ha":579,"x_min":null,"x_max":null,"o":"m 696 1119 l 450 865 l 406 865 l 564 1119 m 583 750 b 622 710 608 750 622 732 b 101 179 622 582 279 364 b 143 186 115 185 129 186 b 397 64 260 186 322 64 b 465 174 444 64 465 114 b 450 271 465 206 460 240 l 483 281 b 501 172 494 246 501 211 b 361 -64 501 29 444 -64 b 76 117 246 -64 193 117 b 22 74 46 117 22 101 b 36 24 22 56 36 42 b -3 -12 36 3 17 -12 b -40 35 -25 -12 -40 7 b 472 574 -40 179 290 400 b 417 560 456 565 438 560 b 226 631 344 560 288 631 b 133 521 182 631 150 585 l 103 524 b 264 751 150 710 211 751 b 507 642 353 751 404 642 b 565 681 547 642 565 658 b 549 722 565 697 549 707 b 583 750 549 738 561 750 "},"ž":{"ha":579,"x_min":null,"x_max":null,"o":"m 304 1119 l 343 1119 l 425 938 l 628 1119 l 674 1119 l 467 865 l 339 865 m 583 750 b 622 710 608 750 622 732 b 101 179 622 582 279 364 b 143 186 115 185 129 186 b 397 64 260 186 322 64 b 465 174 444 64 465 114 b 450 271 465 206 460 240 l 483 281 b 501 172 494 246 501 211 b 361 -64 501 29 444 -64 b 76 117 246 -64 193 117 b 22 74 46 117 22 101 b 36 24 22 56 36 42 b -3 -12 36 3 17 -12 b -40 35 -25 -12 -40 7 b 472 574 -40 179 290 400 b 417 560 456 565 438 560 b 226 631 344 560 288 631 b 133 521 182 631 150 585 l 103 524 b 264 751 150 710 211 751 b 507 642 353 751 404 642 b 565 681 547 642 565 658 b 549 722 565 697 549 707 b 583 750 549 738 561 750 "},"ż":{"ha":579,"x_min":null,"x_max":null,"o":"m 447 896 b 364 979 400 896 364 932 b 447 1061 364 1026 400 1061 b 529 979 494 1061 529 1026 b 447 896 529 932 494 896 m 622 710 b 101 179 622 582 279 364 b 143 186 115 185 129 186 b 397 64 260 186 322 64 b 465 174 444 64 465 114 b 450 271 465 206 460 240 l 483 281 b 501 172 494 246 501 211 b 361 -64 501 29 444 -64 b 76 117 246 -64 193 117 b 22 74 46 117 22 101 b 36 24 22 56 36 42 b -3 -12 36 3 17 -12 b -40 35 -25 -12 -40 7 b 472 574 -40 179 290 400 b 417 560 456 565 438 560 b 226 631 344 560 288 631 b 133 521 182 631 150 585 l 103 524 b 264 751 150 710 211 751 b 507 642 353 751 404 642 b 565 681 547 642 565 658 b 549 722 565 697 549 707 b 583 750 549 738 561 750 b 622 710 608 750 622 732 "},"ﬁ":{"ha":806,"x_min":null,"x_max":null,"o":"m 560 1069 b 374 739 457 1069 422 899 l 372 736 l 622 736 b 742 764 658 736 711 747 l 764 751 l 586 194 b 560 94 576 163 560 114 b 585 63 560 74 567 63 b 744 251 636 63 699 150 l 778 251 b 524 -12 728 128 636 -12 b 425 76 450 -12 425 26 b 454 200 425 108 435 143 l 608 692 l 360 692 l 193 143 b -260 -306 117 -104 -57 -306 b -349 -250 -331 -306 -349 -281 b -261 -167 -349 -204 -307 -167 b -140 -219 -210 -167 -185 -219 b 47 122 -69 -219 -32 -136 l 221 692 l 99 692 l 113 736 l 235 736 l 238 747 b 639 1128 310 985 435 1128 b 817 1050 779 1128 817 1090 b 739 976 817 1017 790 976 b 560 1069 669 976 635 1069 "},"ﬂ":{"ha":811,"x_min":null,"x_max":null,"o":"m 593 63 b 753 251 644 63 707 150 l 786 251 b 532 -12 736 128 644 -12 b 433 76 458 -12 433 26 b 461 200 433 108 443 143 l 714 1018 b 543 1078 661 1033 614 1078 b 429 979 515 1078 451 1060 b 383 768 419 929 410 853 l 374 736 l 529 736 l 514 692 l 360 692 l 193 143 b -260 -306 117 -104 -57 -306 b -349 -250 -331 -306 -349 -281 b -261 -167 -349 -204 -307 -167 b -140 -219 -210 -167 -185 -219 b 47 122 -69 -219 -32 -136 l 219 692 l 99 692 l 113 736 l 233 736 l 246 776 b 656 1139 311 992 424 1139 b 750 1096 715 1139 743 1122 b 868 1151 804 1100 846 1131 l 885 1142 l 593 194 b 568 94 583 164 568 114 b 593 63 568 74 575 63 "},"⓿":{"ha":1338,"x_min":null,"x_max":null,"o":"m 622 -14 b 1333 669 1057 -14 1333 349 b 842 1122 1333 914 1172 1122 b 119 443 414 1122 119 775 b 622 -14 119 178 307 -14 m 625 210 b 465 396 521 210 465 283 b 822 900 465 629 649 900 b 985 708 926 900 985 825 b 625 210 985 475 800 210 m 625 247 b 882 763 726 247 882 549 b 826 863 882 826 864 863 b 568 347 724 863 568 558 b 625 247 568 282 588 247 "},"❶":{"ha":1339,"x_min":null,"x_max":null,"o":"m 626 -14 b 1333 665 1056 -14 1333 351 b 839 1122 1333 926 1172 1122 b 119 447 414 1122 119 772 b 626 -14 119 175 307 -14 m 711 306 b 783 243 694 254 703 243 l 774 224 l 489 224 l 499 243 b 606 306 563 243 589 254 l 746 769 b 674 794 764 826 763 832 l 676 819 l 874 901 l 886 886 "},"❷":{"ha":1338,"x_min":null,"x_max":null,"o":"m 622 -14 b 1333 669 1057 -14 1333 349 b 842 1122 1333 914 1172 1122 b 119 443 414 1122 119 775 b 622 -14 119 178 307 -14 m 422 224 l 428 243 b 853 750 647 422 853 592 b 774 819 853 793 825 819 b 597 647 697 819 632 751 l 574 647 b 850 901 618 797 728 901 b 967 797 931 901 967 860 b 554 311 967 642 746 451 l 553 306 l 747 306 b 864 400 800 306 825 340 l 886 400 l 779 224 "},"❸":{"ha":1338,"x_min":null,"x_max":null,"o":"m 622 -14 b 1333 669 1057 -14 1333 349 b 842 1122 1333 914 1172 1122 b 119 443 414 1122 119 775 b 622 -14 119 178 307 -14 m 586 210 b 456 269 521 210 456 233 b 507 318 456 296 478 318 b 608 249 554 318 544 249 b 772 444 690 249 772 333 b 642 565 772 525 724 565 l 646 586 b 844 772 772 624 844 689 b 769 839 844 814 821 839 b 632 724 706 839 658 803 l 607 724 b 826 901 646 844 728 901 b 944 794 900 901 944 864 b 742 589 944 700 854 622 l 740 583 b 879 443 815 582 879 532 b 586 210 879 322 751 210 "},"❹":{"ha":1338,"x_min":null,"x_max":null,"o":"m 622 -14 b 1333 669 1057 -14 1333 349 b 842 1122 1333 914 1172 1122 b 119 443 414 1122 119 775 b 622 -14 119 178 307 -14 m 435 401 l 457 478 l 858 899 l 932 899 l 804 478 l 881 478 l 857 401 l 781 401 l 751 306 b 810 243 735 254 740 243 l 801 224 l 551 224 l 560 243 b 658 306 618 243 643 253 l 688 401 m 501 478 l 711 478 l 815 810 l 504 481 "},"❺":{"ha":1338,"x_min":null,"x_max":null,"o":"m 622 -14 b 1333 669 1057 -14 1333 349 b 842 1122 1333 914 1172 1122 b 119 443 414 1122 119 775 b 622 -14 119 178 307 -14 m 579 208 b 450 268 510 208 450 232 b 503 318 450 293 476 318 b 600 247 551 318 543 247 b 785 524 685 247 785 396 b 710 607 785 581 754 607 b 613 564 679 607 644 593 l 588 585 l 713 876 l 971 876 l 936 797 l 729 797 l 658 625 l 663 622 b 771 658 700 647 735 658 b 893 533 839 658 893 615 b 579 208 893 364 742 208 "},"❻":{"ha":1338,"x_min":null,"x_max":null,"o":"m 622 -14 b 1333 669 1057 -14 1333 349 b 842 1122 1333 914 1172 1122 b 119 443 414 1122 119 775 b 622 -14 119 178 307 -14 m 619 208 b 460 381 517 208 460 269 b 971 899 460 585 660 856 l 975 875 b 650 629 824 840 719 742 l 653 626 b 775 678 689 658 731 678 b 904 536 861 678 904 621 b 619 208 904 414 806 208 m 619 243 b 808 550 735 243 808 454 b 744 643 808 607 788 643 b 631 585 711 643 667 622 b 553 333 589 515 553 419 b 619 243 553 278 574 243 "},"❼":{"ha":1338,"x_min":null,"x_max":null,"o":"m 622 -14 b 1333 669 1057 -14 1333 349 b 842 1122 1333 914 1172 1122 b 119 443 414 1122 119 775 b 622 -14 119 178 307 -14 m 574 208 l 493 233 l 881 797 l 681 797 b 568 706 629 797 606 778 l 554 721 l 599 806 l 636 876 l 1008 876 "},"❽":{"ha":1338,"x_min":null,"x_max":null,"o":"m 622 -14 b 1333 669 1057 -14 1333 349 b 842 1122 1333 914 1172 1122 b 119 443 414 1122 119 775 b 622 -14 119 178 307 -14 m 467 340 b 669 567 467 453 576 517 b 604 713 633 613 604 664 b 836 897 604 815 708 897 b 978 785 922 897 978 857 b 786 582 978 701 888 640 b 879 407 829 528 879 475 b 633 208 879 300 775 208 b 467 340 533 208 467 261 m 701 736 b 756 618 701 696 726 656 b 897 792 836 669 897 726 b 826 861 897 835 872 861 b 701 736 757 861 701 804 m 549 340 b 643 246 549 288 575 246 b 778 369 721 246 778 300 b 697 531 778 426 743 478 b 549 340 625 485 549 429 "},"❾":{"ha":1338,"x_min":null,"x_max":null,"o":"m 831 1125 b 119 442 396 1125 119 763 b 611 -11 119 197 281 -11 b 1333 668 1039 -11 1333 336 b 831 1125 1333 933 1146 1125 m 833 903 b 993 731 936 903 993 842 b 482 213 993 526 792 256 l 478 238 b 803 482 629 271 733 369 l 800 485 b 678 433 764 454 722 433 b 549 575 592 433 549 490 b 833 903 549 697 647 903 m 833 868 b 644 563 718 868 644 657 b 707 468 644 504 665 468 b 822 526 742 468 786 489 b 900 778 864 596 900 692 b 833 868 900 833 879 868 "},"❿":{"ha":1338,"x_min":null,"x_max":null,"o":"m 622 -14 b 1333 669 1057 -14 1333 349 b 842 1122 1333 914 1172 1122 b 119 443 414 1122 119 775 b 622 -14 119 178 307 -14 m 504 306 b 578 243 489 254 497 243 l 568 224 l 283 224 l 292 243 b 400 306 357 243 383 254 l 540 769 b 467 794 557 826 557 832 l 469 819 l 667 901 l 681 886 m 785 210 b 626 396 682 210 626 283 b 983 900 626 629 810 900 b 1144 708 1088 900 1144 825 b 785 210 1144 475 961 210 m 786 247 b 1042 763 888 247 1042 549 b 986 863 1042 826 1025 863 b 729 347 885 863 729 558 b 786 247 729 282 747 247 "},"⓫":{"ha":1338,"x_min":null,"x_max":null,"o":"m 622 -14 b 1333 669 1057 -14 1333 349 b 842 1122 1333 914 1172 1122 b 119 443 414 1122 119 775 b 622 -14 119 178 307 -14 m 553 306 b 626 243 538 254 546 243 l 617 224 l 331 224 l 340 243 b 447 306 406 243 432 254 l 589 769 b 515 794 606 826 604 832 l 518 819 l 715 901 l 729 886 m 876 306 b 950 243 861 254 869 243 l 940 224 l 656 224 l 665 243 b 772 306 729 243 756 254 l 913 769 b 839 794 931 826 929 832 l 842 819 l 1039 901 l 1053 886 "},"⓬":{"ha":1338,"x_min":null,"x_max":null,"o":"m 622 -14 b 1333 669 1057 -14 1333 349 b 842 1122 1333 914 1172 1122 b 119 443 414 1122 119 775 b 622 -14 119 178 307 -14 m 507 306 b 579 243 490 254 500 243 l 569 224 l 285 224 l 294 243 b 401 306 358 243 385 254 l 542 769 b 469 794 560 826 558 832 l 472 819 l 669 901 l 682 886 m 596 224 l 601 243 b 1026 750 821 422 1026 592 b 947 819 1026 793 999 819 b 771 647 871 819 806 751 l 747 647 b 1024 901 792 797 901 901 b 1140 797 1104 901 1140 860 b 728 311 1140 642 919 451 l 726 306 l 921 306 b 1038 400 974 306 999 340 l 1060 400 l 953 224 "},"⓭":{"ha":1338,"x_min":null,"x_max":null,"o":"m 622 -14 b 1333 669 1057 -14 1333 349 b 842 1122 1333 914 1172 1122 b 119 443 414 1122 119 775 b 622 -14 119 178 307 -14 m 510 306 b 583 243 494 254 503 243 l 572 224 l 288 224 l 297 243 b 404 306 363 243 389 254 l 546 769 b 472 794 563 826 561 832 l 475 819 l 672 901 l 685 886 m 754 210 b 624 269 689 210 624 233 b 675 318 624 296 646 318 b 776 249 724 318 713 249 b 940 444 858 249 940 333 b 811 565 940 525 892 565 l 815 586 b 1013 772 940 624 1013 689 b 938 839 1013 814 989 839 b 800 724 874 839 826 803 l 776 724 b 994 901 814 844 896 901 b 1114 794 1068 901 1114 864 b 910 589 1114 700 1022 622 l 910 583 b 1047 443 983 582 1047 532 b 754 210 1047 322 919 210 "},"⓮":{"ha":1338,"x_min":null,"x_max":null,"o":"m 622 -14 b 1333 669 1057 -14 1333 349 b 842 1122 1333 914 1172 1122 b 119 443 414 1122 119 775 b 622 -14 119 178 307 -14 m 500 306 b 572 243 485 254 493 243 l 563 224 l 278 224 l 288 243 b 394 306 351 243 379 254 l 536 769 b 463 794 553 826 551 832 l 465 819 l 663 901 l 675 886 m 614 401 l 636 478 l 1038 900 l 1113 900 l 983 478 l 1061 478 l 1038 401 l 961 401 l 931 306 b 990 243 915 254 921 243 l 982 224 l 732 224 l 740 243 b 839 306 799 243 824 254 l 868 401 m 682 478 l 892 478 l 994 810 l 683 481 "},"⓯":{"ha":1338,"x_min":null,"x_max":null,"o":"m 622 -14 b 1333 669 1057 -14 1333 349 b 842 1122 1333 914 1172 1122 b 119 443 414 1122 119 775 b 622 -14 119 178 307 -14 m 521 306 b 593 243 506 254 514 243 l 583 224 l 299 224 l 308 243 b 415 306 372 243 400 254 l 557 769 b 483 794 574 826 572 832 l 486 819 l 683 901 l 696 886 m 754 218 b 625 276 685 218 625 240 b 678 326 625 303 651 326 b 774 256 726 326 718 256 b 960 532 860 256 960 404 b 885 617 960 589 929 617 b 786 572 853 617 819 601 l 763 593 l 888 886 l 1146 886 l 1111 806 l 904 806 l 833 633 l 838 631 b 946 668 875 656 910 668 b 1068 542 1014 668 1068 624 b 754 218 1068 374 917 218 "},"⓰":{"ha":1338,"x_min":null,"x_max":null,"o":"m 622 -14 b 1333 669 1057 -14 1333 349 b 842 1122 1333 914 1172 1122 b 119 443 414 1122 119 775 b 622 -14 119 178 307 -14 m 801 213 b 642 385 699 213 642 274 b 1153 903 642 589 843 860 l 1157 879 b 832 633 1006 844 901 746 l 835 631 b 957 682 871 663 913 682 b 1086 540 1043 682 1086 625 b 801 213 1086 418 988 213 m 503 306 b 576 243 488 253 496 243 l 567 222 l 282 222 l 290 243 b 399 306 356 243 382 253 l 539 769 b 465 794 556 825 556 831 l 468 818 l 665 900 l 679 886 m 801 247 b 990 554 917 247 990 458 b 928 647 990 611 969 647 b 813 589 893 647 849 626 b 735 338 771 519 735 424 b 801 247 735 282 756 247 "},"⓱":{"ha":1338,"x_min":null,"x_max":null,"o":"m 622 -14 b 1333 669 1057 -14 1333 349 b 842 1122 1333 914 1172 1122 b 119 443 414 1122 119 775 b 622 -14 119 178 307 -14 m 519 306 b 593 243 504 254 513 243 l 582 224 l 297 224 l 307 243 b 414 306 372 243 399 253 l 556 769 b 482 794 572 826 571 832 l 485 819 l 597 865 l 682 901 l 694 886 m 756 217 l 675 240 l 1063 806 l 863 806 b 750 713 811 806 788 785 l 736 728 l 781 814 l 818 885 l 1190 885 "},"⓲":{"ha":1338,"x_min":null,"x_max":null,"o":"m 622 -14 b 1333 669 1057 -14 1333 349 b 842 1122 1333 914 1172 1122 b 119 443 414 1122 119 775 b 622 -14 119 178 307 -14 m 508 306 b 582 243 493 254 501 243 l 572 224 l 288 224 l 296 243 b 403 306 361 243 388 254 l 544 769 b 471 794 561 826 560 832 l 474 819 l 671 901 l 685 886 m 631 342 b 832 567 631 454 739 518 b 767 714 796 614 767 664 b 1000 899 767 817 871 899 b 1140 785 1086 899 1140 857 b 949 582 1140 701 1051 640 b 1042 408 993 529 1042 475 b 797 210 1042 301 939 210 b 631 342 696 210 631 263 m 864 738 b 919 618 864 696 889 656 b 1060 793 999 671 1060 728 b 989 863 1060 836 1036 863 b 864 738 919 863 864 806 m 713 342 b 806 247 713 288 738 247 b 940 369 885 247 940 300 b 860 532 940 428 906 479 b 713 342 789 485 713 431 "},"⓳":{"ha":1338,"x_min":null,"x_max":null,"o":"m 622 -14 b 1333 669 1057 -14 1333 349 b 842 1122 1333 914 1172 1122 b 119 443 414 1122 119 775 b 622 -14 119 178 307 -14 m 1013 906 b 1172 733 1115 906 1172 844 b 661 215 1172 529 972 258 l 657 239 b 982 485 808 274 913 372 l 979 488 b 857 436 943 456 901 436 b 728 578 771 436 728 493 b 1013 906 728 700 826 906 m 519 306 b 593 243 504 254 513 243 l 582 224 l 297 224 l 307 243 b 414 306 372 243 399 254 l 556 769 b 482 794 572 826 571 832 l 485 819 l 682 901 l 694 886 m 1013 871 b 824 564 897 871 824 660 b 888 471 824 507 844 471 b 1001 529 921 471 965 492 b 1079 781 1043 599 1079 694 b 1013 871 1079 836 1060 871 "},"⓴":{"ha":1338,"x_min":null,"x_max":null,"o":"m 622 -14 b 1333 669 1057 -14 1333 349 b 842 1122 1333 914 1172 1122 b 119 443 414 1122 119 775 b 622 -14 119 178 307 -14 m 232 224 l 238 243 b 642 750 447 422 642 592 b 567 819 642 793 617 819 b 399 647 494 819 432 751 l 376 647 b 640 901 419 797 524 901 b 751 797 717 901 751 860 b 358 311 751 642 542 451 l 357 306 l 542 306 b 654 400 592 306 617 340 l 675 400 l 572 224 m 868 210 b 717 396 769 210 717 283 b 1057 900 717 629 892 900 b 1211 708 1157 900 1211 825 b 868 210 1211 475 1036 210 m 869 247 b 1114 763 965 247 1114 549 b 1060 863 1114 826 1097 863 b 814 347 963 863 814 558 b 869 247 814 282 832 247 "},"⓪":{"ha":1338,"x_min":null,"x_max":null,"o":"m 622 -14 b 119 443 307 -14 119 178 b 842 1122 119 775 414 1122 b 1333 669 1172 1122 1333 914 b 622 -14 1333 349 1057 -14 m 628 18 b 1294 663 1038 18 1294 360 b 835 1090 1294 893 1147 1090 b 158 450 432 1090 158 763 b 628 18 158 199 331 18 m 628 210 b 468 396 524 210 468 283 b 825 900 468 629 651 900 b 986 708 929 900 986 825 b 628 210 986 475 803 210 m 628 247 b 885 763 729 247 885 549 b 828 863 885 826 867 863 b 571 347 726 863 571 558 b 628 247 571 282 589 247 "},"①":{"ha":1339,"x_min":null,"x_max":null,"o":"m 622 -14 b 119 443 307 -14 119 178 b 842 1122 119 775 414 1122 b 1333 669 1172 1122 1333 914 b 622 -14 1333 349 1057 -14 m 628 18 b 1294 663 1038 18 1294 360 b 835 1090 1294 893 1147 1090 b 158 450 432 1090 158 763 b 628 18 158 199 331 18 m 711 306 b 783 243 694 254 703 243 l 774 224 l 489 224 l 499 243 b 606 306 563 243 589 254 l 746 769 b 674 794 764 826 763 832 l 676 819 l 874 901 l 886 886 "},"②":{"ha":1338,"x_min":null,"x_max":null,"o":"m 622 -14 b 119 443 307 -14 119 178 b 842 1122 119 775 414 1122 b 1333 669 1172 1122 1333 914 b 622 -14 1333 349 1057 -14 m 628 18 b 1294 663 1038 18 1294 360 b 835 1090 1294 893 1147 1090 b 158 450 432 1090 158 763 b 628 18 158 199 331 18 m 422 224 l 428 243 b 853 750 647 422 853 592 b 774 819 853 793 825 819 b 597 647 697 819 632 751 l 574 647 b 850 901 618 797 728 901 b 967 797 931 901 967 860 b 554 311 967 642 746 451 l 553 306 l 747 306 b 864 400 800 306 825 340 l 886 400 l 779 224 "},"③":{"ha":1338,"x_min":null,"x_max":null,"o":"m 622 -14 b 119 443 307 -14 119 178 b 842 1122 119 775 414 1122 b 1333 669 1172 1122 1333 914 b 622 -14 1333 349 1057 -14 m 628 18 b 1294 663 1038 18 1294 360 b 835 1090 1294 893 1147 1090 b 158 450 432 1090 158 763 b 628 18 158 199 331 18 m 586 210 b 456 269 521 210 456 233 b 507 318 456 296 478 318 b 608 249 554 318 544 249 b 772 444 690 249 772 333 b 642 565 772 525 724 565 l 646 586 b 844 772 772 624 844 689 b 769 839 844 814 821 839 b 632 724 706 839 658 803 l 607 724 b 826 901 646 844 728 901 b 944 794 900 901 944 864 b 742 589 944 700 854 622 l 740 583 b 879 443 815 582 879 532 b 586 210 879 322 751 210 "},"④":{"ha":1338,"x_min":null,"x_max":null,"o":"m 622 -14 b 119 443 307 -14 119 178 b 842 1122 119 775 414 1122 b 1333 669 1172 1122 1333 914 b 622 -14 1333 349 1057 -14 m 628 18 b 1294 663 1038 18 1294 360 b 835 1090 1294 893 1147 1090 b 158 450 432 1090 158 763 b 628 18 158 199 331 18 m 435 401 l 457 478 l 858 899 l 932 899 l 804 478 l 881 478 l 857 401 l 781 401 l 751 306 b 810 243 735 254 740 243 l 801 224 l 551 224 l 560 243 b 658 306 618 243 643 253 l 688 401 m 501 478 l 711 478 l 815 810 l 504 481 "},"⑤":{"ha":1338,"x_min":null,"x_max":null,"o":"m 622 -14 b 119 443 307 -14 119 178 b 842 1122 119 775 414 1122 b 1333 669 1172 1122 1333 914 b 622 -14 1333 349 1057 -14 m 628 18 b 1294 663 1038 18 1294 360 b 835 1090 1294 893 1147 1090 b 158 450 432 1090 158 763 b 628 18 158 199 331 18 m 579 208 b 450 268 510 208 450 232 b 503 318 450 293 476 318 b 600 247 551 318 543 247 b 785 524 685 247 785 396 b 710 607 785 581 754 607 b 613 564 679 607 644 593 l 588 585 l 713 876 l 971 876 l 936 797 l 729 797 l 658 625 l 663 622 b 771 658 700 647 735 658 b 893 533 839 658 893 615 b 579 208 893 364 742 208 "},"⑥":{"ha":1338,"x_min":null,"x_max":null,"o":"m 622 -14 b 119 443 307 -14 119 178 b 842 1122 119 775 414 1122 b 1333 669 1172 1122 1333 914 b 622 -14 1333 349 1057 -14 m 628 18 b 1294 663 1038 18 1294 360 b 835 1090 1294 893 1147 1090 b 158 450 432 1090 158 763 b 628 18 158 199 331 18 m 619 208 b 460 381 517 208 460 269 b 971 899 460 585 660 856 l 975 875 b 650 629 824 840 719 742 l 653 626 b 775 678 689 658 731 678 b 904 536 861 678 904 621 b 619 208 904 414 806 208 m 619 243 b 808 550 735 243 808 454 b 744 643 808 607 788 643 b 631 585 711 643 667 622 b 553 333 589 515 553 419 b 619 243 553 278 574 243 "},"⑦":{"ha":1338,"x_min":null,"x_max":null,"o":"m 622 -14 b 119 443 307 -14 119 178 b 842 1122 119 775 414 1122 b 1333 669 1172 1122 1333 914 b 622 -14 1333 349 1057 -14 m 628 18 b 1294 663 1038 18 1294 360 b 835 1090 1294 893 1147 1090 b 158 450 432 1090 158 763 b 628 18 158 199 331 18 m 574 208 l 493 233 l 881 797 l 681 797 b 568 706 629 797 606 778 l 554 721 l 599 806 l 636 876 l 1008 876 "},"⑧":{"ha":1338,"x_min":null,"x_max":null,"o":"m 622 -14 b 119 443 307 -14 119 178 b 842 1122 119 775 414 1122 b 1333 669 1172 1122 1333 914 b 622 -14 1333 349 1057 -14 m 628 18 b 1294 663 1038 18 1294 360 b 835 1090 1294 893 1147 1090 b 158 450 432 1090 158 763 b 628 18 158 199 331 18 m 467 340 b 669 567 467 453 576 517 b 604 713 633 613 604 664 b 836 897 604 815 708 897 b 978 785 922 897 978 857 b 786 582 978 701 888 640 b 879 407 829 528 879 475 b 633 208 879 300 775 208 b 467 340 533 208 467 261 m 701 736 b 756 618 701 696 726 656 b 897 792 836 669 897 726 b 826 861 897 835 872 861 b 701 736 757 861 701 804 m 549 340 b 643 246 549 288 575 246 b 778 369 721 246 778 300 b 697 531 778 426 743 478 b 549 340 625 485 549 429 "},"⑨":{"ha":1338,"x_min":null,"x_max":null,"o":"m 831 1125 b 1333 668 1146 1125 1333 933 b 611 -11 1333 336 1039 -11 b 119 442 281 -11 119 197 b 831 1125 119 763 396 1125 m 825 1093 b 158 449 415 1093 158 751 b 618 21 158 218 306 21 b 1294 661 1021 21 1294 349 b 825 1093 1294 913 1122 1093 m 833 903 b 993 731 936 903 993 842 b 482 213 993 526 792 256 l 478 238 b 803 482 629 271 733 369 l 800 485 b 678 433 764 454 722 433 b 549 575 592 433 549 490 b 833 903 549 697 647 903 m 833 868 b 644 563 718 868 644 657 b 707 468 644 504 665 468 b 822 526 742 468 786 489 b 900 778 864 596 900 692 b 833 868 900 833 879 868 "},"⑩":{"ha":1338,"x_min":null,"x_max":null,"o":"m 622 -14 b 119 443 307 -14 119 178 b 842 1122 119 775 414 1122 b 1333 669 1172 1122 1333 914 b 622 -14 1333 349 1057 -14 m 625 18 b 1292 663 1035 18 1292 360 b 832 1090 1292 893 1144 1090 b 156 450 429 1090 156 763 b 625 18 156 199 328 18 m 515 306 b 588 243 500 254 508 243 l 578 224 l 297 224 l 307 243 b 413 306 371 243 396 254 l 551 769 b 479 794 568 826 567 832 l 482 819 l 675 901 l 689 886 m 788 210 b 635 396 688 210 635 283 b 976 900 635 629 810 900 b 1132 708 1076 900 1132 825 b 788 210 1132 475 956 210 m 788 247 b 1033 763 885 247 1033 549 b 979 863 1033 826 1017 863 b 732 347 882 863 732 558 b 788 247 732 282 750 247 "},"⑪":{"ha":1338,"x_min":null,"x_max":null,"o":"m 622 -14 b 119 443 307 -14 119 178 b 842 1122 119 775 414 1122 b 1333 669 1172 1122 1333 914 b 622 -14 1333 349 1057 -14 m 625 18 b 1292 663 1035 18 1292 360 b 832 1090 1292 893 1144 1090 b 156 450 429 1090 156 763 b 625 18 156 199 328 18 m 553 306 b 626 243 538 254 546 243 l 617 224 l 331 224 l 340 243 b 447 306 406 243 432 254 l 589 769 b 515 794 606 826 604 832 l 518 819 l 715 901 l 729 886 m 876 306 b 950 243 861 254 869 243 l 940 224 l 656 224 l 665 243 b 772 306 729 243 756 254 l 913 769 b 839 794 931 826 929 832 l 842 819 l 1039 901 l 1053 886 "},"⑫":{"ha":1338,"x_min":null,"x_max":null,"o":"m 622 -14 b 119 443 307 -14 119 178 b 842 1122 119 775 414 1122 b 1333 669 1172 1122 1333 914 b 622 -14 1333 349 1057 -14 m 625 18 b 1292 663 1035 18 1292 360 b 832 1090 1292 893 1144 1090 b 156 450 429 1090 156 763 b 625 18 156 199 328 18 m 507 306 b 579 243 490 254 500 243 l 569 224 l 285 224 l 294 243 b 401 306 358 243 385 254 l 542 769 b 469 794 560 826 558 832 l 472 819 l 669 901 l 682 886 m 596 224 l 601 243 b 1026 750 821 422 1026 592 b 947 819 1026 793 999 819 b 771 647 871 819 806 751 l 747 647 b 1024 901 792 797 901 901 b 1140 797 1104 901 1140 860 b 728 311 1140 642 919 451 l 726 306 l 921 306 b 1038 400 974 306 999 340 l 1060 400 l 953 224 "},"⑬":{"ha":1338,"x_min":null,"x_max":null,"o":"m 622 -14 b 119 443 307 -14 119 178 b 842 1122 119 775 414 1122 b 1333 669 1172 1122 1333 914 b 622 -14 1333 349 1057 -14 m 625 18 b 1292 663 1035 18 1292 360 b 832 1090 1292 893 1144 1090 b 156 450 429 1090 156 763 b 625 18 156 199 328 18 m 510 306 b 583 243 494 254 503 243 l 572 224 l 288 224 l 297 243 b 404 306 363 243 389 254 l 546 769 b 472 794 563 826 561 832 l 475 819 l 672 901 l 685 886 m 754 210 b 624 269 689 210 624 233 b 675 318 624 296 646 318 b 776 249 724 318 713 249 b 940 444 858 249 940 333 b 811 565 940 525 892 565 l 815 586 b 1013 772 940 624 1013 689 b 938 839 1013 814 989 839 b 800 724 874 839 826 803 l 776 724 b 994 901 814 844 896 901 b 1114 794 1068 901 1114 864 b 910 589 1114 700 1022 622 l 910 583 b 1047 443 983 582 1047 532 b 754 210 1047 322 919 210 "},"⑭":{"ha":1338,"x_min":null,"x_max":null,"o":"m 622 -14 b 119 443 307 -14 119 178 b 842 1122 119 775 414 1122 b 1333 669 1172 1122 1333 914 b 622 -14 1333 349 1057 -14 m 625 18 b 1292 663 1035 18 1292 360 b 832 1090 1292 893 1144 1090 b 156 450 429 1090 156 763 b 625 18 156 199 328 18 m 506 306 b 578 243 489 254 497 243 l 568 224 l 283 224 l 293 243 b 400 306 357 243 383 254 l 540 769 b 468 794 558 826 557 832 l 471 819 l 668 901 l 681 886 m 614 401 l 636 478 l 1038 900 l 1113 900 l 983 478 l 1061 478 l 1038 401 l 961 401 l 931 306 b 990 243 915 254 921 243 l 982 224 l 732 224 l 740 243 b 839 306 799 243 824 254 l 868 401 m 682 478 l 892 478 l 994 810 l 683 481 "},"⑮":{"ha":1338,"x_min":null,"x_max":null,"o":"m 622 -14 b 119 443 307 -14 119 178 b 842 1122 119 775 414 1122 b 1333 669 1172 1122 1333 914 b 622 -14 1333 349 1057 -14 m 625 18 b 1292 663 1035 18 1292 360 b 832 1090 1292 893 1144 1090 b 156 450 429 1090 156 763 b 625 18 156 199 328 18 m 521 306 b 593 243 506 254 514 243 l 583 224 l 299 224 l 308 243 b 415 306 372 243 400 254 l 557 769 b 483 794 574 826 572 832 l 486 819 l 683 901 l 696 886 m 754 218 b 625 276 685 218 625 240 b 678 326 625 303 651 326 b 774 256 726 326 718 256 b 960 532 860 256 960 404 b 885 617 960 589 929 617 b 786 572 853 617 819 601 l 763 593 l 888 886 l 1146 886 l 1111 806 l 904 806 l 833 633 l 838 631 b 946 668 875 656 910 668 b 1068 542 1014 668 1068 624 b 754 218 1068 374 917 218 "},"⑯":{"ha":1338,"x_min":null,"x_max":null,"o":"m 622 -14 b 119 443 307 -14 119 178 b 842 1122 119 775 414 1122 b 1333 669 1172 1122 1333 914 b 622 -14 1333 349 1057 -14 m 625 18 b 1292 663 1035 18 1292 360 b 832 1090 1292 893 1144 1090 b 156 450 429 1090 156 763 b 625 18 156 199 328 18 m 799 213 b 643 385 699 213 643 274 b 1143 903 643 589 839 860 l 1147 879 b 829 633 999 844 897 746 l 832 631 b 951 682 868 663 908 682 b 1078 540 1036 682 1078 625 b 799 213 1078 418 982 213 m 508 306 b 582 243 493 253 501 243 l 572 222 l 286 222 l 296 243 b 403 306 361 243 388 253 l 544 769 b 471 794 561 825 560 831 l 474 818 l 671 900 l 685 886 m 799 247 b 983 554 913 247 983 458 b 922 647 983 611 964 647 b 810 589 889 647 846 626 b 733 338 769 519 733 424 b 799 247 733 282 754 247 "},"⑰":{"ha":1338,"x_min":null,"x_max":null,"o":"m 622 -14 b 119 443 307 -14 119 178 b 842 1122 119 775 414 1122 b 1333 669 1172 1122 1333 914 b 622 -14 1333 349 1057 -14 m 625 18 b 1292 663 1035 18 1292 360 b 832 1090 1292 893 1144 1090 b 156 450 429 1090 156 763 b 625 18 156 199 328 18 m 525 306 b 599 243 510 254 518 243 l 589 224 l 303 224 l 313 243 b 419 306 378 243 404 253 l 561 769 b 488 794 578 826 576 832 l 490 819 l 603 865 l 688 901 l 701 886 m 754 217 l 675 240 l 1058 806 l 861 806 b 750 714 811 806 788 785 l 736 729 l 779 814 l 817 885 l 1185 885 "},"⑱":{"ha":1338,"x_min":null,"x_max":null,"o":"m 622 -14 b 119 443 307 -14 119 178 b 842 1122 119 775 414 1122 b 1333 669 1172 1122 1333 914 b 622 -14 1333 349 1057 -14 m 625 18 b 1292 663 1035 18 1292 360 b 832 1090 1292 893 1144 1090 b 156 450 429 1090 156 763 b 625 18 156 199 328 18 m 508 306 b 582 243 493 254 501 243 l 572 224 l 288 224 l 296 243 b 403 306 361 243 388 254 l 544 769 b 471 794 561 826 560 832 l 474 819 l 671 901 l 685 886 m 631 342 b 832 567 631 454 739 518 b 767 714 796 614 767 664 b 1000 899 767 817 871 899 b 1140 785 1086 899 1140 857 b 949 582 1140 701 1051 640 b 1042 408 993 529 1042 475 b 797 210 1042 301 939 210 b 631 342 696 210 631 263 m 864 738 b 919 618 864 696 889 656 b 1060 793 999 671 1060 728 b 989 863 1060 836 1036 863 b 864 738 919 863 864 806 m 713 342 b 806 247 713 288 738 247 b 940 369 885 247 940 300 b 860 532 940 428 906 479 b 713 342 789 485 713 431 "},"⑲":{"ha":1338,"x_min":null,"x_max":null,"o":"m 622 -14 b 119 443 307 -14 119 178 b 842 1122 119 775 414 1122 b 1333 669 1172 1122 1333 914 b 622 -14 1333 349 1057 -14 m 625 18 b 1292 663 1035 18 1292 360 b 832 1090 1292 893 1144 1090 b 156 450 429 1090 156 763 b 625 18 156 199 328 18 m 1013 906 b 1172 733 1115 906 1172 844 b 661 215 1172 529 972 258 l 657 239 b 982 485 808 274 913 372 l 979 488 b 857 436 943 456 901 436 b 728 578 771 436 728 493 b 1013 906 728 700 826 906 m 519 306 b 593 243 504 254 513 243 l 582 224 l 297 224 l 307 243 b 414 306 372 243 399 254 l 556 769 b 482 794 572 826 571 832 l 485 819 l 682 901 l 694 886 m 1013 871 b 824 564 897 871 824 660 b 888 471 824 507 844 471 b 1001 529 921 471 965 492 b 1079 781 1043 599 1079 694 b 1013 871 1079 836 1060 871 "},"⑳":{"ha":1338,"x_min":null,"x_max":null,"o":"m 622 -14 b 119 443 307 -14 119 178 b 842 1122 119 775 414 1122 b 1333 669 1172 1122 1333 914 b 622 -14 1333 349 1057 -14 m 625 18 b 1292 663 1035 18 1292 360 b 832 1090 1292 893 1144 1090 b 156 450 429 1090 156 763 b 625 18 156 199 328 18 m 240 224 l 246 243 b 653 750 457 422 653 592 b 578 819 653 793 628 819 b 408 647 504 819 442 751 l 386 647 b 651 901 429 797 533 901 b 763 797 728 901 763 860 b 367 311 763 642 551 451 l 365 306 l 551 306 b 664 400 603 306 626 340 l 685 400 l 582 224 m 865 210 b 717 396 768 210 717 283 b 1050 900 717 629 888 900 b 1201 708 1147 900 1201 825 b 865 210 1201 475 1029 210 m 865 247 b 1106 763 961 247 1106 549 b 1053 863 1106 826 1089 863 b 813 347 958 863 813 558 b 865 247 813 282 829 247 "},"⁄":{"ha":561,"x_min":null,"x_max":null,"o":"m 710 1111 l 774 1111 l -33 0 l -99 0 "},"½":{"ha":1210,"x_min":null,"x_max":null,"o":"m 346 538 b 419 475 331 486 339 475 l 410 456 l 125 456 l 135 475 b 242 538 199 475 225 486 l 382 1001 b 308 1026 400 1058 399 1064 l 311 1051 l 508 1133 l 522 1118 m 986 1111 l 1050 1111 l 243 0 l 178 0 m 594 0 l 601 19 b 1025 526 821 199 1025 368 b 947 596 1025 569 999 596 b 771 424 871 596 806 528 l 746 424 b 1024 678 792 574 901 678 b 1140 574 1103 678 1140 636 b 726 88 1140 418 919 228 l 726 82 l 921 82 b 1038 176 972 82 999 117 l 1060 176 l 951 0 "},"¼":{"ha":1090,"x_min":null,"x_max":null,"o":"m 346 538 b 419 475 331 486 339 475 l 410 456 l 125 456 l 135 475 b 242 538 199 475 225 486 l 382 1001 b 308 1026 400 1058 399 1064 l 311 1051 l 508 1133 l 522 1118 m 964 1111 l 1028 1111 l 219 0 l 154 0 m 529 178 l 551 254 l 954 676 l 1028 676 l 899 254 l 976 254 l 953 178 l 876 178 l 846 82 b 906 19 831 31 836 19 l 897 0 l 647 0 l 656 19 b 754 82 714 19 739 31 l 783 178 m 597 254 l 807 254 l 910 586 l 599 257 "},"¾":{"ha":1186,"x_min":null,"x_max":null,"o":"m 282 443 b 151 503 217 443 151 467 b 201 551 151 529 172 551 b 304 482 250 551 240 482 b 467 678 386 482 467 567 b 338 799 467 758 418 799 l 342 819 b 539 1006 467 857 539 922 b 465 1072 539 1047 515 1072 b 328 957 401 1072 353 1036 l 303 957 b 521 1135 340 1078 422 1135 b 640 1028 596 1135 640 1097 b 436 822 640 933 550 856 l 436 817 b 575 676 510 815 575 765 b 282 443 575 556 446 443 m 1051 1111 l 1115 1111 l 308 0 l 243 0 m 625 178 l 647 254 l 1049 676 l 1124 676 l 994 254 l 1071 254 l 1047 178 l 971 178 l 942 82 b 1000 19 925 31 932 19 l 992 0 l 742 0 l 750 19 b 850 82 808 19 833 31 l 878 178 m 692 254 l 901 254 l 1006 586 l 694 257 "},"⅛":{"ha":1175,"x_min":null,"x_max":null,"o":"m 346 538 b 419 475 331 486 339 475 l 410 456 l 125 456 l 135 475 b 242 538 199 475 225 486 l 382 1001 b 308 1026 400 1058 399 1064 l 311 1051 l 508 1133 l 522 1118 m 989 1111 l 1053 1111 l 246 0 l 181 0 m 626 119 b 828 344 626 232 735 296 b 763 492 792 392 763 442 b 996 676 763 594 867 676 b 1138 563 1082 676 1138 635 b 944 360 1138 479 1047 418 b 1038 186 989 307 1038 253 b 793 -12 1038 79 935 -12 b 626 119 692 -12 626 40 m 860 515 b 915 396 860 474 885 433 b 1057 571 994 449 1057 506 b 985 640 1057 614 1032 640 b 860 515 915 640 860 583 m 708 119 b 801 25 708 65 733 25 b 936 147 881 25 936 78 b 856 310 936 206 901 257 b 708 119 785 263 708 208 "},"⅜":{"ha":1275,"x_min":null,"x_max":null,"o":"m 282 443 b 151 503 217 443 151 467 b 201 551 151 529 172 551 b 304 482 250 551 240 482 b 467 678 386 482 467 567 b 338 799 467 758 418 799 l 342 819 b 539 1006 467 857 539 922 b 465 1072 539 1047 515 1072 b 328 957 401 1072 353 1036 l 303 957 b 521 1135 340 1078 422 1135 b 640 1028 596 1135 640 1097 b 436 822 640 933 550 856 l 436 817 b 575 676 510 815 575 765 b 282 443 575 556 446 443 m 1082 1111 l 1146 1111 l 339 0 l 274 0 m 728 119 b 931 344 728 232 838 296 b 864 492 894 392 864 442 b 1097 676 864 594 968 676 b 1239 563 1183 676 1239 635 b 1047 360 1239 479 1149 418 b 1139 186 1090 307 1139 253 b 894 -12 1139 79 1036 -12 b 728 119 793 -12 728 40 m 963 515 b 1017 396 963 474 986 433 b 1158 571 1097 449 1158 506 b 1088 640 1158 614 1133 640 b 963 515 1018 640 963 583 m 810 119 b 904 25 810 65 835 25 b 1039 147 982 25 1039 78 b 958 310 1039 206 1003 257 b 810 119 886 263 810 208 "},"⅝":{"ha":1244,"x_min":null,"x_max":null,"o":"m 267 443 b 136 501 196 443 136 467 b 190 551 136 528 164 551 b 286 482 238 551 231 482 b 472 758 371 482 472 629 b 397 842 472 815 442 842 b 299 799 365 842 332 826 l 275 818 l 399 1111 l 657 1111 l 624 1032 l 417 1032 l 344 860 l 350 857 b 458 893 388 881 422 893 b 581 768 526 893 581 850 b 267 443 581 599 429 443 m 1060 1111 l 1124 1111 l 315 0 l 250 0 m 696 119 b 899 344 696 232 806 296 b 833 492 863 392 833 442 b 1065 676 833 594 938 676 b 1207 563 1153 676 1207 635 b 1015 360 1207 479 1117 418 b 1108 186 1058 307 1108 253 b 863 -12 1108 79 1004 -12 b 696 119 763 -12 696 40 m 931 515 b 985 396 931 474 956 433 b 1126 571 1065 449 1126 506 b 1056 640 1126 614 1101 640 b 931 515 986 640 931 583 m 778 119 b 872 25 778 65 804 25 b 1007 147 950 25 1007 78 b 926 310 1007 206 972 257 b 778 119 856 263 778 208 "},"⅞":{"ha":1172,"x_min":null,"x_max":null,"o":"m 978 1111 l 1042 1111 l 235 0 l 169 0 m 272 443 l 192 468 l 579 1032 l 379 1032 b 267 939 328 1032 304 1011 l 253 954 l 297 1040 l 335 1111 l 707 1111 m 624 119 b 826 344 624 232 733 296 b 761 492 790 392 761 442 b 993 676 761 594 864 676 b 1135 563 1079 676 1135 635 b 943 360 1135 479 1044 418 b 1035 186 986 307 1035 253 b 790 -12 1035 79 932 -12 b 624 119 689 -12 624 40 m 858 515 b 913 396 858 474 882 433 b 1054 571 993 449 1054 506 b 983 640 1054 614 1029 640 b 858 515 914 640 858 583 m 706 119 b 800 25 706 65 731 25 b 935 147 878 25 935 78 b 854 310 935 206 900 257 b 706 119 782 263 706 208 "},".":{"ha":278,"x_min":null,"x_max":null,"o":"m 25 -17 b -42 46 -14 -17 -42 10 b 58 147 -42 96 4 147 b 124 85 99 147 124 121 b 25 -17 124 36 79 -17 "},",":{"ha":317,"x_min":null,"x_max":null,"o":"m -71 -144 b 82 1 21 -112 74 -56 b 35 -10 65 -7 47 -10 b -28 56 -4 -10 -28 19 b 68 147 -28 101 6 147 b 153 49 115 147 153 117 b -60 -175 153 -22 86 -125 "},":":{"ha":278,"x_min":null,"x_max":null,"o":"m 210 583 b 143 644 169 583 143 608 b 243 746 143 694 189 746 b 308 685 283 746 308 721 b 210 583 308 635 263 583 m 26 -17 b -40 46 -14 -17 -40 10 b 60 147 -40 96 6 147 b 125 85 100 147 125 121 b 26 -17 125 36 79 -17 "},";":{"ha":317,"x_min":null,"x_max":null,"o":"m 211 583 b 144 644 171 583 144 608 b 243 746 144 694 190 746 b 310 685 285 746 310 721 b 211 583 310 635 264 583 m -71 -144 b 82 1 21 -112 74 -56 b 35 -10 65 -7 47 -10 b -28 56 -4 -10 -28 19 b 68 147 -28 101 6 147 b 153 49 115 147 153 117 b -60 -175 153 -22 86 -125 "},"…":{"ha":921,"x_min":null,"x_max":null,"o":"m 25 -17 b -42 46 -14 -17 -42 10 b 58 147 -42 96 4 147 b 124 85 99 147 124 121 b 25 -17 124 36 79 -17 m 347 -17 b 281 46 308 -17 281 10 b 381 147 281 96 326 147 b 446 85 421 147 446 121 b 347 -17 446 36 401 -17 m 669 -17 b 603 46 631 -17 603 10 b 703 147 603 96 649 147 b 768 85 743 147 768 121 b 669 -17 768 36 724 -17 "},"!":{"ha":301,"x_min":null,"x_max":null,"o":"m 286 1044 b 381 1139 306 1108 335 1139 b 436 1083 418 1139 436 1118 b 428 1033 436 1071 435 1057 b 140 275 397 932 286 743 l 108 275 b 286 1044 246 739 253 942 m 36 -17 b -29 46 -3 -17 -29 10 b 69 147 -29 96 17 147 b 135 85 110 147 135 121 b 36 -17 135 36 90 -17 "},"¡":{"ha":301,"x_min":null,"x_max":null,"o":"m 260 756 b 325 694 299 756 325 731 b 226 593 325 644 281 593 b 161 654 186 593 161 618 b 260 756 161 704 206 756 m 11 -304 b -85 -400 -10 -369 -39 -400 b -140 -344 -122 -400 -140 -379 b -132 -294 -140 -332 -139 -317 b 156 465 -101 -193 10 -4 l 189 465 b 11 -304 50 0 43 -203 "},"?":{"ha":531,"x_min":null,"x_max":null,"o":"m 242 872 l 276 1101 b 446 1139 311 1121 379 1139 b 644 963 572 1139 644 1076 b 407 647 644 833 553 757 b 213 443 288 558 213 501 b 274 358 213 415 225 388 l 254 332 b 136 479 182 369 136 417 b 344 742 136 581 219 650 b 538 983 481 843 538 903 b 443 1076 538 1038 508 1076 b 272 872 367 1076 313 1029 m 171 -17 b 104 46 132 -17 104 10 b 204 147 104 96 150 147 b 269 85 244 147 269 121 b 171 -17 269 36 225 -17 "},"¿":{"ha":532,"x_min":null,"x_max":null,"o":"m 361 756 b 428 694 401 756 428 731 b 329 593 428 644 382 593 b 264 654 289 593 264 618 b 361 756 264 704 308 756 m 292 -133 l 257 -361 b 86 -400 222 -381 154 -400 b -112 -222 -39 -400 -112 -336 b 125 92 -112 -93 -21 -18 b 321 297 244 182 321 238 b 260 382 321 325 307 351 l 278 408 b 397 260 351 369 397 324 b 189 -1 397 158 314 89 b -6 -243 53 -103 -6 -162 b 90 -337 -6 -299 25 -337 b 261 -133 165 -337 221 -290 "},"·":{"ha":276,"x_min":null,"x_max":null,"o":"m 176 479 b 111 540 138 479 111 504 b 210 642 111 590 156 642 b 275 581 250 642 275 617 b 176 479 275 531 231 479 "},"•":{"ha":435,"x_min":null,"x_max":null,"o":"m 239 342 b 96 476 153 342 96 397 b 310 694 96 583 194 694 b 451 561 397 694 451 639 b 239 342 451 454 354 342 "},"*":{"ha":579,"x_min":null,"x_max":null,"o":"m 335 569 b 289 617 308 569 289 590 b 407 838 289 683 353 690 b 210 694 296 781 281 729 b 175 683 193 686 182 683 b 128 732 143 683 128 706 b 182 796 128 763 151 785 b 401 853 240 818 292 806 b 279 896 353 882 313 889 b 199 951 236 901 199 911 b 279 1026 199 994 240 1026 b 350 957 315 1026 338 988 b 415 868 361 931 376 901 b 421 1015 433 939 421 976 b 504 1139 421 1081 446 1139 b 551 1092 536 1139 551 1121 b 433 868 551 1025 471 975 b 597 988 525 917 554 958 b 668 1026 621 1008 642 1026 b 713 981 697 1026 713 1006 b 621 907 713 938 676 915 b 439 853 574 890 532 896 b 549 814 483 826 518 818 b 642 757 594 808 642 799 b 624 713 642 742 635 725 b 565 682 608 694 586 682 b 492 750 526 682 504 719 b 425 836 479 775 465 806 b 413 736 413 789 413 760 b 415 644 413 700 419 674 b 335 569 410 600 378 569 "},"#":{"ha":1118,"x_min":null,"x_max":null,"o":"m 1122 742 l 913 742 l 810 388 l 1025 388 l 1025 294 l 783 294 l 690 -28 l 594 -28 l 688 294 l 400 294 l 307 -28 l 211 -28 l 304 294 l 115 294 l 115 388 l 331 388 l 433 742 l 213 742 l 213 835 l 460 835 l 547 1139 l 643 1139 l 556 835 l 843 835 l 931 1139 l 1026 1139 l 939 835 l 1122 835 m 714 388 l 817 742 l 529 742 l 426 388 "},"/":{"ha":467,"x_min":null,"x_max":null,"o":"m 550 1147 l 646 1147 l 35 -22 l -61 -22 "},"\\":{"ha":597,"x_min":null,"x_max":null,"o":"m 344 1151 l 469 -22 l 375 -22 l 249 1151 "},"(":{"ha":536,"x_min":null,"x_max":null,"o":"m 274 -343 b 40 129 142 -240 40 -86 b 717 1204 40 538 338 1021 l 718 1175 b 186 49 440 972 186 433 b 288 -314 186 -94 219 -221 "},")":{"ha":536,"x_min":null,"x_max":null,"o":"m 276 1204 b 510 732 407 1101 510 947 b -167 -343 510 324 213 -160 l -168 -314 b 364 813 110 -111 364 429 b 263 1175 364 956 331 1082 "},"{":{"ha":558,"x_min":null,"x_max":null,"o":"m 285 -343 b 50 -151 153 -331 50 -283 b 218 332 50 28 218 194 b 68 456 218 429 157 456 l 78 489 b 329 742 294 490 310 593 b 368 942 336 803 346 869 b 739 1204 418 1096 533 1183 l 729 1172 b 485 861 524 1132 499 996 b 189 471 469 622 418 485 l 188 465 b 350 297 263 457 350 411 b 171 -182 350 138 171 -22 b 294 -310 171 -244 203 -294 "},"}":{"ha":557,"x_min":null,"x_max":null,"o":"m 306 1204 b 539 1013 436 1192 539 1144 b 371 529 539 833 371 667 b 522 406 371 432 433 406 l 511 372 b 261 121 296 371 279 268 b 221 -81 253 58 243 -8 b -149 -343 171 -235 57 -322 l -139 -311 b 106 0 65 -271 90 -135 b 400 390 119 239 171 376 l 401 396 b 240 564 326 404 240 450 b 418 1043 240 724 418 883 b 296 1171 418 1106 388 1156 "},"[":{"ha":410,"x_min":null,"x_max":null,"o":"m -146 -347 l 329 1208 l 624 1208 l 607 1151 l 469 1151 l 28 -290 l 167 -290 l 149 -347 "},"]":{"ha":410,"x_min":null,"x_max":null,"o":"m 565 1208 l 90 -347 l -204 -347 l -187 -290 l -50 -290 l 392 1151 l 254 1151 l 271 1208 "},"-":{"ha":590,"x_min":null,"x_max":null,"o":"m 57 325 l 88 425 l 557 425 l 526 325 "},"–":{"ha":846,"x_min":null,"x_max":null,"o":"m 7 325 l 38 425 l 854 425 l 824 325 "},"—":{"ha":1646,"x_min":null,"x_max":null,"o":"m -3 325 l 29 425 l 1663 425 l 1632 325 "},"_":{"ha":953,"x_min":null,"x_max":null,"o":"m 781 -199 l -174 -199 l -151 -125 l 801 -125 "},"‚":{"ha":319,"x_min":null,"x_max":null,"o":"m 4 -19 b -56 46 -31 -19 -56 6 b 51 143 -56 103 -8 143 b 149 42 106 143 149 108 b -89 -217 149 -68 56 -156 l -101 -186 b 75 -8 -17 -147 75 -69 b 65 4 75 0 71 4 b 4 -19 51 4 39 -19 "},"„":{"ha":581,"x_min":null,"x_max":null,"o":"m 4 -19 b -56 46 -31 -19 -56 6 b 51 143 -56 103 -8 143 b 149 42 106 143 149 108 b -89 -217 149 -68 56 -156 l -101 -186 b 75 -8 -17 -147 75 -69 b 65 4 75 0 71 4 b 4 -19 51 4 39 -19 m 267 -19 b 207 46 232 -19 207 6 b 313 143 207 103 254 143 b 411 42 367 143 411 108 b 172 -217 411 -68 317 -156 l 161 -186 b 336 -8 246 -147 336 -69 b 326 4 336 0 332 4 b 267 -19 313 4 300 -19 "},"“":{"ha":532,"x_min":null,"x_max":null,"o":"m 343 924 b 401 858 378 924 401 899 b 296 761 401 803 356 761 b 199 863 242 761 199 796 b 436 1121 199 972 292 1061 l 449 1092 b 272 913 364 1051 272 975 b 282 901 272 904 276 901 b 343 924 296 901 308 924 m 604 924 b 664 858 639 924 664 899 b 558 761 664 803 617 761 b 460 863 504 761 460 796 b 697 1121 460 972 553 1061 l 710 1092 b 533 913 625 1051 533 975 b 543 901 533 904 538 901 b 604 924 557 901 569 924 "},"”":{"ha":532,"x_min":null,"x_max":null,"o":"m 279 956 b 219 1022 244 956 219 982 b 325 1119 219 1078 267 1119 b 424 1018 379 1119 424 1085 b 186 760 424 908 331 819 l 174 789 b 349 967 258 829 349 906 b 340 979 349 976 346 979 b 279 956 325 979 313 956 m 540 956 b 481 1022 506 956 481 982 b 588 1119 481 1078 528 1119 b 685 1018 642 1119 685 1085 b 447 760 685 908 592 819 l 435 789 b 611 967 519 829 611 906 b 601 979 611 976 607 979 b 540 956 588 979 575 956 "},"‘":{"ha":269,"x_min":null,"x_max":null,"o":"m 343 924 b 401 858 378 924 401 899 b 296 761 401 803 356 761 b 199 863 242 761 199 796 b 436 1121 199 972 292 1061 l 449 1092 b 272 913 364 1051 272 975 b 282 901 272 904 276 901 b 343 924 296 901 308 924 "},"’":{"ha":271,"x_min":null,"x_max":null,"o":"m 279 956 b 219 1022 244 956 219 982 b 325 1119 219 1078 267 1119 b 424 1018 379 1119 424 1085 b 186 760 424 908 331 819 l 174 789 b 349 967 258 829 349 906 b 340 979 349 976 346 979 b 279 956 325 979 313 956 "},"«":{"ha":617,"x_min":null,"x_max":null,"o":"m 192 407 l 257 68 l 228 68 l 71 407 l 403 742 l 439 742 m 421 407 l 485 68 l 456 68 l 299 407 l 632 742 l 667 742 "},"»":{"ha":617,"x_min":null,"x_max":null,"o":"m 218 404 l 154 743 l 183 743 l 340 404 l 7 69 l -28 69 m 447 404 l 382 743 l 411 743 l 568 404 l 236 69 l 200 69 "},"‹":{"ha":389,"x_min":null,"x_max":null,"o":"m 192 407 l 257 68 l 228 68 l 71 407 l 403 742 l 439 742 "},"›":{"ha":389,"x_min":null,"x_max":null,"o":"m 218 403 l 154 742 l 183 742 l 340 403 l 7 68 l -28 68 "},"\"":{"ha":467,"x_min":null,"x_max":null,"o":"m 257 1065 b 328 1139 271 1114 294 1139 b 371 1057 369 1139 388 1110 b 239 756 346 976 297 892 l 207 758 b 257 1065 232 896 231 979 m 467 1065 b 539 1139 482 1114 506 1139 b 581 1057 581 1139 597 1110 b 449 756 557 976 508 892 l 418 758 b 467 1065 442 896 442 979 "},"'":{"ha":231,"x_min":null,"x_max":null,"o":"m 250 1065 b 321 1139 264 1114 289 1139 b 364 1057 363 1139 381 1110 b 232 756 340 976 290 892 l 200 758 b 250 1065 225 896 224 979 "},"¢":{"ha":563,"x_min":null,"x_max":null,"o":"m 446 471 b 404 493 428 471 413 479 l 183 118 b 253 71 197 89 219 71 b 469 281 329 71 407 157 l 500 281 b 196 -19 424 92 315 -19 b 114 1 165 -19 138 -12 l -68 -306 l -114 -306 l 82 26 b 22 207 44 65 22 128 b 418 758 22 454 215 758 b 500 733 450 758 478 750 l 724 1111 l 771 1111 l 528 701 b 547 629 540 682 547 658 b 446 471 547 551 501 471 m 163 232 b 167 169 163 210 164 189 l 467 676 b 417 704 460 693 444 704 b 163 232 283 704 163 425 "},"¤":{"ha":911,"x_min":null,"x_max":null,"o":"m 815 597 b 685 313 815 497 765 392 l 778 178 l 703 121 l 611 253 b 408 190 551 214 482 190 b 238 254 338 190 278 214 l 64 119 l 15 186 l 190 321 b 172 414 179 349 172 381 b 303 700 172 514 222 621 l 211 832 l 286 889 l 376 758 b 578 821 436 797 506 821 b 753 754 651 821 713 796 l 928 889 l 976 822 l 799 685 b 815 597 810 658 815 629 m 265 431 b 424 279 265 343 322 279 b 722 581 588 279 722 435 b 564 732 722 668 664 732 b 265 431 399 732 265 576 "},"$":{"ha":739,"x_min":null,"x_max":null,"o":"m 604 1078 b 797 985 683 1065 754 1028 l 736 785 l 703 785 b 719 883 714 821 719 854 b 589 1028 719 963 674 1015 l 464 618 b 649 322 574 517 649 436 b 268 -25 649 158 511 -21 l 235 -132 l 189 -132 l 222 -24 b -11 68 113 -15 33 31 l 67 340 l 100 340 b 79 215 86 293 79 251 b 239 32 79 100 144 40 l 381 496 l 375 501 b 204 778 265 597 204 676 b 544 1083 204 939 328 1083 l 560 1083 l 589 1178 l 635 1178 m 331 832 b 429 653 331 775 360 724 l 544 1031 b 331 832 403 1028 331 931 m 515 258 b 415 461 515 331 479 394 l 285 31 b 515 258 440 40 515 151 "},"€":{"ha":911,"x_min":null,"x_max":null,"o":"m 743 1139 b 979 1036 857 1139 931 1097 l 900 769 l 869 769 b 774 1082 918 943 919 1082 b 385 654 604 1082 467 874 l 722 654 l 692 607 l 367 607 b 340 518 357 578 347 547 l 639 518 l 608 471 l 328 471 b 297 257 308 389 297 314 b 444 51 297 128 347 51 b 822 414 588 51 722 185 l 856 415 b 390 -25 753 151 610 -25 b 143 281 229 -25 143 94 b 167 471 143 338 151 403 l 69 471 l 99 518 l 178 518 b 206 607 186 547 194 578 l 110 607 l 140 654 l 222 654 b 743 1139 321 904 506 1139 "},"£":{"ha":840,"x_min":null,"x_max":null,"o":"m 726 1139 b 896 972 849 1139 896 1060 b 804 846 896 906 860 846 b 747 896 769 846 747 867 b 790 1018 747 944 790 974 b 721 1083 790 1060 771 1083 b 513 779 624 1083 550 971 b 469 567 499 710 486 639 l 675 567 l 658 521 l 458 521 b 451 493 457 511 454 503 b 325 158 421 376 381 254 b 521 108 381 133 442 108 b 754 328 639 108 710 194 l 792 328 b 479 -26 743 164 657 -26 b 265 75 386 -26 324 26 b 65 -26 211 13 146 -26 b -43 63 -10 -26 -43 7 b 143 211 -43 143 38 211 b 226 197 172 211 200 206 b 307 515 256 279 281 386 l 308 521 l 164 521 l 181 567 l 318 567 b 726 1139 379 844 479 1139 m 71 33 b 196 126 124 33 163 67 b 115 153 171 143 144 153 b 22 75 57 153 22 117 b 71 33 22 50 38 33 "},"¥":{"ha":896,"x_min":null,"x_max":null,"o":"m 1119 1078 b 953 997 1056 1078 1007 1069 l 624 563 l 917 563 l 903 515 l 588 515 l 571 493 l 540 394 l 864 394 l 850 347 l 526 347 l 461 138 b 571 33 436 56 439 33 l 560 0 l 133 0 l 143 33 b 308 138 247 33 283 56 l 374 347 l 60 347 l 74 394 l 388 394 l 417 489 l 411 515 l 111 515 l 125 563 l 403 563 l 328 971 b 211 1078 311 1058 285 1078 l 221 1111 l 610 1111 l 599 1078 b 483 969 479 1078 469 1053 l 553 569 l 560 569 l 879 996 b 813 1078 931 1064 944 1078 l 824 1111 l 1128 1111 "},"+":{"ha":686,"x_min":null,"x_max":null,"o":"m 69 367 l 100 465 l 329 465 l 403 701 l 508 701 l 436 465 l 664 465 l 633 367 l 406 367 l 333 132 l 228 132 l 299 367 "},"−":{"ha":663,"x_min":null,"x_max":null,"o":"m 69 365 l 100 467 l 642 467 l 611 365 "},"×":{"ha":644,"x_min":null,"x_max":null,"o":"m 631 567 l 418 394 l 553 233 l 471 165 l 336 328 l 135 165 l 71 239 l 272 403 l 132 572 l 213 640 l 354 469 l 564 640 "},"÷":{"ha":663,"x_min":null,"x_max":null,"o":"m 421 599 b 367 649 388 599 367 619 b 447 731 367 689 404 731 b 500 681 481 731 500 710 b 421 599 500 640 464 599 m 69 365 l 100 467 l 642 467 l 611 365 m 269 104 b 215 156 238 104 215 125 b 296 238 215 196 253 238 b 350 188 329 238 350 217 b 269 104 350 147 313 104 "},"=":{"ha":617,"x_min":null,"x_max":null,"o":"m 114 493 l 144 594 l 614 594 l 583 493 m 51 240 l 82 340 l 551 340 l 521 240 "},"≠":{"ha":617,"x_min":null,"x_max":null,"o":"m 646 804 l 488 594 l 614 594 l 583 493 l 411 493 l 296 340 l 551 340 l 521 240 l 221 240 l 75 47 l 21 47 l 167 240 l 51 240 l 82 340 l 242 340 l 356 493 l 114 493 l 144 594 l 432 594 l 590 804 "},">":{"ha":651,"x_min":null,"x_max":null,"o":"m 25 194 l 64 310 l 514 438 l 515 444 l 131 569 l 167 668 l 624 507 l 578 356 "},"<":{"ha":651,"x_min":null,"x_max":null,"o":"m 664 668 l 625 551 l 175 425 l 174 418 l 558 293 l 522 194 l 67 356 l 111 507 "},"≥":{"ha":651,"x_min":null,"x_max":null,"o":"m 54 286 l 93 403 l 543 531 l 544 536 l 160 661 l 196 760 l 651 599 l 607 447 m 10 147 l 40 250 l 533 250 l 501 147 "},"≤":{"ha":657,"x_min":null,"x_max":null,"o":"m 692 760 l 653 644 l 203 517 l 201 511 l 586 385 l 550 286 l 94 449 l 139 599 m 17 147 l 49 250 l 540 250 l 508 147 "},"±":{"ha":706,"x_min":null,"x_max":null,"o":"m 101 469 l 131 568 l 361 568 l 433 804 l 540 804 l 468 568 l 694 568 l 665 469 l 436 469 l 365 235 l 258 235 l 331 469 m 7 122 l 43 224 l 618 224 l 581 122 "},"≈":{"ha":860,"x_min":null,"x_max":null,"o":"m 881 667 b 644 453 833 535 747 453 b 308 567 500 453 440 567 b 129 453 233 567 168 533 l 96 456 b 331 671 143 589 229 671 b 667 556 475 671 535 556 b 846 671 742 556 807 590 m 800 403 b 565 189 754 271 667 189 b 229 303 421 189 360 303 b 49 189 153 303 88 269 l 17 192 b 251 407 63 325 149 407 b 586 292 394 407 454 292 b 767 407 663 292 726 326 "},"~":{"ha":858,"x_min":null,"x_max":null,"o":"m 840 535 b 606 321 793 403 707 321 b 268 435 461 321 400 435 b 89 321 193 435 128 401 l 56 324 b 292 539 103 457 189 539 b 626 424 435 539 494 424 b 807 539 703 424 767 458 "},"¬":{"ha":760,"x_min":null,"x_max":null,"o":"m 78 619 l 767 619 l 642 213 l 539 213 l 632 517 l 44 517 "},"^":{"ha":803,"x_min":null,"x_max":null,"o":"m 122 540 l 568 1111 l 688 1111 l 785 540 l 681 540 l 606 1008 l 594 1008 l 235 540 "},"∅":{"ha":904,"x_min":null,"x_max":null,"o":"m 835 769 l 721 656 b 804 428 772 594 804 514 b 451 75 804 233 646 75 b 224 160 364 75 285 107 l 110 46 l 69 86 l 183 200 b 100 428 132 261 100 340 b 451 781 100 622 257 781 b 681 696 539 781 618 749 l 794 810 m 157 428 b 224 240 157 357 182 292 l 639 656 b 451 722 588 697 522 722 b 157 428 289 722 157 590 m 747 428 b 679 615 747 499 722 564 l 264 200 b 451 133 315 158 381 133 b 747 428 614 133 747 265 "},"∞":{"ha":1299,"x_min":null,"x_max":null,"o":"m 1021 822 b 1275 568 1165 822 1275 731 b 1019 303 1275 403 1164 303 b 703 496 886 303 804 386 b 369 331 567 375 469 331 b 140 556 221 331 140 429 b 374 794 140 699 240 794 b 668 621 497 794 583 711 b 1021 822 803 747 892 822 m 1019 369 b 1218 569 1132 369 1218 453 b 1047 746 1218 676 1147 746 b 761 550 942 746 882 668 l 747 536 b 1019 369 839 440 917 369 m 346 407 b 622 579 428 407 490 454 b 374 729 522 682 456 729 b 197 556 268 729 197 651 b 346 407 197 475 249 407 "},"∫":{"ha":681,"x_min":null,"x_max":null,"o":"m 363 33 b 61 -250 315 -146 217 -250 b -81 -142 -29 -250 -81 -206 b 4 -39 -81 -87 -44 -39 b 49 -79 35 -39 49 -56 b 85 -193 49 -111 15 -193 b 232 7 151 -193 201 -106 b 371 881 301 258 283 599 b 676 1167 426 1060 526 1167 b 815 1058 764 1167 815 1122 b 729 956 815 1004 781 956 b 686 1000 699 956 686 971 b 653 1110 686 1035 722 1110 b 501 904 585 1110 539 1025 b 363 33 410 608 436 294 "},"∏":{"ha":1171,"x_min":null,"x_max":null,"o":"m 1314 1096 b 1147 992 1207 1096 1172 1072 l 814 -94 b 917 -199 789 -176 792 -199 l 907 -232 l 493 -232 l 503 -199 b 669 -94 610 -199 646 -176 l 1026 1072 l 579 1072 l 222 -94 b 325 -199 197 -176 200 -199 l 315 -232 l -99 -232 l -89 -199 b 78 -94 18 -199 54 -176 l 411 992 b 308 1096 436 1072 433 1096 l 318 1129 l 1324 1129 "},"∑":{"ha":1001,"x_min":null,"x_max":null,"o":"m 1081 1129 l 1072 1089 l 1028 893 l 999 914 b 925 1071 1031 1054 1010 1071 l 443 1071 l 658 544 l 38 -99 l 579 -99 b 790 132 664 -99 706 -56 l 814 104 l 714 -119 l 663 -233 l -137 -233 l -128 -200 l 521 474 l 522 478 l 269 1096 l 279 1129 "},"√":{"ha":978,"x_min":null,"x_max":null,"o":"m 1214 1232 l 346 -86 l 297 -86 l 276 635 l 72 553 l 69 603 l 424 746 l 432 135 l 436 135 l 1157 1232 "},"∂":{"ha":803,"x_min":null,"x_max":null,"o":"m 450 1125 b 725 568 642 1125 743 929 b 356 -14 707 210 576 -14 b 71 336 189 -14 71 121 b 407 722 71 539 193 722 b 674 556 556 722 636 629 b 428 1010 685 907 560 1010 b 203 876 346 1010 264 976 l 172 876 b 450 1125 222 1010 303 1125 m 372 47 b 671 500 535 47 650 239 b 465 661 632 589 567 661 b 214 293 303 661 214 456 b 372 47 214 143 271 47 "},"%":{"ha":1068,"x_min":null,"x_max":null,"o":"m 324 569 b 197 728 243 569 197 635 b 486 1139 197 894 340 1139 b 613 981 567 1139 613 1074 b 324 569 613 813 469 569 m 949 1111 l 1013 1111 l 204 0 l 139 0 m 322 606 b 533 1029 418 606 533 897 b 488 1101 533 1079 517 1101 b 276 678 392 1101 276 811 b 322 606 276 629 293 606 m 700 -19 b 572 140 619 -19 572 47 b 861 551 572 307 717 551 b 989 392 942 551 989 485 b 700 -19 989 225 844 -19 m 699 18 b 910 442 794 18 910 308 b 863 514 910 490 893 514 b 651 90 767 514 651 224 b 699 18 651 42 668 18 "},"‰":{"ha":1538,"x_min":null,"x_max":null,"o":"m 324 569 b 197 728 243 569 197 635 b 486 1139 197 894 340 1139 b 613 981 567 1139 613 1074 b 324 569 613 813 469 569 m 949 1111 l 1013 1111 l 204 0 l 139 0 m 322 606 b 533 1029 418 606 533 897 b 488 1101 533 1079 517 1101 b 276 678 392 1101 276 811 b 322 606 276 629 293 606 m 700 -19 b 572 140 619 -19 572 47 b 861 551 572 307 717 551 b 989 392 942 551 989 485 b 700 -19 989 225 844 -19 m 1168 -19 b 1040 140 1088 -19 1040 47 b 1329 551 1040 307 1185 551 b 1457 392 1410 551 1457 485 b 1168 -19 1457 225 1314 -19 m 699 18 b 910 442 794 18 910 308 b 863 514 910 490 893 514 b 651 90 767 514 651 224 b 699 18 651 42 668 18 m 1167 18 b 1378 442 1263 18 1378 308 b 1332 514 1378 490 1361 514 b 1119 90 1235 514 1119 224 b 1167 18 1119 42 1138 18 "},"↑":{"ha":792,"x_min":null,"x_max":null,"o":"m 436 -87 l 356 -87 l 356 617 b 382 844 356 711 382 763 l 378 844 b 143 569 306 682 225 622 l 75 647 b 372 960 221 726 304 810 l 421 960 b 717 647 489 810 571 726 l 650 569 b 414 844 567 622 486 682 l 410 844 b 436 617 410 763 436 711 "},"↗":{"ha":932,"x_min":null,"x_max":null,"o":"m 135 -11 l 78 47 l 575 544 b 754 686 642 611 696 628 l 751 689 b 390 661 586 626 488 640 l 399 764 b 829 775 558 717 675 717 l 864 742 b 853 310 806 586 806 469 l 749 303 b 776 664 729 399 714 499 l 774 667 b 632 486 717 608 699 553 "},"→":{"ha":1186,"x_min":null,"x_max":null,"o":"m 69 335 l 69 415 l 774 415 b 1000 389 868 415 918 389 l 1000 393 b 725 629 839 465 779 546 l 804 696 b 1117 400 883 550 967 468 l 1117 351 b 804 54 967 283 883 200 l 725 122 b 1000 357 779 204 839 285 l 1000 361 b 774 335 918 361 867 335 "},"↘":{"ha":932,"x_min":null,"x_max":null,"o":"m 135 761 l 632 264 b 774 83 699 197 717 142 l 776 86 b 749 447 714 251 729 351 l 853 440 b 864 8 806 281 806 164 l 829 -25 b 399 -14 675 33 558 33 l 390 89 b 751 61 488 110 586 124 l 754 64 b 575 206 696 122 642 139 l 78 703 "},"↓":{"ha":792,"x_min":null,"x_max":null,"o":"m 436 872 l 436 168 b 410 -60 436 74 410 22 l 414 -60 b 650 215 486 103 567 163 l 717 138 b 421 -175 571 58 489 -25 l 372 -175 b 75 138 304 -25 221 58 l 143 215 b 378 -60 225 163 306 103 l 382 -60 b 356 168 382 22 356 74 l 356 872 "},"↙":{"ha":932,"x_min":null,"x_max":null,"o":"m 796 761 l 854 703 l 357 206 b 176 64 290 139 235 122 l 181 61 b 540 89 346 124 444 110 l 533 -14 b 103 -25 374 33 257 33 l 68 8 b 79 440 126 164 126 281 l 182 447 b 154 86 203 351 218 251 l 157 83 b 299 264 215 142 232 197 "},"←":{"ha":1186,"x_min":null,"x_max":null,"o":"m 1117 335 l 413 335 b 186 361 318 335 268 361 l 186 357 b 461 122 347 285 407 204 l 382 54 b 69 351 303 200 219 283 l 69 400 b 382 696 219 468 303 550 l 461 629 b 186 393 407 546 347 465 l 186 389 b 413 415 268 389 318 415 l 1117 415 "},"↖":{"ha":932,"x_min":null,"x_max":null,"o":"m 796 -11 l 299 486 b 157 667 232 553 215 608 l 154 664 b 182 303 218 499 203 399 l 79 310 b 68 742 126 469 126 586 l 103 775 b 533 764 257 717 374 717 l 540 661 b 181 689 444 640 346 626 l 176 686 b 357 544 235 628 290 611 l 854 47 "},"↔":{"ha":1603,"x_min":null,"x_max":null,"o":"m 1221 696 b 1533 400 1300 550 1383 468 l 1533 351 b 1221 54 1383 283 1300 200 l 1142 122 b 1417 357 1196 204 1256 285 l 1417 361 b 1190 335 1335 361 1283 335 l 413 335 b 186 361 318 335 268 361 l 186 357 b 461 122 347 285 407 204 l 382 54 b 69 351 303 200 219 283 l 69 400 b 382 696 219 468 303 550 l 461 629 b 186 393 407 546 347 465 l 186 389 b 413 415 268 389 318 415 l 1190 415 b 1417 389 1285 415 1335 389 l 1417 393 b 1142 629 1256 465 1196 546 "},"↕":{"ha":782,"x_min":null,"x_max":null,"o":"m 408 -244 b 644 31 481 -83 561 -24 l 713 -49 b 415 -361 565 -128 483 -211 l 367 -361 b 69 -49 299 -211 215 -128 l 138 31 b 372 -244 219 -24 300 -83 l 376 -244 b 350 -18 376 -162 350 -112 l 350 760 b 376 986 350 853 376 904 l 372 986 b 138 711 300 825 219 765 l 69 790 b 367 1103 215 869 299 953 l 415 1103 b 713 790 483 953 565 869 l 644 711 b 408 986 561 765 481 825 l 404 986 b 432 760 404 904 432 854 l 432 -18 b 404 -244 432 -112 404 -162 "},"◊":{"ha":803,"x_min":null,"x_max":null,"o":"m 219 -31 l 122 540 l 568 1111 l 688 1111 l 785 540 l 339 -31 m 301 72 l 314 72 l 672 540 l 606 1008 l 594 1008 l 226 540 "},"@":{"ha":1404,"x_min":null,"x_max":null,"o":"m 1335 185 b 588 -325 1183 -118 924 -325 b 49 188 251 -325 49 -122 b 865 1039 49 604 417 1039 b 1306 617 1147 1039 1306 864 b 829 -6 1306 290 1029 -6 b 715 96 757 -6 715 29 b 750 238 715 133 729 185 l 797 350 l 779 350 b 446 -4 694 186 574 -4 b 329 156 372 -4 329 57 b 776 750 329 392 565 750 b 896 594 865 750 908 681 l 899 594 l 944 706 b 1058 758 992 706 1035 731 l 1081 747 l 860 218 b 826 101 839 167 826 129 b 876 54 826 71 842 54 b 1256 614 1013 54 1256 329 b 860 993 1256 831 1117 993 b 110 185 443 993 110 578 b 594 -278 110 -108 296 -278 b 1293 185 893 -278 1138 -107 m 504 94 b 807 451 590 94 742 300 b 846 599 831 507 846 560 b 776 682 846 657 813 682 b 456 178 646 682 456 372 b 504 94 456 122 472 94 "},"&":{"ha":1042,"x_min":null,"x_max":null,"o":"m 990 588 b 822 490 906 588 861 572 b 626 181 757 361 692 258 b 783 96 669 129 721 96 b 938 303 878 96 938 174 b 925 410 938 336 933 371 l 956 421 b 975 288 967 379 975 335 b 717 -18 975 104 875 -18 b 518 74 638 -18 572 18 b 264 -22 436 8 351 -22 b 7 214 119 -22 7 56 b 326 611 7 400 160 515 b 325 664 325 631 325 647 b 711 1135 325 967 558 1135 b 850 1003 792 1135 850 1090 b 478 643 850 821 632 732 b 469 638 475 642 472 640 b 600 218 482 511 524 333 b 750 488 654 289 704 381 b 679 588 783 571 781 588 l 692 621 l 1001 621 m 708 1089 b 465 714 611 1089 465 942 l 465 688 b 775 1013 613 765 775 878 b 708 1089 775 1061 751 1089 m 331 51 b 490 107 388 51 440 71 b 333 547 400 225 351 406 b 160 242 232 468 160 372 b 331 51 160 104 236 51 "},"¶":{"ha":872,"x_min":null,"x_max":null,"o":"m 1007 1078 b 842 974 901 1078 867 1056 l 451 -306 l 386 -306 l 801 1054 l 643 1054 l 229 -306 l 164 -306 l 439 581 b 192 761 289 581 192 640 b 592 1111 192 968 372 1111 l 1017 1111 "},"§":{"ha":618,"x_min":null,"x_max":null,"o":"m 549 1138 b 719 1001 660 1138 719 1071 b 646 913 719 956 693 913 b 592 960 614 913 592 931 b 607 1029 592 981 607 1001 b 531 1089 607 1068 585 1089 b 361 904 425 1089 361 992 b 582 510 361 760 582 668 b 379 226 582 403 503 310 b 413 115 399 194 413 158 b 142 -165 413 -29 297 -165 b -31 -31 31 -165 -31 -100 b 44 60 -31 15 -4 60 b 99 13 76 60 99 40 b 83 -58 99 -10 83 -31 b 158 -118 83 -97 106 -118 b 329 67 264 -118 329 -21 b 108 461 329 211 108 304 b 311 744 108 574 194 668 b 278 857 292 778 278 814 b 549 1138 278 1000 393 1138 m 357 258 b 493 460 440 318 493 383 b 332 714 493 565 396 631 b 197 511 251 654 197 589 b 357 258 197 406 293 340 "},"©":{"ha":1240,"x_min":null,"x_max":null,"o":"m 1281 731 b 508 -28 1281 354 931 -28 b 78 392 235 -28 78 144 b 851 1149 78 765 422 1149 b 1281 731 1126 1149 1281 976 m 1233 721 b 839 1101 1233 946 1093 1101 b 126 401 439 1101 126 750 b 519 19 126 169 269 19 b 1233 721 914 19 1233 369 m 307 453 b 771 917 307 686 529 917 b 992 836 919 917 964 836 b 1022 886 1004 836 1010 844 l 1056 886 l 996 629 l 963 629 b 775 857 985 758 914 857 b 419 450 583 857 419 649 b 606 250 419 321 488 250 b 968 492 742 250 885 336 l 1001 492 b 569 192 911 304 750 192 b 307 453 401 192 307 293 "},"®":{"ha":1240,"x_min":null,"x_max":null,"o":"m 851 1149 b 1281 731 1126 1149 1281 976 b 508 -28 1281 354 931 -28 b 78 392 235 -28 78 144 b 851 1149 78 765 422 1149 m 519 19 b 1233 721 914 19 1233 369 b 839 1101 1233 946 1093 1101 b 126 401 439 1101 126 750 b 519 19 126 169 269 19 m 678 561 l 676 557 b 774 435 724 549 751 513 l 807 321 b 925 229 828 251 854 229 l 919 201 l 843 201 b 700 311 760 201 726 210 l 663 457 b 583 568 643 529 625 557 l 510 329 b 567 232 488 254 483 232 l 560 201 l 294 201 l 300 232 b 410 329 360 232 386 254 l 551 790 b 489 888 574 867 576 888 l 496 919 l 765 919 b 961 765 885 919 961 869 b 689 561 961 647 846 561 m 594 607 b 658 599 611 603 635 599 b 864 775 779 599 864 675 b 751 878 864 847 819 878 b 667 840 700 878 675 865 "},"™":{"ha":1507,"x_min":null,"x_max":null,"o":"m 407 1056 b 238 914 322 1056 288 1028 l 204 914 l 289 1111 l 846 1111 l 806 914 l 772 914 b 692 1056 793 1021 776 1056 l 636 1056 b 589 1021 613 1056 596 1044 l 472 638 b 538 533 447 556 444 533 l 529 500 l 235 500 l 242 533 b 371 638 315 533 346 556 l 489 1024 b 465 1056 494 1042 485 1056 m 1146 654 l 1150 654 l 1468 1111 l 1672 1111 l 1667 1078 b 1557 974 1607 1078 1581 1054 l 1458 638 b 1533 533 1435 557 1433 533 l 1525 500 l 1225 500 l 1232 533 b 1358 638 1306 533 1335 557 l 1469 1017 l 1464 1017 l 1081 472 l 1060 472 l 1015 1017 l 1010 1017 l 893 638 b 951 533 869 556 865 533 l 944 500 l 704 500 l 711 533 b 839 638 783 533 814 556 l 942 974 b 894 1078 967 1056 972 1078 l 900 1111 l 1113 1111 "},"°":{"ha":463,"x_min":null,"x_max":null,"o":"m 314 713 b 144 874 211 713 144 772 b 431 1150 144 1015 279 1150 b 597 990 532 1150 597 1088 b 314 713 597 849 464 713 m 333 789 b 510 972 424 789 510 879 b 408 1074 510 1038 474 1074 b 233 890 318 1074 233 983 b 333 789 233 825 269 789 "},"|":{"ha":382,"x_min":null,"x_max":null,"o":"m 375 1139 l 478 1139 l 63 -222 l -40 -222 "},"¦":{"ha":382,"x_min":null,"x_max":null,"o":"m 375 1139 l 478 1139 l 308 583 l 206 583 m 129 333 l 232 333 l 63 -222 l -40 -222 "},"†":{"ha":676,"x_min":null,"x_max":null,"o":"m 115 -306 l 261 172 b 343 654 344 447 363 560 b 467 833 406 713 436 753 b 274 775 372 828 324 775 b 217 850 231 775 203 801 b 297 917 231 893 264 917 b 476 857 361 917 378 860 b 482 1079 507 963 458 1003 b 568 1144 494 1118 526 1144 b 619 1064 608 1144 635 1114 b 500 856 596 990 539 960 b 699 917 597 863 647 917 b 751 842 739 917 765 890 b 672 775 739 799 706 775 b 492 833 610 775 592 829 b 500 649 467 753 474 700 b 290 168 432 557 375 444 l 147 -306 "},"‡":{"ha":682,"x_min":null,"x_max":null,"o":"m 132 -331 b 81 -250 92 -331 67 -300 b 200 -42 104 -176 161 -146 b 1 -103 104 -49 53 -103 b -51 -26 -39 -103 -65 -75 b 29 39 -37 17 -6 39 b 208 -19 90 39 110 -15 b 200 167 233 61 232 113 b 342 411 246 233 308 304 b 349 654 374 514 361 585 b 472 833 411 713 442 753 b 279 775 378 828 331 775 b 222 850 236 775 208 801 b 303 917 236 893 269 917 b 482 857 367 917 383 860 b 488 1079 513 963 464 1003 b 574 1144 500 1118 532 1144 b 625 1064 615 1144 640 1114 b 506 856 603 990 544 960 b 704 917 603 863 653 917 b 757 842 744 917 772 890 b 678 775 744 799 711 775 b 497 833 615 775 597 829 b 507 649 472 753 474 703 b 364 403 460 582 397 510 b 357 160 333 301 346 229 b 233 -19 296 103 264 63 b 426 39 328 -14 376 39 b 483 -36 469 39 497 13 b 404 -103 469 -79 436 -103 b 224 -43 339 -103 322 -46 b 218 -264 194 -149 242 -187 b 132 -331 207 -304 174 -331 "},"̈":{"ha":0,"x_min":null,"x_max":null,"o":"m -235 896 b -318 979 -282 896 -318 932 b -235 1061 -318 1026 -282 1061 b -151 979 -186 1061 -151 1026 b -235 896 -151 932 -186 896 m 21 896 b -64 979 -28 896 -64 932 b 21 1061 -64 1026 -28 1061 b 103 979 68 1061 103 1026 b 21 896 103 932 68 896 "},"̇":{"ha":0,"x_min":null,"x_max":null,"o":"m 22 896 b -61 979 -25 896 -61 932 b 22 1061 -61 1026 -25 1061 b 104 979 69 1061 104 1026 b 22 896 104 932 69 896 "},"̀":{"ha":0,"x_min":null,"x_max":null,"o":"m 42 865 l -3 865 l -206 1119 l -75 1119 "},"́":{"ha":0,"x_min":null,"x_max":null,"o":"m -90 865 l 68 1119 l 200 1119 l -46 865 "},"̋":{"ha":0,"x_min":null,"x_max":null,"o":"m -190 865 l -40 1119 l 56 1119 l -147 865 m -50 865 l 121 1119 l 222 1119 l -6 865 "},"̂":{"ha":0,"x_min":null,"x_max":null,"o":"m 60 865 l 19 865 l -61 1046 l -265 865 l -310 865 l -104 1119 l 24 1119 "},"̌":{"ha":0,"x_min":null,"x_max":null,"o":"m 147 1119 l -60 865 l -187 865 l -222 1119 l -183 1119 l -101 938 l 101 1119 "},"̆":{"ha":0,"x_min":null,"x_max":null,"o":"m 140 1100 b -96 900 111 968 13 900 b -246 1026 -185 900 -246 943 b -232 1100 -246 1049 -242 1074 l -201 1100 b -204 1071 -204 1092 -204 1079 b -83 993 -204 1011 -164 993 b 108 1100 8 993 82 1024 "},"̊":{"ha":0,"x_min":null,"x_max":null,"o":"m -58 875 b -165 981 -126 875 -165 921 b 10 1150 -165 1065 -85 1150 b 117 1047 76 1150 117 1107 b -58 875 117 964 38 875 m -51 922 b 64 1046 19 922 64 996 b 3 1104 64 1081 44 1104 b -112 983 -68 1104 -112 1036 b -51 922 -112 949 -93 922 "},"̃":{"ha":0,"x_min":null,"x_max":null,"o":"m -31 893 b -208 988 -122 893 -137 988 b -319 888 -264 988 -294 946 l -353 892 b -187 1081 -319 983 -268 1081 b -10 985 -96 1081 -81 985 b 101 1085 46 985 76 1026 l 135 1081 b -31 893 101 989 50 893 "},"̄":{"ha":0,"x_min":null,"x_max":null,"o":"m -282 1004 l 108 1004 l 90 939 l -301 939 "},"̒":{"ha":0,"x_min":null,"x_max":null,"o":"m 29 921 b -47 997 -17 921 -47 957 b 140 1161 -47 1069 21 1133 l 140 1128 b 18 1039 81 1114 18 1069 b 29 1028 18 1032 22 1028 b 75 1046 39 1028 49 1046 b 113 1003 97 1046 113 1028 b 29 921 113 960 78 921 "},"̦":{"ha":0,"x_min":null,"x_max":null,"o":"m -304 -103 b -229 -179 -260 -103 -229 -139 b -415 -343 -229 -251 -296 -315 l -415 -310 b -293 -221 -356 -296 -293 -251 b -304 -210 -293 -214 -297 -210 b -350 -228 -314 -210 -324 -228 b -387 -185 -372 -228 -387 -210 b -304 -103 -387 -142 -353 -103 "},"̧":{"ha":0,"x_min":null,"x_max":null,"o":"m -401 19 l -349 19 l -389 -67 b -269 -165 -324 -68 -269 -97 b -521 -324 -269 -247 -358 -324 b -610 -315 -550 -324 -581 -321 l -594 -283 b -543 -285 -578 -285 -558 -285 b -371 -168 -418 -285 -371 -221 b -461 -106 -371 -122 -407 -106 "},"̨":{"ha":0,"x_min":null,"x_max":null,"o":"m -225 -12 b -431 -221 -317 -53 -431 -129 b -358 -283 -431 -261 -410 -283 b -244 -250 -324 -283 -294 -274 l -237 -285 b -406 -343 -293 -324 -346 -343 b -535 -242 -478 -343 -535 -314 b -268 -12 -535 -111 -360 -40 "},"¨":{"ha":565,"x_min":null,"x_max":null,"o":"m 346 890 b 263 974 299 890 263 926 b 346 1057 263 1022 299 1057 b 429 974 394 1057 429 1022 b 346 890 429 926 394 890 m 600 890 b 517 974 553 890 517 926 b 600 1057 517 1022 553 1057 b 682 974 647 1057 682 1022 b 600 890 682 926 647 890 "},"˙":{"ha":299,"x_min":null,"x_max":null,"o":"m 339 890 b 256 974 292 890 256 926 b 339 1057 256 1022 292 1057 b 421 974 386 1057 421 1022 b 339 890 421 926 386 890 "},"`":{"ha":339,"x_min":null,"x_max":null,"o":"m 383 865 l 339 865 l 136 1119 l 267 1119 "},"´":{"ha":339,"x_min":null,"x_max":null,"o":"m 221 865 l 379 1119 l 511 1119 l 265 865 "},"˝":{"ha":457,"x_min":null,"x_max":null,"o":"m 226 865 l 376 1119 l 472 1119 l 269 865 m 367 865 l 536 1119 l 638 1119 l 411 865 "},"ˆ":{"ha":499,"x_min":null,"x_max":null,"o":"m 565 865 l 526 865 l 446 1046 l 242 865 l 196 865 l 403 1119 l 531 1119 "},"ˇ":{"ha":499,"x_min":null,"x_max":null,"o":"m 646 1119 l 439 865 l 311 865 l 276 1119 l 315 1119 l 397 938 l 600 1119 "},"˘":{"ha":510,"x_min":null,"x_max":null,"o":"m 650 1100 b 414 900 621 968 522 900 b 264 1026 325 900 264 943 b 278 1100 264 1049 268 1074 l 308 1100 b 306 1071 306 1092 306 1079 b 426 993 306 1011 346 993 b 618 1100 518 993 592 1024 "},"˚":{"ha":414,"x_min":null,"x_max":null,"o":"m 356 875 b 249 981 288 875 249 921 b 424 1150 249 1065 329 1150 b 531 1047 490 1150 531 1107 b 356 875 531 964 451 875 m 363 922 b 478 1046 433 922 478 996 b 417 1104 478 1081 458 1104 b 301 983 346 1104 301 1036 b 363 922 301 949 321 922 "},"˜":{"ha":565,"x_min":null,"x_max":null,"o":"m 535 893 b 357 988 443 893 428 988 b 246 888 301 988 271 946 l 213 892 b 378 1081 246 983 297 1081 b 556 985 469 1081 485 985 b 667 1085 611 985 642 1026 l 700 1081 b 535 893 667 989 615 893 "},"¯":{"ha":539,"x_min":null,"x_max":null,"o":"m 257 1004 l 646 1004 l 628 939 l 238 939 "},"¸":{"ha":453,"x_min":null,"x_max":null,"o":"m 51 14 l 104 14 l 64 -72 b 183 -171 129 -74 183 -103 b -68 -329 183 -251 94 -329 b -157 -321 -97 -329 -128 -326 l -142 -289 b -90 -290 -125 -289 -106 -290 b 82 -174 35 -290 82 -226 b -8 -110 82 -126 46 -110 "},"˛":{"ha":447,"x_min":null,"x_max":null,"o":"m 222 -12 b 17 -221 131 -53 17 -129 b 89 -283 17 -261 38 -283 b 203 -250 124 -283 153 -274 l 210 -285 b 42 -343 154 -324 101 -343 b -87 -242 -31 -343 -87 -314 b 179 -12 -87 -111 88 -40 "}}}
